<svg xmlns="http://www.w3.org/2000/svg" viewBox="0 0 804.116 140.516"><defs><style>.cls-1{fill:#82be28;}.cls-2{fill:#2d8c3c;}.cls-3{fill:#3c3c3c;}</style></defs><g id="レイヤー_2" data-name="レイヤー 2"><g id="logo"><circle class="cls-1" cx="705.788" cy="29.119" r="3.59"/><circle class="cls-2" cx="688.876" cy="44.736" r="5.811"/><circle class="cls-1" cx="679.422" cy="71.177" r="8.076"/><circle class="cls-2" cx="686.194" cy="102.988" r="10.862"/><circle class="cls-1" cx="716.45" cy="126.681" r="13.832"/><circle class="cls-2" cx="761.757" cy="118.631" r="17.816"/><circle class="cls-1" cx="783.519" cy="71.409" r="20.591"/><circle class="cls-2" cx="747.653" cy="24.544" r="24.537"/><path class="cls-3" d="M284.99,56.864a18.888,18.888,0,0,0-9.37-5.517,53.538,53.538,0,0,0-12.23-1.2H236.123l-1.6,13.3-6.583,44.173-2.211,11.922,2.523-.171c2.831-.19,5-.286,6.421-.286l10.98.144c4.163,0,9.325-.126,12.144-.372a36.677,36.677,0,0,0,9.04-2.012,28.6,28.6,0,0,0,8.932-5.215,46.984,46.984,0,0,0,10.669-12.812,49.427,49.427,0,0,0,5.036-16.456,38.63,38.63,0,0,0-.423-14.126A23.638,23.638,0,0,0,284.99,56.864ZM242.67,102.32,246.4,76.253c.508-3.568,1.543-11.623,3.072-20,.991-.051,5.072-.385,6.589-.4,38.817-.283,17.706,55.23-.179,56.961a65.968,65.968,0,0,1-9.717.592c-1.241,0-3.811-.418-4.525-.475Z"/><path class="cls-3" d="M364.637,50.148h-7.985s-29.153,55.921-29.555,56.6l-13.189-56.6H299.893l17.378,69.231h8.841Z"/><path class="cls-3" d="M385.156,50.148l-39.111,69.231h8.264L365.85,97.793h22.207l4.921,21.586H406.8L387.93,50.148Zm-15.8,40.858,11.311-21.739,5.79,21.739Z"/><path class="cls-2" d="M104.289,50.148l-39.11,69.231h8.264L84.984,97.793H107.19l4.921,21.586h13.824L107.063,50.148Zm-15.8,40.858L99.8,69.267l5.79,21.739Z"/><path class="cls-3" d="M194.188,50.148l-39.111,69.231h8.265l11.541-21.586h22.206l4.921,21.586h13.824L196.962,50.148Zm-15.8,40.858L189.7,69.267l5.79,21.739Z"/><path class="cls-3" d="M471.721,98.444l-38.213-48.2h-4.657L417.33,119.637l8.273-.027,6.56-49.4L470.3,119.613h3.925l12.524-69.424h-7.868S473.158,89.383,471.721,98.444Z"/><path class="cls-2" d="M43.517,49.309c-10.428,0-19.617,2.938-27.305,8.722A38.859,38.859,0,0,0,5.956,69.851,42.08,42.08,0,0,0,.615,84.378c-1.128,7.236-.7,13.643,1.263,19.041A24.148,24.148,0,0,0,12.456,116.24c4.911,2.922,11.029,4.4,18.178,4.4,8.954,0,16.588-1.9,22.692-5.653l.64-.392,2.773-9.06H54.92s-9.286,8.477-22.4,8.612c-28.908.3-24.7-58.956,9.966-58.139,5.893.139,10.6,2.968,14.372,7.285l1.478,1.937L59.222,65a35.838,35.838,0,0,1,5.872-10.286S54.435,49.309,43.517,49.309Z"/><path class="cls-3" d="M535.135,49.844c-10.428,0-19.617,2.914-27.305,8.652a38.65,38.65,0,0,0-10.255,11.727,41.527,41.527,0,0,0-5.341,14.412c-1.129,7.18-.7,13.536,1.263,18.892a23.993,23.993,0,0,0,10.577,12.719c4.912,2.9,11.03,4.369,18.179,4.369,8.953,0,16.588-1.889,22.691-5.608l.64-.389,2.773-8.988h-1.819s-9.286,8.41-22.4,8.544c-28.907.294-24.7-58.491,9.967-57.681,5.893.138,10.6,2.945,14.372,7.228l1.477,1.922.883-.235A35.524,35.524,0,0,1,556.712,55.2S546.053,49.844,535.135,49.844Z"/><path class="cls-3" d="M619.135,50.262s-12.93.288-15.162.288l-22.411,0L569.1,50.205l-.039,2.014c-.114,5.955-6.967,44.892-10.572,64.648l-.432,2.365h2.355c.956,0,2.358-.024,4.2-.075q2.7-.068,3.91-.069c.974,0,7.853-.027,9.782-.075q2.853-.067,4.213-.069c2.848,0,13.776.1,18.936.285l8.317.186,1.641-9.875-2.488.183c-.1.009-10.231.757-13,.76-5.1.255-15.419.4-22.187.429.218-1.615.518-3.617.9-5.985l2.864-18.168,18.382.5c2.081,0,12.371.6,12.477.609l1.758.1,1.6-9.941-2.449.156-30.45,1.189,3.6-20.359,9.4,0,12.677.288c.544.027,1.643.061,2.9.1,2.093.063,4.642.135,5.662.225,1.685.15,5.107.3,5.107.3l1.723.075,1.625-9.785Z"/></g></g></svg>