<svg height="66.755" viewBox="0 0 619.248 66.755" width="619.248" xmlns="http://www.w3.org/2000/svg"><g transform="translate(-15.964 -848.596)"><path d="m128.121 848.7c-19.33 0-35 14.775-35 33s15.67 33 35 33 35-14.774 35-33-15.67-33-35-33zm0 55.4c-11.322 0-20.5-10.074-20.5-22.5s9.178-22.5 20.5-22.5 20.5 10.073 20.5 22.5-9.178 22.494-20.5 22.494z"/><circle cx="477.956" cy="869.128" r="6"/><circle cx="477.956" cy="907.677" r="6"/><path d="m357.548 856.667h5.068v-6.99h-20l-15.463 32.341s-1.4 2.89-3.869 2.89-3.878-2.91-3.878-2.91l-15.637-32.321h-19.317v6.99h4.234a2 2 0 0 1 2 2c0 .025.012.035.016.055l-2.158 46.035a2 2 0 0 1 -1.993 1.929h-3.1v6.991h21v-6.991h-2.83a.269.269 0 0 0 -.066-.015 2 2 0 0 1 -2-2c0-.01-.006-.014-.007-.024l1.069-22.809a3.3 3.3 0 0 1 6.14-1.651l14.769 25.78a2 2 0 0 0 3.506 0l14.068-24.544a3 3 0 0 1 5.576 1.539c.026.572 1.028 21.716 1.028 21.716v.007a2 2 0 0 1 -2 2h-3.086v6.991h22v-6.991h-2.918a2 2 0 0 1 -2-1.952l-2.159-46.066a2 2 0 0 1 2.007-2z"/><path d="m255.725 856.667h5.068v-6.99h-20l-15.463 32.341s-1.4 2.89-3.869 2.89-3.877-2.91-3.877-2.91l-15.638-32.321h-19.316v6.99h4.233a2 2 0 0 1 2 2c0 .025.012.035.016.055l-2.158 46.035a2 2 0 0 1 -1.993 1.929h-3.1v6.991h21v-6.991h-2.828a.269.269 0 0 0 -.066-.015 2 2 0 0 1 -2-2c0-.01-.006-.014-.007-.024l1.069-22.809a3.3 3.3 0 0 1 6.14-1.651s0 0 0 0l14.769 25.78a2 2 0 0 0 3.506 0l14.06-24.541a3 3 0 0 1 5.576 1.539c.026.572 1.028 21.716 1.028 21.716v.007a2 2 0 0 1 -2 2h-3.086v6.991h22v-6.991h-2.914a2 2 0 0 1 -1.995-1.952l-2.16-46.066a2 2 0 0 1 2.005-2z"/><path d="m427.158 849.677v6.99h3.15a2 2 0 0 1 2 2v30.442c0 9.01-5.094 15.742-14.531 15.742s-14.469-6.607-14.469-15.742v-30.442a2 2 0 0 1 2-2h3.482v-6.99h-24v6.99h3.518a2 2 0 0 1 2 2v30.473c0 14.521 8.168 26.211 27.467 26.211 19.257 0 27.524-11.815 27.524-26.117l.007-30.6a2 2 0 0 1 2-1.962h2.85v-6.99z"/><path d="m567.95 881.677c0-21.487-15.481-31.8-34.685-31.991v-.009h-27.506v6.99h3.364a2 2 0 0 1 2 2v45.41a2 2 0 0 1 -2 2h-3.333v7.6h27.11c19.373-.064 35.05-10.377 35.05-32zm-36.8 23.023a23 23 0 0 1 -3.6-.295 3 3 0 0 1 -2.423-2.944v-40.368a2 2 0 0 1 1.521-1.942 22.956 22.956 0 0 1 4.5-.447c12.7 0 23 5.838 23 23 0 13.911-10.3 23-23 23z"/><path d="m625.513 896.981v4.927a2.99 2.99 0 0 1 -2.69 2.969h-16.637a3 3 0 0 1 -3-3v-13.2a3 3 0 0 1 3-3h14.567v-8h-14.633a3 3 0 0 1 -2.934-2.994v-13.207a3 3 0 0 1 3-3h15.349a3 3 0 0 1 3 3v4.416h9.7v-16.215h-49.627v6.99h2.578a2 2 0 0 1 2 2v46.019a2 2 0 0 1 -2 2h-2.578v6.991h50.6v-16.7z"/><path d="m67.66 894.547c-3.652 6.657-9.937 11.073-17.208 11.073-11.347 0-20.546-10.745-20.546-24s9.2-24 20.546-24c8.338 0 14.047 5.739 16.645 10.078h9.059v-18.207h-7v2.233a1.986 1.986 0 0 1 -.54 1.359 2.239 2.239 0 0 1 -.833.531c-.043.014-.086.029-.131.041a2.755 2.755 0 0 1 -.442.064 2.079 2.079 0 0 1 -.882-.18 32.991 32.991 0 1 0 12.972 41.008z"/></g></svg>