<svg xmlns="http://www.w3.org/2000/svg" xmlns:xlink="http://www.w3.org/1999/xlink" width="343.379" height="53.859" viewBox="0 0 343.379 53.859"><defs><clipPath id="a"><rect width="343.379" height="53.859" fill="none"/></clipPath></defs><path d="M53.455,43.342l-10.1,12.976L53.455,69.3h16.93L60.279,56.317,70.385,43.342Z" transform="translate(-34.047 -34.04)" fill="#37bef0"/><path d="M162.458,86.684l10.1,12.978-10.1,12.977h16.93l10.1-12.977-10.1-12.978Z" transform="translate(-127.593 -68.08)" fill="#37bef0"/><g clip-path="url(#a)"><path d="M853.02,109.109a3.751,3.751,0,0,0-2.45-2.343,6.035,6.035,0,0,0-1.856-.274,5.438,5.438,0,0,0-2.907.776,5.361,5.361,0,0,0-1.994,2.237h-.061a3.229,3.229,0,0,0-.578-1.2,4.2,4.2,0,0,0-1.02-.959,5.145,5.145,0,0,0-1.324-.623,4.957,4.957,0,0,0-1.491-.228,5.519,5.519,0,0,0-4.5,2.229v-1.9c-.439.029-.787.086-1.166.086-.407,0-.785-.057-1.166-.086v14.292c.38-.03.758-.088,1.165-.088.378,0,.727.058,1.166.088v-8.39a5.242,5.242,0,0,1,.849-3.342,3.391,3.391,0,0,1,2.952-1.309,2.921,2.921,0,0,1,1.476.411,2.766,2.766,0,0,1,1.051.989,5.819,5.819,0,0,1,.289.67,3.966,3.966,0,0,1,.168.776,12.659,12.659,0,0,1,.076,1.278c0,.168.006.364.008.573v8.355c.373-.029.745-.086,1.145-.086.371,0,.714.057,1.145.086v-8.355s.063-1.187.106-1.577a4.043,4.043,0,0,1,.212-1.02,3.231,3.231,0,0,1,.381-.67,3.66,3.66,0,0,1,1.187-1,3.749,3.749,0,0,1,1.856-.426,3.54,3.54,0,0,1,1.522.289,2.578,2.578,0,0,1,.973.776,3.194,3.194,0,0,1,.533,1.157,5.885,5.885,0,0,1,.168,1.428v9.391c.38-.03.759-.088,1.165-.088.378,0,.727.058,1.166.088V111.3a6.28,6.28,0,0,0-.246-2.192" transform="translate(-653.842 -83.638)"/><path d="M963.447,109.109a3.752,3.752,0,0,0-2.45-2.343,6.035,6.035,0,0,0-1.856-.274,5.438,5.438,0,0,0-2.907.776,5.361,5.361,0,0,0-1.994,2.237h-.061a3.229,3.229,0,0,0-.578-1.2,4.194,4.194,0,0,0-1.02-.959,5.144,5.144,0,0,0-1.324-.623,4.957,4.957,0,0,0-1.491-.228,5.52,5.52,0,0,0-4.5,2.229v-1.9c-.439.029-.787.086-1.166.086-.407,0-.785-.057-1.166-.086v14.292c.38-.03.758-.088,1.165-.088.378,0,.727.058,1.166.088v-8.39a5.242,5.242,0,0,1,.849-3.342,3.391,3.391,0,0,1,2.952-1.309,2.92,2.92,0,0,1,1.476.411,2.765,2.765,0,0,1,1.051.989,5.808,5.808,0,0,1,.289.67,3.966,3.966,0,0,1,.168.776,12.662,12.662,0,0,1,.076,1.278c0,.168.006.364.008.573v8.355c.373-.029.745-.086,1.145-.086.371,0,.714.057,1.145.086v-8.355s.063-1.187.106-1.577a4.047,4.047,0,0,1,.212-1.02,3.23,3.23,0,0,1,.381-.67,3.66,3.66,0,0,1,1.187-1,3.749,3.749,0,0,1,1.856-.426,3.54,3.54,0,0,1,1.522.289,2.58,2.58,0,0,1,.974.776,3.2,3.2,0,0,1,.532,1.157,5.873,5.873,0,0,1,.168,1.428v9.391c.38-.03.759-.088,1.165-.088.378,0,.727.058,1.166.088V111.3a6.282,6.282,0,0,0-.246-2.192" transform="translate(-740.57 -83.638)"/><path d="M1064.782,108.111c-.407,0-.786-.057-1.166-.087v9.323a4.9,4.9,0,0,1-.647,1.785,3.876,3.876,0,0,1-1.27,1.4,3.724,3.724,0,0,1-2.1.554,3.414,3.414,0,0,1-1.512-.314,3.533,3.533,0,0,1-1.063-.794,2.225,2.225,0,0,1-.569-1.32,12.281,12.281,0,0,1-.06-1.487v-9.144c-.439.029-.787.086-1.166.086-.407,0-.785-.057-1.166-.086v9.7a4.576,4.576,0,0,0,1.148,3.579,5.167,5.167,0,0,0,3.669,1.243,5.453,5.453,0,0,0,2.665-.674,5.087,5.087,0,0,0,2.007-2.112h.06v2.562c.38-.03.759-.088,1.165-.088.378,0,.727.058,1.165.088V108.024c-.438.03-.787.087-1.165.087" transform="translate(-827.851 -84.841)"/><path d="M540.476,113.13q-.952-.323-1.992-.7a5.246,5.246,0,0,1-1.662-.907,1.769,1.769,0,0,1-.623-1.413,3.507,3.507,0,0,1,.059-.5,2.117,2.117,0,0,1,.879-1.428,2.734,2.734,0,0,1,1.611-.5,2.955,2.955,0,0,1,1.127.22,2.683,2.683,0,0,1,.952.652,2.479,2.479,0,0,1,.586,1.061h.468l.7-2.343a7.026,7.026,0,0,0-3.339-.806,5.707,5.707,0,0,0-3.6,1.157,4.036,4.036,0,0,0-1.493,3.4,3.455,3.455,0,0,0,.695,2.292,4.07,4.07,0,0,0,1.882,1.223q.425.161,1.362.41a10.623,10.623,0,0,1,1.574.534,2.715,2.715,0,0,1,1.032.784,2.5,2.5,0,0,1,.483,1.317,2.262,2.262,0,0,1-.41,1.253,3.108,3.108,0,0,1-1.084,1,2.922,2.922,0,0,1-1.464.381,3.644,3.644,0,0,1-3.134-2.168h-.469l-.7,2.109q1.172,1.173,4.217,1.172a5.623,5.623,0,0,0,2.694-.667,5.317,5.317,0,0,0,1.962-1.742,3.929,3.929,0,0,0,.718-2.2,3.248,3.248,0,0,0-.754-2.072,5.135,5.135,0,0,0-2.277-1.516" transform="translate(-419.331 -83.618)"/><path d="M589.076,113.13q-.952-.323-1.991-.7a5.247,5.247,0,0,1-1.662-.907,1.769,1.769,0,0,1-.623-1.413,3.532,3.532,0,0,1,.059-.5,2.117,2.117,0,0,1,.879-1.428,2.734,2.734,0,0,1,1.611-.5,2.952,2.952,0,0,1,1.127.22,2.683,2.683,0,0,1,.952.652,2.478,2.478,0,0,1,.586,1.061h.469l.7-2.343a7.025,7.025,0,0,0-3.339-.806,5.707,5.707,0,0,0-3.6,1.157,4.035,4.035,0,0,0-1.494,3.4,3.455,3.455,0,0,0,.7,2.292,4.071,4.071,0,0,0,1.882,1.223q.425.161,1.362.41a10.635,10.635,0,0,1,1.574.534,2.716,2.716,0,0,1,1.032.784,2.5,2.5,0,0,1,.484,1.317,2.262,2.262,0,0,1-.41,1.253,3.11,3.11,0,0,1-1.084,1,2.921,2.921,0,0,1-1.464.381,3.646,3.646,0,0,1-3.134-2.168h-.469l-.7,2.109q1.172,1.173,4.218,1.172a5.624,5.624,0,0,0,2.694-.667,5.32,5.32,0,0,0,1.963-1.742,3.934,3.934,0,0,0,.717-2.2,3.245,3.245,0,0,0-.754-2.072,5.13,5.13,0,0,0-2.277-1.516" transform="translate(-457.5 -83.618)"/><path d="M1299.657,119v-7.554a5,5,0,0,0-1.245-3.791,5.578,5.578,0,0,0-3.91-1.167,6.883,6.883,0,0,0-1.844.244,9.152,9.152,0,0,0-1.546.569q-.665.325-1.529.841V109.8h.469a7.7,7.7,0,0,1,1.714-1.623,3.285,3.285,0,0,1,1.8-.5,3.361,3.361,0,0,1,1.9.546,3.82,3.82,0,0,1,1.265,1.365,3.351,3.351,0,0,1,.447,1.616,1.846,1.846,0,0,1-.314,1.084,1.475,1.475,0,0,1-.959.583l-3.748.708a6.653,6.653,0,0,0-2.19.915,3.47,3.47,0,0,0-1.193,1.342,4.036,4.036,0,0,0-.365,1.756,3.509,3.509,0,0,0,1.178,2.664,4.09,4.09,0,0,0,2.893,1.1,6.646,6.646,0,0,0,4.6-2.11,1.858,1.858,0,0,0,.872,1.284,2.9,2.9,0,0,0,1.632.487,2.61,2.61,0,0,0,1.713-.59v-.709a3.947,3.947,0,0,1-.836.133c-.537,0-.8-.28-.8-.841m-2.577-1.18a4.182,4.182,0,0,1-3.367,2.022,3.067,3.067,0,0,1-1.809-.56,1.979,1.979,0,0,1-.915-1.225,5.408,5.408,0,0,1-.073-.8,2.464,2.464,0,0,1,.622-1.719,4.318,4.318,0,0,1,1.956-1.1,18.727,18.727,0,0,1,3.588-.635Z" transform="translate(-1011.903 -83.637)"/><path d="M471.792,108.163a6.743,6.743,0,0,0-2.342-1.291,8.576,8.576,0,0,0-5.21,0,6.713,6.713,0,0,0-2.357,1.291,6.435,6.435,0,0,0-1.7,2.312,9.637,9.637,0,0,0,0,6.936,6.423,6.423,0,0,0,1.7,2.312,6.154,6.154,0,0,0,2.357,1.246,9.585,9.585,0,0,0,5.21,0,6.172,6.172,0,0,0,2.342-1.246,6.435,6.435,0,0,0,1.7-2.312,9.643,9.643,0,0,0,0-6.936,6.447,6.447,0,0,0-1.7-2.312m-.525,8.213a6.469,6.469,0,0,1-.766,2.087,4.1,4.1,0,0,1-1.442,1.457,4.838,4.838,0,0,1-4.444,0,4.1,4.1,0,0,1-1.442-1.457,6.47,6.47,0,0,1-.766-2.087,13.241,13.241,0,0,1,0-4.864,6.483,6.483,0,0,1,.766-2.087,4.1,4.1,0,0,1,1.442-1.456,4.838,4.838,0,0,1,4.444,0,4.1,4.1,0,0,1,1.442,1.456,6.482,6.482,0,0,1,.766,2.087,13.248,13.248,0,0,1,0,4.864" transform="translate(-360.918 -83.618)"/><path d="M765.77,108.163a6.74,6.74,0,0,0-2.342-1.291,8.576,8.576,0,0,0-5.21,0,6.715,6.715,0,0,0-2.358,1.291,6.44,6.44,0,0,0-1.7,2.312,9.639,9.639,0,0,0,0,6.936,6.428,6.428,0,0,0,1.7,2.312,6.156,6.156,0,0,0,2.358,1.246,9.585,9.585,0,0,0,5.21,0,6.169,6.169,0,0,0,2.342-1.246,6.431,6.431,0,0,0,1.7-2.312,9.637,9.637,0,0,0,0-6.936,6.443,6.443,0,0,0-1.7-2.312m-.525,8.213a6.464,6.464,0,0,1-.766,2.087,4.094,4.094,0,0,1-1.442,1.457,4.838,4.838,0,0,1-4.444,0,4.106,4.106,0,0,1-1.442-1.457,6.475,6.475,0,0,1-.765-2.087,13.22,13.22,0,0,1,0-4.864,6.488,6.488,0,0,1,.765-2.087,4.109,4.109,0,0,1,1.442-1.456,4.838,4.838,0,0,1,4.444,0,4.1,4.1,0,0,1,1.442,1.456,6.477,6.477,0,0,1,.766,2.087,13.262,13.262,0,0,1,0,4.864" transform="translate(-591.805 -83.618)"/><path d="M1435.5,108.163a6.745,6.745,0,0,0-2.342-1.291,8.576,8.576,0,0,0-5.21,0,6.712,6.712,0,0,0-2.357,1.291,6.44,6.44,0,0,0-1.7,2.312,9.642,9.642,0,0,0,0,6.936,6.428,6.428,0,0,0,1.7,2.312,6.153,6.153,0,0,0,2.357,1.246,9.585,9.585,0,0,0,5.21,0,6.174,6.174,0,0,0,2.342-1.246,6.432,6.432,0,0,0,1.7-2.312,9.633,9.633,0,0,0,0-6.936,6.444,6.444,0,0,0-1.7-2.312m-.525,8.213a6.464,6.464,0,0,1-.766,2.087,4.1,4.1,0,0,1-1.442,1.457,4.838,4.838,0,0,1-4.444,0,4.107,4.107,0,0,1-1.442-1.457,6.475,6.475,0,0,1-.766-2.087,13.23,13.23,0,0,1,0-4.864,6.488,6.488,0,0,1,.766-2.087,4.11,4.11,0,0,1,1.442-1.456,4.838,4.838,0,0,1,4.444,0,4.1,4.1,0,0,1,1.442,1.456,6.477,6.477,0,0,1,.766,2.087,13.266,13.266,0,0,1,0,4.864" transform="translate(-1117.799 -83.618)"/><path d="M1132.234,106.467a5.582,5.582,0,0,0-2.674.777,5.083,5.083,0,0,0-2.007,2.112h-.059V106.8c-.439.029-.787.086-1.165.086-.407,0-.785-.057-1.166-.086V121.1c.38-.03.759-.089,1.166-.089.378,0,.727.058,1.165.089v-9.32a4.911,4.911,0,0,1,.668-1.82,3.626,3.626,0,0,1,1.249-1.365,3.723,3.723,0,0,1,2.1-.554,3.414,3.414,0,0,1,1.512.314,3.533,3.533,0,0,1,1.064.794,2.227,2.227,0,0,1,.569,1.32,20.645,20.645,0,0,1,.06,2.3V121.1s.843-.06,1.241-.06.826.02,1.245.06l0-9.7a4.641,4.641,0,0,0-1.305-3.579,5.194,5.194,0,0,0-3.661-1.346" transform="translate(-883.689 -83.618)"/><path d="M1507.64,106.467a5.581,5.581,0,0,0-2.674.777,5.081,5.081,0,0,0-2.007,2.112h-.059V106.8c-.439.029-.787.086-1.166.086-.407,0-.785-.057-1.166-.086V121.1c.38-.03.758-.089,1.165-.089.378,0,.727.058,1.166.089v-9.32a4.9,4.9,0,0,1,.667-1.82,3.628,3.628,0,0,1,1.249-1.365,3.723,3.723,0,0,1,2.1-.554,3.414,3.414,0,0,1,1.512.314,3.532,3.532,0,0,1,1.064.794,2.225,2.225,0,0,1,.569,1.32,20.6,20.6,0,0,1,.06,2.3V121.1s.843-.06,1.241-.06.826.02,1.245.06l0-9.7a4.64,4.64,0,0,0-1.305-3.579,5.194,5.194,0,0,0-3.661-1.346" transform="translate(-1178.529 -83.618)"/><path d="M1356.934,104.3V96.984h3.087a2.385,2.385,0,0,1,0-1.108h-3.087V92.088l-2.332.9v2.884H1352.8a2.416,2.416,0,0,1,0,1.108h1.805v8.48c-.145,3.556,1.136,4.574,3.352,4.574a7.044,7.044,0,0,0,2.447-.525v-.7a6.863,6.863,0,0,1-1.31.2c-2.418,0-2.156-2.946-2.156-4.72" transform="translate(-1062.47 -72.325)"/><path d="M1226.127,109.313a4.3,4.3,0,0,1,1.591-1.365,5.077,5.077,0,0,1,2.326-.5,3.737,3.737,0,0,1,1.321.225,4.963,4.963,0,0,1,1.1.57,4.831,4.831,0,0,1,.856.751,4.236,4.236,0,0,1,.57.8h.24a10.359,10.359,0,0,1,.285-1.036,8.81,8.81,0,0,1,.375-.945,5.166,5.166,0,0,0-1.876-.916,9.965,9.965,0,0,0-2.957-.405,9.343,9.343,0,0,0-2.822.435,6.7,6.7,0,0,0-4.172,3.677,7.865,7.865,0,0,0-.661,3.362,8.265,8.265,0,0,0,.645,3.452,6.454,6.454,0,0,0,1.7,2.3,6.329,6.329,0,0,0,2.357,1.26,9.363,9.363,0,0,0,2.6.376,7.725,7.725,0,0,0,2.776-.51,8.293,8.293,0,0,0,2.236-1.231,8.89,8.89,0,0,1,.181-1.471l-.15-.09a5.733,5.733,0,0,1-.916.841,6.7,6.7,0,0,1-1.125.675,6.914,6.914,0,0,1-1.231.45,4.836,4.836,0,0,1-1.23.165,4.764,4.764,0,0,1-3.872-1.576,7.112,7.112,0,0,1-1.321-4.667,10.948,10.948,0,0,1,.286-2.567,5.925,5.925,0,0,1,.9-2.056" transform="translate(-959.98 -83.638)"/><path d="M670.443,79.739a6.964,6.964,0,0,1,2.633-1.75,9.228,9.228,0,0,1,3.276-.569,6.517,6.517,0,0,1,1.975.284,8.01,8.01,0,0,1,1.616.7,9.231,9.231,0,0,1,1.257.868,6.635,6.635,0,0,1,.838.808l.179-.059q.089-.478.239-1.2a3.94,3.94,0,0,1,.389-1.137,16.893,16.893,0,0,0-2.887-.972,15.008,15.008,0,0,0-3.606-.4,13.757,13.757,0,0,0-4.548.718,9.927,9.927,0,0,0-3.546,2.095,9.455,9.455,0,0,0-2.3,3.366,12.894,12.894,0,0,0,0,9.067,9.64,9.64,0,0,0,2.274,3.366,9.206,9.206,0,0,0,3.456,2.05,13.649,13.649,0,0,0,4.369.673,12.2,12.2,0,0,0,2.124-.18q1.017-.18,1.841-.4a8.052,8.052,0,0,0,1.406-.509,3.85,3.85,0,0,0,.852-.524l.27-1.765-.12-.12q-.419.33-1.033.763a10,10,0,0,1-1.376.808,10.6,10.6,0,0,1-1.676.644,7,7,0,0,1-1.99.269,9.232,9.232,0,0,1-3.276-.568,6.955,6.955,0,0,1-2.633-1.751,8.153,8.153,0,0,1-1.75-2.992,14.976,14.976,0,0,1,0-8.588,8.168,8.168,0,0,1,1.75-2.993" transform="translate(-522.387 -59.935)"/><path d="M337.079,79.739a6.972,6.972,0,0,1,2.634-1.75,9.23,9.23,0,0,1,3.276-.569,6.515,6.515,0,0,1,1.975.284,8,8,0,0,1,1.616.7,9.226,9.226,0,0,1,1.257.868,6.669,6.669,0,0,1,.838.808l.179-.059q.09-.478.24-1.2a3.949,3.949,0,0,1,.389-1.137,16.906,16.906,0,0,0-2.888-.972,15.011,15.011,0,0,0-3.606-.4,13.758,13.758,0,0,0-4.548.718,9.927,9.927,0,0,0-3.546,2.095,9.459,9.459,0,0,0-2.3,3.366,12.9,12.9,0,0,0,0,9.067,9.641,9.641,0,0,0,2.274,3.366,9.207,9.207,0,0,0,3.456,2.05,13.653,13.653,0,0,0,4.369.673,12.2,12.2,0,0,0,2.124-.18q1.017-.18,1.84-.4a8.083,8.083,0,0,0,1.407-.509,3.859,3.859,0,0,0,.852-.524l.27-1.765-.12-.12q-.419.33-1.033.763a9.986,9.986,0,0,1-1.376.808,10.61,10.61,0,0,1-1.676.644,7,7,0,0,1-1.99.269,9.234,9.234,0,0,1-3.276-.568,6.963,6.963,0,0,1-2.634-1.751,8.162,8.162,0,0,1-1.75-2.992,14.985,14.985,0,0,1,0-8.588,8.177,8.177,0,0,1,1.75-2.993" transform="translate(-260.567 -59.935)"/><path d="M430.582,109.091l.214-2.569c-.215-.02-.366-.029-.454-.029a3.813,3.813,0,0,0-1.728.4,4.792,4.792,0,0,0-1.427,1.091,7.2,7.2,0,0,0-1.077,1.581v-2.744c-.439.029-.787.086-1.166.086-.407,0-.785-.057-1.166-.086v14.292c.38-.03.759-.088,1.165-.088.378,0,.727.058,1.166.088v-8.5a4.851,4.851,0,0,1,.322-1.669,3.788,3.788,0,0,1,.959-1.48,2.171,2.171,0,0,1,1.545-.6,3.374,3.374,0,0,1,1.436.374Z" transform="translate(-332.831 -83.638)"/><path d="M1198.3,79.579a1.486,1.486,0,0,0,0,2.972,1.486,1.486,0,0,0,0-2.972" transform="translate(-939.967 -62.5)"/><path d="M1200.641,108.037c-.439.029-.787.086-1.166.086-.407,0-.786-.057-1.166-.086v14.292c.38-.03.759-.089,1.165-.089.378,0,.727.058,1.166.089Z" transform="translate(-941.138 -84.851)"/><path d="M1400.638,79.579a1.486,1.486,0,0,0,0,2.972,1.486,1.486,0,0,0,0-2.972" transform="translate(-1098.877 -62.5)"/><path d="M1401.809,108.123c-.407,0-.785-.057-1.166-.086v14.292c.38-.03.758-.088,1.166-.088.378,0,.727.058,1.166.088V108.037c-.439.029-.787.086-1.166.086" transform="translate(-1100.048 -84.851)"/></g></svg>