<?xml version="1.0" encoding="UTF-8"?><svg id="_レイヤー_2" xmlns="http://www.w3.org/2000/svg" viewBox="0 0 90.01 37.72"><defs><style>.cls-1{fill:#90c128;}</style></defs><g id="_レイヤー_1-2"><g><path d="m31.35,17.75c1.27-.99,2.45-2.14,3.84-2.92,3.3-1.86,6.78-2.23,10.02.03,3.14,2.19,4.06,5.33,3.23,9.04-.54,2.4-.91,4.84-1.34,7.27-.27,1.52-1.12,1.79-2.69,1.13.35-2.17.69-4.29,1.04-6.42.17-1.03.4-2.05.51-3.09.54-5.25-3.49-8.28-8.43-6.28-3.13,1.27-5.11,3.6-5.79,6.92-.49,2.41-.88,4.85-1.32,7.27-.24,1.31-.62,2.49-2.79,1.62.14-1.09.27-2.27.47-3.44.33-1.96.76-3.91,1.05-5.88.76-5.2-3.26-8.45-8.22-6.57-3.13,1.18-5.26,3.41-5.95,6.76-.53,2.6-1,5.21-1.48,7.82-.25,1.39-.9,2.03-2.64,1.22.61-4.05.88-8.22,2.49-12.07,1.26-3,3.71-5.04,6.8-6.17,4.25-1.56,7.33-.49,11.22,3.75Z"/><path d="m58.97,32.6c-2.17,1.54-.16,5.21-4.22,5.11.28-1.88.48-3.45.75-5.01,1-5.68,2.05-11.36,3.04-17.05.26-1.51.85-2.41,2.58-2.33,2.57.11,5.17-.08,7.72.15,5.9.54,9.16,5.78,7.17,11.31-1.65,4.58-5.99,7.71-10.91,7.81-2.19.04-4.37,0-6.13,0Zm-.38-2.63c2.85,0,5.35.28,7.76-.06,3.69-.52,6.21-2.76,7.34-6.33,1.02-3.22-.53-6.66-3.55-7.29-2.95-.62-5.99-.4-9.03-.07-.85,4.64-1.65,8.99-2.52,13.76Z"/><path d="m90.01.23c-.71,4.12-1.36,8.11-2.08,12.09-1.08,5.96-2.21,11.9-3.31,17.86-.07.37,0,.86-.21,1.1-.44.49-1.04.84-1.57,1.24-.29-.51-.74-.99-.82-1.53-.09-.63.13-1.31.25-1.96,1.62-8.94,3.24-17.87,4.86-26.81.24-1.36.36-2.79,2.88-1.99Z"/><path class="cls-1" d="m.14,32.29c-.05-.57-.21-1.13-.12-1.65,1.04-5.96,2.11-11.91,3.18-17.87.19-1.08.42-2.14,2.2-1.6,0,.56.09,1.19-.01,1.79-1.04,5.77-2.09,11.53-3.19,17.29-.19,1.01-.13,2.42-2.06,2.04Z"/></g></g></svg>