<svg id="レイヤー_1" data-name="レイヤー 1" xmlns="http://www.w3.org/2000/svg" viewBox="0 0 900 144"><path d="M13.51,4A4,4,0,0,0,9.36,8V136a4.11,4.11,0,0,0,4.15,4.11H30.18A4.21,4.21,0,0,0,34.37,136V8a4.15,4.15,0,0,0-4.19-4Z"/><path d="M146.23,4a6.38,6.38,0,0,0-5.58,3.8l-20.52,55c-.82,2.16-2.13,2.16-2.79,0L97.9,7.75A6.24,6.24,0,0,0,92.41,4H67.07A4,4,0,0,0,63,8V136a4.1,4.1,0,0,0,4.1,4.11H82.66A4.14,4.14,0,0,0,86.81,136V44.41c0-2.2.68-2.34,1.45-.22L108,98.34a6.43,6.43,0,0,0,5.58,3.91h9.28a6.47,6.47,0,0,0,5.6-3.89l21.29-54.64c.84-2,1.48-2,1.48.31V136a4.19,4.19,0,0,0,4.09,4.11h16.76a4.18,4.18,0,0,0,4.16-4.11V8a4.12,4.12,0,0,0-4.16-4Z"/><path d="M464.23,1.25c-28.25,0-44.44,16.74-44.44,46V89.12c0,36.53,14.13,53.63,44.44,53.63s44.4-17.1,44.4-53.63V47.28C508.63,18,492.44,1.25,464.23,1.25Zm0,119.15c-10.48,0-19.13-2.25-19.13-30.57V46.73c0-15.4,6.44-23.17,19.13-23.17s19.09,7.77,19.09,23.17v43.1C483.32,118.15,474.62,120.4,464.23,120.4Z"/><path d="M605.7,4a5.67,5.67,0,0,0-5.21,4L576,99.85c-.6,2.23-1.51,2.23-2.09,0L550,7.94a5.41,5.41,0,0,0-5.1-4h-18.6a2.9,2.9,0,0,0-3,3.9l37.15,128.24a5.86,5.86,0,0,0,5.29,4h17.7a5.87,5.87,0,0,0,5.26-4L626.22,7.85a2.94,2.94,0,0,0-3-3.9Z"/><path d="M650.43,4a4.14,4.14,0,0,0-4.17,4V136a4.19,4.19,0,0,0,4.17,4.11h16.71a4.1,4.1,0,0,0,4.11-4.11V8a4,4,0,0,0-4.11-4Z"/><path d="M786.19,25.83C779.34,11.31,766.49,4,748,4H706.59a4.06,4.06,0,0,0-4.13,4V136a4.12,4.12,0,0,0,4.13,4.11h31.47c23.3,0,37.8-5.91,45.75-18.42,5.82-9.39,8.4-25.87,8.4-53.72C792.21,67.63,792.13,38.4,786.19,25.83ZM766.88,83.45c0,29.08-7.86,33.74-26.52,33.74h-9.89a4.07,4.07,0,0,1-4.09-4.07V30.84a4.08,4.08,0,0,1,4.09-4.07h15.89c12.66,0,20.52,5.14,20.52,30.89Z"/><path d="M287.1,44.65c0,29-15,39.27-33.5,39.27H234.13A4.16,4.16,0,0,0,230,88.07V136a4.16,4.16,0,0,1-4.09,4.11H209.18A4.18,4.18,0,0,1,205,136V8a4.12,4.12,0,0,1,4.15-4h44.58C279.86,4,287.1,18,287.1,44.65Zm-23.47-.93c0-16.15-7.49-17.83-9.69-17.83H234.13A4.19,4.19,0,0,0,230,30.06V57.77a4.09,4.09,0,0,0,4.09,4.11h15.2C261.43,61.88,263.63,55.23,263.63,43.72Z"/><path d="M844.3,117.19a4.07,4.07,0,0,1-4.1-4.07V85.92a4,4,0,0,1,4.1-4h37.62A4.18,4.18,0,0,0,886,77.71V63.07A4.07,4.07,0,0,0,881.92,59H844.3a4.13,4.13,0,0,1-4.1-4.17v-24a4.09,4.09,0,0,1,4.1-4.07h41.22a4.16,4.16,0,0,0,4.05-4.14V8a4.08,4.08,0,0,0-4.05-4H819.31a4.1,4.1,0,0,0-4.15,4V136a4.16,4.16,0,0,0,4.15,4.11h67.2a4.15,4.15,0,0,0,4.13-4.11V121.35a4.19,4.19,0,0,0-4.13-4.16Z"/><path d="M403.9,136,378.12,80.83h0c-1.29-2.86-1.29-4.76,1-6.37,8.09-6,13.69-16.28,13.69-32.11,0-29.42-10.69-38.4-36.77-38.4H314.11A4.1,4.1,0,0,0,310,8V136a4.16,4.16,0,0,0,4.13,4.11h16.73a4.09,4.09,0,0,0,4.07-4.11V85.62a4.21,4.21,0,0,1,4.21-4.16h9.46a7.15,7.15,0,0,1,5.88,3.77l21.89,47h0l1.73,3.76a7.42,7.42,0,0,0,6,4.11H401.7C403.92,140.07,405,138.19,403.9,136Zm-69-105.9a4.24,4.24,0,0,1,4.21-4.17h19.69c2.3,0,9.71.23,9.71,16.38,0,11.52-2.2,17.13-14.26,17.13H339.12a4.32,4.32,0,0,1-4.21-4.28Z"/></svg>