<svg xmlns="http://www.w3.org/2000/svg" viewBox="0 0 340 60"><defs><style>.a{fill:none;}.b{fill:#44a0ae;}</style></defs><title>logo</title><rect class="a" width="340" height="60"/><rect class="b" x="118.12" y="-5.36" width="12.96" height="67.86" transform="translate(56.69 -79.73) rotate(44.99)"/><polygon points="96.03 47.98 48.04 0 48.01 0.03 47.98 0 0 47.98 9.16 57.14 48.01 18.3 86.86 57.14 96.03 47.98"/><polygon points="178.73 56.63 178.73 32.9 174.65 32.9 174.65 49.64 164.39 32.9 159.99 32.9 159.99 56.63 164.07 56.63 164.07 40.27 174.18 56.63 178.73 56.63"/><path d="M196.72,41.68a8.54,8.54,0,0,0-6.35-2.51,9.34,9.34,0,0,0-4.55,1.11,7.6,7.6,0,0,0-3.14,3.21,9.26,9.26,0,0,0-1.11,4.36,10.49,10.49,0,0,0,1.11,5,7.34,7.34,0,0,0,3.23,3.1A10.08,10.08,0,0,0,190.4,57a8.5,8.5,0,0,0,6.3-2.55,8.85,8.85,0,0,0,2.5-6.43A8.73,8.73,0,0,0,196.72,41.68ZM193.6,52.24a4.26,4.26,0,0,1-6.44,0,6,6,0,0,1-1.3-4.14,6.07,6.07,0,0,1,1.3-4.15,4.28,4.28,0,0,1,6.44,0,6,6,0,0,1,1.29,4.12A6.07,6.07,0,0,1,193.6,52.24Z"/><path d="M207.54,43.45a3.32,3.32,0,0,1,3.85.06l1.28-3.59a5.66,5.66,0,0,0-2.78-.75,3.43,3.43,0,0,0-1.88.52A7.49,7.49,0,0,0,206.09,42l-.42.68V39.56h-3.85V56.63H206V51.45a27.93,27.93,0,0,1,.39-5.94A3.9,3.9,0,0,1,207.54,43.45Z"/><path d="M221.47,53.37a1.34,1.34,0,0,1-.5-.72,15.27,15.27,0,0,1-.09-2.55V42.8h3.17V39.56h-3.17v-6L216.68,36v3.58h-2.13V42.8h2.13v7.87a21.64,21.64,0,0,0,.15,3.23,4.13,4.13,0,0,0,.61,1.72,3.07,3.07,0,0,0,1.38,1A5.67,5.67,0,0,0,221,57a9.06,9.06,0,0,0,3.42-.61l-.35-3.14C222.71,53.74,222,53.76,221.47,53.37Z"/><path d="M271.73,50.07a15.87,15.87,0,0,0,.73-5.07,17.71,17.71,0,0,0-.78-5.65,10.41,10.41,0,0,0-2.26-3.83,7.79,7.79,0,0,0-3.55-2.17,17.23,17.23,0,0,0-4.54-.46h-8.7V56.63h9a14.69,14.69,0,0,0,4.25-.5,8.37,8.37,0,0,0,3.34-1.87A10.41,10.41,0,0,0,271.73,50.07Zm-4.37-.79A5.37,5.37,0,0,1,266,51.72,4.8,4.8,0,0,1,264,52.78a13.39,13.39,0,0,1-3,.24h-3.88V36.53h2.43a22.2,22.2,0,0,1,4.06.24A4.86,4.86,0,0,1,265.91,38a5.83,5.83,0,0,1,1.45,2.44,14.63,14.63,0,0,1,.51,4.38A15.9,15.9,0,0,1,267.36,49.28Z"/><path d="M299.13,53.37a1.24,1.24,0,0,1-.5-.72,14.31,14.31,0,0,1-.1-2.55V42.8h3.17V39.56h-3.17v-6L294.33,36v3.58H292.2V42.8h2.13v7.87a21.64,21.64,0,0,0,.15,3.23,4.08,4.08,0,0,0,.61,1.72,3.13,3.13,0,0,0,1.38,1,5.75,5.75,0,0,0,2.17.4,9.06,9.06,0,0,0,3.42-.61l-.35-3.14C300.38,53.74,299.67,53.76,299.13,53.37Z"/><path d="M315.42,54.54l.12.33c0,.09.09.28.17.56q.23.75.39,1.2h4.07a9.36,9.36,0,0,1-.7-2.07,18.13,18.13,0,0,1-.23-3.46l.05-5.41a9.49,9.49,0,0,0-.59-4,4.41,4.41,0,0,0-2-1.77,10.94,10.94,0,0,0-4.52-.71,8.74,8.74,0,0,0-5,1.18,6.21,6.21,0,0,0-2.28,3.39l3.77.68a3.41,3.41,0,0,1,1.14-1.63,3.47,3.47,0,0,1,2.06-.53,4.09,4.09,0,0,1,2.64.62,2.61,2.61,0,0,1,.74,2.08v.62l-.14.06a25.14,25.14,0,0,1-4.55,1.15,15.33,15.33,0,0,0-3.63,1.06,4.34,4.34,0,0,0-1.89,1.7,4.77,4.77,0,0,0-.68,2.53,4.67,4.67,0,0,0,1.49,3.54A5.74,5.74,0,0,0,309.9,57a7.18,7.18,0,0,0,2.8-.56,8.13,8.13,0,0,0,2.47-1.69Zm-1.6-1.19a4.31,4.31,0,0,1-2.54.87,2.8,2.8,0,0,1-2-.77,2.54,2.54,0,0,1-.79-1.85,2.16,2.16,0,0,1,1-1.82,8.3,8.3,0,0,1,2.61-.85c1.27-.27,2.21-.51,2.8-.7l.3-.1v1.24A9.17,9.17,0,0,1,315,51.7,3.17,3.17,0,0,1,313.82,53.35Z"/><rect x="324" y="39.56" width="4.18" height="17.07"/><path d="M233.7,42.85a4.09,4.09,0,0,1,2.18-.59,3.2,3.2,0,0,1,1.8.47,2.52,2.52,0,0,1,1,1.3A13.38,13.38,0,0,1,239,47.6v9h4.18V46.58a18.63,18.63,0,0,0-.23-3.43,5.36,5.36,0,0,0-.86-2,4.53,4.53,0,0,0-1.85-1.44,6.73,6.73,0,0,0-8,2l-.4.47V32.89L227.66,35V56.63h4.18V48.08a10.38,10.38,0,0,1,.43-3.42A3.49,3.49,0,0,1,233.7,42.85Z"/><polygon points="332.66 35.22 332.66 56.63 336.84 56.63 336.84 33.11 332.66 35.22"/><path d="M326.08,32.32a2.21,2.21,0,1,0,2.21,2.2A2.21,2.21,0,0,0,326.08,32.32Z"/><path d="M282.53,39.17a7.28,7.28,0,0,0-5.59,2.39,9.48,9.48,0,0,0-2.22,6.67,9.88,9.88,0,0,0,1.69,5.91C277.82,56.06,280,57,283,57a8,8,0,0,0,4.68-1.29,7.21,7.21,0,0,0,2.6-3.4h-4.45A2.87,2.87,0,0,1,283,54a3.74,3.74,0,0,1-2.84-1.22A5,5,0,0,1,279,49.44v-.23h11.63c0-3.37-.68-5.9-2.11-7.54A7.61,7.61,0,0,0,282.53,39.17Zm-3.43,7.66V46.6a4.46,4.46,0,0,1,1-3.16,3.43,3.43,0,0,1,2.68-1.18,3.38,3.38,0,0,1,2.57,1.12,4.72,4.72,0,0,1,1.11,3.21v.24Z"/></svg>