<svg width="133" height="130" viewBox="0 0 133 130" fill="none" xmlns="http://www.w3.org/2000/svg">
<path d="M94.106 10.0364C93.202 9.61907 92.5121 9.06098 92.0362 8.36214C91.5731 7.65858 91.3258 6.86829 91.2942 5.99127C91.2666 5.10547 91.4716 4.18864 91.9092 3.24078C92.3428 2.3017 92.9036 1.55978 93.5916 1.01502C94.2837 0.461478 95.0477 0.132772 95.8835 0.0288998C96.7281 -0.0709205 97.6024 0.0878449 98.5064 0.505196C99.5596 0.991431 100.298 1.64101 100.721 2.45394C101.157 3.26215 101.259 4.16079 101.026 5.14985L99.8012 4.5846C99.9242 3.9493 99.8452 3.35921 99.5644 2.81433C99.2965 2.26473 98.7939 1.81975 98.0567 1.47938C97.3984 1.17549 96.7527 1.06367 96.1194 1.14394C95.4901 1.21543 94.9078 1.4736 94.3723 1.91846C93.8497 2.35859 93.406 2.9736 93.0414 3.76348C92.6767 4.55336 92.4943 5.29432 92.4942 5.98635C92.507 6.67365 92.6882 7.28434 93.0378 7.81843C93.3916 8.34374 93.8975 8.75834 94.5558 9.06224C95.293 9.4026 95.9536 9.5053 96.5376 9.37034C97.1345 9.23066 97.6328 8.91239 98.0325 8.41553L99.2568 8.98077C98.6633 9.7821 97.9175 10.2789 97.0196 10.4712C96.1304 10.6676 95.1592 10.5227 94.106 10.0364Z" fill="black"/>
<path d="M101.964 14.4821C101.406 14.0996 100.991 13.6277 100.72 13.0665C100.448 12.5053 100.339 11.9033 100.393 11.2605C100.46 10.6151 100.71 9.97753 101.142 9.34763C101.573 8.71773 102.079 8.26172 102.659 7.97961C103.245 7.68953 103.848 7.56994 104.47 7.62084C105.099 7.67721 105.693 7.89667 106.251 8.27923C106.809 8.6618 107.224 9.13368 107.496 9.69488C107.767 10.2561 107.87 10.8593 107.802 11.5047C107.748 12.1475 107.506 12.7838 107.074 13.4137C106.642 14.0436 106.133 14.5036 105.548 14.7937C104.968 15.0758 104.363 15.1887 103.734 15.1323C103.112 15.0814 102.523 14.8647 101.964 14.4821ZM102.555 13.621C102.897 13.856 103.274 13.9909 103.684 14.0257C104.093 14.0604 104.505 13.9732 104.918 13.764C105.331 13.5549 105.706 13.2031 106.045 12.7087C106.384 12.2144 106.577 11.7369 106.623 11.2763C106.677 10.8212 106.614 10.4088 106.434 10.0392C106.253 9.6695 105.996 9.36991 105.661 9.14037C105.318 8.90536 104.942 8.77048 104.532 8.73571C104.122 8.70094 103.711 8.78815 103.298 8.99733C102.885 9.20652 102.509 9.55829 102.17 10.0526C101.831 10.547 101.639 11.0245 101.593 11.485C101.547 11.9456 101.61 12.358 101.782 12.7222C101.962 13.0919 102.22 13.3915 102.555 13.621Z" fill="black"/>
<path d="M106.161 17.2716L111.071 12.0163L111.876 12.7686L111.048 13.7611C111.528 13.5875 112.016 13.5538 112.512 13.6601C113.008 13.7664 113.457 14.0076 113.86 14.3837C114.481 14.9645 114.798 15.6171 114.808 16.3417C114.833 17.0659 114.479 17.82 113.747 18.604L110.876 21.6766L109.986 20.8451L112.767 17.8678C113.79 16.773 113.85 15.8032 112.946 14.9585C112.494 14.5361 111.961 14.3491 111.347 14.3973C110.746 14.445 110.163 14.7726 109.595 15.3801L107.051 18.1031L106.161 17.2716Z" fill="black"/>
<path d="M114.025 25.3674C113.605 24.8619 113.397 24.3622 113.402 23.8683C113.406 23.3745 113.728 22.8619 114.367 22.3306L117.412 19.8005L116.615 18.8415L117.407 18.1835L118.204 19.1425L119.633 18.1623L120.309 18.9764L118.982 20.0793L120.335 21.7074L119.543 22.3654L118.19 20.7373L115.146 23.2673C114.797 23.5577 114.617 23.826 114.608 24.0723C114.607 24.3124 114.754 24.6109 115.051 24.9678L115.533 25.5477L114.73 26.2149L114.025 25.3674Z" fill="black"/>
<path d="M116.818 29.4743C116.49 28.9729 116.302 28.5008 116.255 28.0581C116.207 27.6153 116.272 27.2204 116.449 26.8733C116.626 26.5262 116.881 26.244 117.212 26.0269C117.827 25.6244 118.453 25.5491 119.092 25.801C119.731 26.0529 120.315 26.5831 120.845 27.3918L121.909 29.0172L121.982 28.9696C122.508 28.6253 122.814 28.2283 122.901 27.7786C122.996 27.3236 122.892 26.8656 122.59 26.4047C122.331 26.0084 122.004 25.7309 121.612 25.5722C121.232 25.4163 120.829 25.4264 120.401 25.6025L119.718 24.5594C120.181 24.3138 120.644 24.2184 121.108 24.2731C121.576 24.3359 122.012 24.5071 122.414 24.7865C122.825 25.0607 123.171 25.412 123.451 25.8406C124.002 26.6817 124.189 27.4607 124.011 28.1778C123.847 28.8977 123.393 29.5013 122.649 29.9885L118.95 32.4115L118.354 31.5017L119.394 30.7341C118.943 30.7867 118.488 30.7266 118.028 30.554C117.581 30.3841 117.178 30.0242 116.818 29.4743ZM117.783 29.068C118.037 29.4561 118.355 29.7215 118.737 29.864C119.125 30.0146 119.528 30.0568 119.947 29.9905C120.366 29.9243 120.753 29.7746 121.109 29.5416L121.121 29.5336L120.112 27.9931C119.72 27.3947 119.337 27.039 118.962 26.926C118.601 26.8158 118.267 26.8613 117.96 27.0626C117.644 27.2691 117.464 27.5492 117.418 27.9027C117.386 28.259 117.507 28.6474 117.783 29.068Z" fill="black"/>
<path d="M120.888 36.6879C120.597 36.0664 120.475 35.4405 120.521 34.8103C120.581 34.1848 120.797 33.6087 121.169 33.082C121.554 32.56 122.089 32.1392 122.771 31.8194C123.454 31.4997 124.115 31.361 124.754 31.4034C125.406 31.4504 125.987 31.6534 126.496 32.0125C127.019 32.3762 127.426 32.8689 127.717 33.4904C128.077 34.2608 128.179 35.0029 128.023 35.7168C127.87 36.4394 127.489 37.0285 126.881 37.4842L126.352 36.3549C126.714 36.0788 126.924 35.7188 126.983 35.2749C127.051 34.8269 126.978 34.3753 126.765 33.92C126.593 33.5523 126.339 33.2496 126.004 33.0118C125.668 32.7739 125.269 32.6404 124.807 32.6113C124.345 32.5821 123.843 32.6946 123.3 32.9487C122.757 33.2029 122.349 33.5167 122.076 33.8903C121.803 34.2638 121.645 34.6576 121.604 35.0717C121.572 35.4817 121.642 35.8705 121.814 36.2382C122.028 36.6934 122.324 37.0405 122.702 37.2795C123.09 37.5143 123.51 37.5792 123.962 37.474L124.491 38.6034C123.773 38.7795 123.083 38.6969 122.422 38.3555C121.76 38.0142 121.249 37.4583 120.888 36.6879Z" fill="black"/>
<path d="M123.924 44.0543C123.721 43.4292 123.713 42.888 123.899 42.4309C124.086 41.9738 124.575 41.6167 125.366 41.3597L129.13 40.1361L128.745 38.9502L129.724 38.632L130.109 39.8179L131.8 39.4362L132.127 40.4429L130.486 40.9762L131.14 42.9896L130.161 43.3078L129.507 41.2945L125.742 42.5181C125.31 42.6585 125.044 42.8415 124.945 43.0669C124.854 43.2894 124.881 43.6213 125.024 44.0626L125.257 44.7796L124.265 45.1024L123.924 44.0543Z" fill="black"/>
</svg>
