<svg xmlns="http://www.w3.org/2000/svg" width="83.139" height="92.516"><g data-name="グループ 54" transform="translate(-585.509 -335.434)"><g data-name="グループ 54" fill="#fff"><path data-name="パス 30" d="M592.254 415.276h-2.3a.2.2 0 00-.188.134l-4.25 12.07a.2.2 0 00.025.181.2.2 0 00.163.085h2.26a.2.2 0 00.189-.138l.977-2.956h3.943l.974 2.956a.2.2 0 00.19.138h2.26a.2.2 0 00.189-.266l-4.248-12.07a.2.2 0 00-.184-.134zm-1.145 3.089c.089.371.2.808.309 1.135l.983 2.967h-2.608l.984-2.963c.115-.328.236-.767.332-1.139z"/><path data-name="パス 31" d="M607.516 421.426l3.575-5.845a.2.2 0 00-.171-.3h-2.52a.2.2 0 00-.174.1l-1.684 2.961a22.97 22.97 0 00-.577 1.145 26.71 26.71 0 00-.6-1.147l-1.65-2.958a.2.2 0 00-.175-.1h-2.5a.2.2 0 00-.171.3l3.54 5.845-3.692 6.017a.2.2 0 00.171.3h2.447a.2.2 0 00.174-.1l1.852-3.246c.238-.408.455-.829.594-1.111.143.281.362.7.59 1.11l1.869 3.247a.2.2 0 00.173.1h2.465a.2.2 0 00.17-.3z"/><path data-name="パス 32" d="M620.817 420.389c-1.125-.466-2.1-.868-2.1-1.649 0-.72.681-1.244 1.618-1.244a4.224 4.224 0 012.533 1 .2.2 0 00.169.049.2.2 0 00.143-.1l.953-1.785a.2.2 0 00-.031-.231 5.3 5.3 0 00-3.751-1.355c-2.42 0-4.245 1.592-4.245 3.7 0 2.233 1.962 3.079 3.539 3.758 1.157.5 2.156.929 2.156 1.732 0 .931-.836 1.261-1.552 1.261a4.665 4.665 0 01-2.868-1.217.229.229 0 00-.157-.056.2.2 0 00-.145.082l-1.189 1.648a.2.2 0 00.012.251 6 6 0 004.314 1.716c2.459 0 4.177-1.536 4.177-3.736.007-2.344-1.982-3.165-3.576-3.824z"/><path data-name="パス 33" d="M637.967 425.459h-5.1v-2.847h3.862a.2.2 0 00.2-.2v-1.887a.2.2 0 00-.2-.2h-3.862v-2.761h4.831a.2.2 0 00.2-.2v-1.886a.2.2 0 00-.2-.2h-7.223a.2.2 0 00-.2.2v12.069a.2.2 0 00.2.2h7.5a.2.2 0 00.2-.2v-1.887a.2.2 0 00-.208-.201z"/><path data-name="パス 34" d="M651.822 425.459h-5.1v-2.847h3.862a.2.2 0 00.2-.2v-1.887a.2.2 0 00-.2-.2h-3.862v-2.761h4.831a.2.2 0 00.2-.2v-1.886a.2.2 0 00-.2-.2h-7.223a.2.2 0 00-.2.2v12.069a.2.2 0 00.2.2h7.5a.2.2 0 00.2-.2v-1.887a.2.2 0 00-.208-.201z"/><path data-name="パス 35" d="M662.295 415.276h-4.113a.2.2 0 00-.2.2v12.069a.2.2 0 00.2.2h4.113c3.918 0 6.353-2.395 6.353-6.252 0-3.834-2.435-6.217-6.353-6.217zm-1.722 2.288h1.6c2.387 0 3.812 1.469 3.812 3.93 0 2.52-1.389 3.965-3.812 3.965h-1.6z"/></g><circle data-name="楕円形 8" cx="8.107" cy="8.107" r="8.107" transform="translate(597.692 374.756)" fill="#4bcba7"/><path data-name="パス 36" d="M631.879 335.434H620.9a.642.642 0 00-.587.9l23.557 53.33a1.285 1.285 0 001.174.764h10.983a.642.642 0 00.587-.9L633.053 336.2a1.284 1.284 0 00-1.174-.766z" fill="#fff"/></g></svg>