<svg xmlns="http://www.w3.org/2000/svg" width="285.261" height="33.923" viewBox="0 0 285.261 33.923">
  <g id="nextone-logo" transform="translate(-3.3 -2.9)">
    <path id="パス_1" data-name="パス 1" d="M240.48,122.986h-2.928v4.547h-1.024v-4.547H233.6V122.2h6.88v.786Z" transform="translate(-175.476 -90.9)" fill="#2568a9"/>
    <path id="パス_2" data-name="パス 2" d="M271.38,124.333a2.425,2.425,0,0,1-1.238,2.119,4.767,4.767,0,0,1-2.69.714,4.9,4.9,0,0,1-2.714-.714,2.425,2.425,0,0,1-1.238-2.119,2.507,2.507,0,0,1,1.262-2.119,5.423,5.423,0,0,1,5.38,0A2.5,2.5,0,0,1,271.38,124.333Zm-1.071,0a1.8,1.8,0,0,0-.9-1.524,3.549,3.549,0,0,0-1.952-.5,3.442,3.442,0,0,0-2.071.571,1.721,1.721,0,0,0-.024,2.9,3.468,3.468,0,0,0,2.095.548,3.519,3.519,0,0,0,2.095-.571A1.683,1.683,0,0,0,270.308,124.333Z" transform="translate(-198.258 -90.367)" fill="#2568a9"/>
    <path id="パス_3" data-name="パス 3" d="M333.527,127.532H332.5v-4.356h-.024l-3.19,3.476-3.142-3.476h-.024v4.356H325.1V122.2h1.262l2.928,3.214,2.952-3.214H333.5v5.332Z" transform="translate(-245.194 -90.9)" fill="#2568a9"/>
    <path id="パス_4" data-name="パス 4" d="M372.684,127.532h-1.119l-.714-1.19h-4.118l-.714,1.19H364.9l3.238-5.332h1.285Zm-2.309-1.976-1.571-2.595-1.571,2.595Z" transform="translate(-275.519 -90.9)" fill="#2568a9"/>
    <path id="パス_5" data-name="パス 5" d="M409.218,127.532h-1.309l-2.928-2.809-1.857,1.19v1.619H402.1V122.2h1.024v2.761l4.285-2.761h1.476l-3.142,2.023Z" transform="translate(-303.864 -90.9)" fill="#2568a9"/>
    <path id="パス_6" data-name="パス 6" d="M442.727,127.532H436.3V122.2h6.189v.786h-5.166v1.381h3.595v.786h-3.595v1.571h5.4Z" transform="translate(-329.922 -90.9)" fill="#2568a9"/>
    <path id="パス_7" data-name="パス 7" d="M495.037,127.532h-1.119l-.714-1.19h-4.118l-.714,1.19H487.3l3.238-5.332h1.285Zm-2.309-1.976-1.571-2.595-1.571,2.595Z" transform="translate(-368.781 -90.9)" fill="#2568a9"/>
    <path id="パス_8" data-name="パス 8" d="M550.856,122.2a2.3,2.3,0,0,1,1.5.452,1.469,1.469,0,0,1,.547,1.214,1.428,1.428,0,0,1-.571,1.214,2.731,2.731,0,0,1-1.666.429h-3.642v2.023H546V122.2Zm-.19,2.5c.786,0,1.167-.286,1.167-.833,0-.6-.4-.881-1.238-.881h-3.571V124.7Z" transform="translate(-413.508 -90.9)" fill="#2568a9"/>
    <path id="パス_9" data-name="パス 9" d="M586.3,127.532h-6.4V122.2h6.166v.786H580.9v1.381h3.595v.786H580.9v1.571h5.4Z" transform="translate(-439.337 -90.9)" fill="#2568a9"/>
    <path id="パス_10" data-name="パス 10" d="M620.075,127.532h-1.19l-1.666-2.023h-3.095v2.023H613.1V122.2h4.833a2.325,2.325,0,0,1,1.524.452A1.485,1.485,0,0,1,620,123.89a1.4,1.4,0,0,1-.452,1.1,1.93,1.93,0,0,1-1.143.476Zm-2.262-2.833c.786,0,1.166-.286,1.166-.833,0-.6-.428-.881-1.262-.881h-3.571V124.7Z" transform="translate(-464.634 -90.9)" fill="#2568a9"/>
    <path id="パス_11" data-name="パス 11" d="M651.923,123a6.74,6.74,0,0,0-2.785-.6,4.388,4.388,0,0,0-1.428.19c-.333.119-.5.309-.5.524,0,.238.167.4.524.524a5.7,5.7,0,0,0,1.238.167c.857.048,1.4.1,1.666.119a4.072,4.072,0,0,1,1.69.5,1.158,1.158,0,0,1,.548,1.024,1.428,1.428,0,0,1-.857,1.309,5.341,5.341,0,0,1-2.476.452,6.33,6.33,0,0,1-3.642-.9l.547-.643a6.614,6.614,0,0,0,3.095.762,4.432,4.432,0,0,0,1.666-.262c.381-.167.571-.4.571-.69,0-.333-.238-.571-.738-.667-.262-.048-.952-.119-2.095-.19a6.218,6.218,0,0,1-2.119-.357,1.07,1.07,0,0,1-.714-1.047,1.308,1.308,0,0,1,.809-1.19,5.008,5.008,0,0,1,2.285-.428,6.424,6.424,0,0,1,3.309.786Z" transform="translate(-489.626 -90.443)" fill="#2568a9"/>
    <path id="パス_12" data-name="パス 12" d="M687.78,124.333a2.425,2.425,0,0,1-1.238,2.119,4.767,4.767,0,0,1-2.69.714,4.9,4.9,0,0,1-2.714-.714,2.425,2.425,0,0,1-1.238-2.119,2.507,2.507,0,0,1,1.262-2.119,5.423,5.423,0,0,1,5.38,0A2.452,2.452,0,0,1,687.78,124.333Zm-1.047,0a1.8,1.8,0,0,0-.9-1.524,3.549,3.549,0,0,0-1.952-.5,3.442,3.442,0,0,0-2.071.571,1.721,1.721,0,0,0-.024,2.9,3.468,3.468,0,0,0,2.095.548,3.519,3.519,0,0,0,2.095-.571A1.683,1.683,0,0,0,686.732,124.333Z" transform="translate(-515.532 -90.367)" fill="#2568a9"/>
    <path id="パス_13" data-name="パス 13" d="M727.251,127.532H725.99l-4.666-4.38v4.38H720.3V122.2h1.262l4.666,4.38V122.2h1.024v5.332Z" transform="translate(-546.315 -90.9)" fill="#2568a9"/>
    <path id="パス_14" data-name="パス 14" d="M796.189,122.986h-5.166v1.381h3.595v.786h-3.595v2.381H790V122.2h6.166l.024.786Z" transform="translate(-599.422 -90.9)" fill="#2568a9"/>
    <path id="パス_15" data-name="パス 15" d="M825.08,124.333a2.425,2.425,0,0,1-1.238,2.119,4.766,4.766,0,0,1-2.69.714,4.9,4.9,0,0,1-2.714-.714,2.425,2.425,0,0,1-1.238-2.119,2.507,2.507,0,0,1,1.262-2.119,5.423,5.423,0,0,1,5.38,0A2.452,2.452,0,0,1,825.08,124.333Zm-1.047,0a1.8,1.8,0,0,0-.9-1.524,3.549,3.549,0,0,0-1.952-.5,3.442,3.442,0,0,0-2.071.571,1.721,1.721,0,0,0-.024,2.9,3.468,3.468,0,0,0,2.095.548,3.519,3.519,0,0,0,2.095-.571A1.683,1.683,0,0,0,824.032,124.333Z" transform="translate(-620.147 -90.367)" fill="#2568a9"/>
    <path id="パス_16" data-name="パス 16" d="M860.323,123a6.74,6.74,0,0,0-2.785-.6,4.388,4.388,0,0,0-1.428.19c-.333.119-.5.309-.5.524,0,.238.167.4.524.524a5.7,5.7,0,0,0,1.238.167c.857.048,1.4.1,1.666.119a4.073,4.073,0,0,1,1.69.5,1.158,1.158,0,0,1,.547,1.024,1.428,1.428,0,0,1-.857,1.309,5.341,5.341,0,0,1-2.476.452,6.33,6.33,0,0,1-3.642-.9l.547-.643a6.614,6.614,0,0,0,3.095.762,4.432,4.432,0,0,0,1.666-.262c.381-.167.571-.4.571-.69,0-.333-.238-.571-.738-.667-.262-.048-.952-.119-2.095-.19a6.219,6.219,0,0,1-2.119-.357,1.07,1.07,0,0,1-.714-1.047,1.308,1.308,0,0,1,.809-1.19,5.008,5.008,0,0,1,2.285-.428,6.424,6.424,0,0,1,3.309.786Z" transform="translate(-648.415 -90.443)" fill="#2568a9"/>
    <path id="パス_17" data-name="パス 17" d="M891.38,122.986h-2.928v4.547h-1.024v-4.547H884.5V122.2h6.88v.786Z" transform="translate(-671.426 -90.9)" fill="#2568a9"/>
    <path id="パス_18" data-name="パス 18" d="M924.4,127.532H918V122.2h6.166v.786H919v1.381h3.595v.786H919v1.571h5.4v.809Z" transform="translate(-696.951 -90.9)" fill="#2568a9"/>
    <path id="パス_19" data-name="パス 19" d="M958.251,127.532h-1.19l-1.666-2.023H952.3v2.023h-1V122.2h4.833a2.325,2.325,0,0,1,1.524.452,1.554,1.554,0,0,1,.548,1.238,1.4,1.4,0,0,1-.452,1.1,1.93,1.93,0,0,1-1.143.476Zm-2.285-2.833c.786,0,1.166-.286,1.166-.833,0-.6-.428-.881-1.262-.881H952.3V124.7Z" transform="translate(-722.324 -90.9)" fill="#2568a9"/>
    <path id="パス_20" data-name="パス 20" d="M1015.351,127.532h-1.024v-2.381h-4.9v2.381H1008.4V122.2h1.024v2.166h4.9V122.2h1.024Z" transform="translate(-765.831 -90.9)" fill="#2568a9"/>
    <path id="パス_21" data-name="パス 21" d="M1052.927,125.818a1.564,1.564,0,0,1-.928,1.357,5.151,5.151,0,0,1-2.523.548,5.25,5.25,0,0,1-2.547-.548,1.563,1.563,0,0,1-.928-1.357V122.2h1.024v3.4a1.028,1.028,0,0,0,.619.952,5.207,5.207,0,0,0,3.666,0,1.052,1.052,0,0,0,.619-.952v-3.4h1.024l-.024,3.618Z" transform="translate(-794.48 -90.9)" fill="#2568a9"/>
    <path id="パス_22" data-name="パス 22" d="M1091.851,127.532h-1.024v-4.356h-.024l-3.19,3.476-3.166-3.476h-.024v4.356H1083.4V122.2h1.262l2.928,3.214,2.952-3.214h1.262v5.332Z" transform="translate(-822.977 -90.9)" fill="#2568a9"/>
    <path id="パス_23" data-name="パス 23" d="M1131.084,127.532h-1.119l-.714-1.19h-4.118l-.714,1.19H1123.3l3.238-5.332h1.286Zm-2.309-1.976-1.571-2.595-1.571,2.595Z" transform="translate(-853.378 -90.9)" fill="#2568a9"/>
    <path id="パス_24" data-name="パス 24" d="M1167.551,127.532h-1.262l-4.666-4.38v4.38H1160.6V122.2h1.262l4.666,4.38V122.2h1.024Z" transform="translate(-881.799 -90.9)" fill="#2568a9"/>
    <path id="パス_25" data-name="パス 25" d="M258.462,25.763a2.759,2.759,0,0,1-1.547-.476l-20.639-14.95v13a2.245,2.245,0,1,1-4.475,0V5.528a2.318,2.318,0,0,1,1.238-2.166,2.418,2.418,0,0,1,2.523.214l20.5,14.95v-13a2.476,2.476,0,0,1,4.952,0V23.335a2.447,2.447,0,0,1-1.381,2.166A2.6,2.6,0,0,1,258.462,25.763Z" transform="translate(-174.104 -0.152)" fill="#2568a9"/>
    <path id="パス_26" data-name="パス 26" d="M528.172,25.82a2.684,2.684,0,0,1-1.619-.524l-24-17.807a2.328,2.328,0,0,1-.428-3.4,2.745,2.745,0,0,1,3.666-.381l24,17.807a2.328,2.328,0,0,1,.429,3.4A2.727,2.727,0,0,1,528.172,25.82Z" transform="translate(-379.658 -0.209)" fill="#2568a9"/>
    <path id="パス_27" data-name="パス 27" d="M504.12,25.744a2.668,2.668,0,0,1-2.047-.928,2.292,2.292,0,0,1,.429-3.4L526.5,3.6a2.747,2.747,0,0,1,3.666.381,2.292,2.292,0,0,1-.429,3.4l-24,17.83A2.684,2.684,0,0,1,504.12,25.744Z" transform="translate(-379.602 -0.133)" fill="#2568a9"/>
    <path id="パス_28" data-name="パス 28" d="M664.1,8.1H639.485A2.372,2.372,0,0,1,637.2,5.652,2.387,2.387,0,0,1,639.485,3.2H664.1a2.372,2.372,0,0,1,2.285,2.452A2.387,2.387,0,0,1,664.1,8.1Z" transform="translate(-482.997 -0.229)" fill="#2568a9"/>
    <path id="パス_29" data-name="パス 29" d="M690.652,25.863a2.37,2.37,0,0,1-2.452-2.428V5.628a2.452,2.452,0,0,1,4.9,0V23.435A2.357,2.357,0,0,1,690.652,25.863Z" transform="translate(-521.856 -0.229)" fill="#2568a9"/>
    <path id="パス_30" data-name="パス 30" d="M970.51,25.963a2.741,2.741,0,0,1-1.523-.476l-20.33-14.95v13a2.428,2.428,0,0,1-4.856,0V5.728a2.548,2.548,0,0,1,4.023-1.952l20.306,14.95v-13a2.428,2.428,0,0,1,4.856,0V23.535a2.468,2.468,0,0,1-1.357,2.166A2.279,2.279,0,0,1,970.51,25.963Z" transform="translate(-716.609 -0.305)" fill="#2568a9"/>
    <path id="パス_31" data-name="パス 31" d="M1105.752,8.5h-24.52a2.4,2.4,0,0,1-2.333-2.452,2.4,2.4,0,0,1,2.333-2.452h24.52a2.4,2.4,0,0,1,2.333,2.452A2.4,2.4,0,0,1,1105.752,8.5Z" transform="translate(-819.548 -0.533)" fill="#2568a9"/>
    <path id="パス_32" data-name="パス 32" d="M1105.8,54.317h-24.234A2.558,2.558,0,0,1,1079,51.936V43.128a2.582,2.582,0,0,1,2.571-2.428h21.853a2.429,2.429,0,0,1,0,4.856h-19.663v3.952H1105.8a2.413,2.413,0,0,1,2.38,2.428A2.387,2.387,0,0,1,1105.8,54.317Z" transform="translate(-819.624 -28.802)" fill="#2568a9"/>
    <path id="パス_33" data-name="パス 33" d="M830.968,26.039H815.232a6.72,6.72,0,0,1-6.832-6.38V9.8a6.74,6.74,0,0,1,6.832-6.4h15.735a6.546,6.546,0,0,1,6.618,6.4v9.855A6.511,6.511,0,0,1,830.968,26.039ZM815.232,7.9c-1.381,0-2.357.762-2.357,1.881v9.855c0,1.119.952,1.857,2.357,1.857h15.735c1.381,0,2.571-.738,2.571-1.857V9.78c0-1.119-1.166-1.881-2.571-1.881H815.232Z" transform="translate(-613.442 -0.381)" fill="#2568a9"/>
    <path id="パス_34" data-name="パス 34" d="M393.576,7.78,369.033,7.9A2.389,2.389,0,0,1,366.7,5.471a2.39,2.39,0,0,1,2.309-2.452L393.553,2.9a2.389,2.389,0,0,1,2.333,2.428A2.39,2.39,0,0,1,393.576,7.78Z" transform="translate(-276.891)" fill="#2568a9"/>
    <path id="パス_35" data-name="パス 35" d="M393.829,53.883l-24.21.1a2.583,2.583,0,0,1-2.595-2.4l-.024-8.9a2.623,2.623,0,0,1,2.571-2.476l21.83-.1a2.441,2.441,0,0,1,.024,4.88l-19.663.1.024,4,22.02-.1a2.453,2.453,0,0,1,.024,4.9Z" transform="translate(-277.119 -28.344)" fill="#2568a9"/>
    <path id="パス_36" data-name="パス 36" d="M84.156,7.652V26.673h-30.3V7.652h30.3M86.608,5.2H51.4V29.125H86.608V5.2Z" transform="translate(-36.65 -1.752)" fill="#00406d"/>
    <path id="パス_37" data-name="パス 37" d="M92,15.5V34.521H61.7V15.5H92" transform="translate(-44.498 -9.601)" fill="#e4e14c"/>
    <path id="パス_38" data-name="パス 38" d="M36.033,43.828V62.849H5.752V43.828H36.033M38.485,41.4H3.3V65.325H38.485Z" transform="translate(0 -29.335)" fill="#00406d"/>
    <path id="パス_39" data-name="パス 39" d="M43.881,51.6V70.644H13.6V51.6H43.881" transform="translate(-7.848 -37.107)" fill="#2568a9"/>
  </g>
</svg>
