<svg id="wssロゴ_文字なし_ホバーステート_" data-name="wssロゴ(文字なし) (ホバーステート)" xmlns="http://www.w3.org/2000/svg" width="100.834" height="42.041" viewBox="0 0 100.834 42.041">
  <path id="パス_123" data-name="パス 123" d="M38.513,638.5l-1.386,7.08H35.574L35.151,643c-.108-.656-.2-1.386-.282-2.233h-.017c-.116.847-.216,1.56-.349,2.241l-.481,2.573H32.5l-1.3-7.08h1.536l.365,2.764c.108.822.2,1.7.291,2.482h.017c.1-.813.249-1.643.382-2.5l.457-2.747h1.394l.423,2.806c.125.813.224,1.577.307,2.432H36.4c.083-.855.183-1.652.3-2.482l.374-2.747h1.444Z" transform="translate(-31.196 -605.838)" fill="rgba(5,0,0,0.65)"/>
  <path id="パス_124" data-name="パス 124" d="M146.2,665.563a3.854,3.854,0,0,1-1.527.282c-1.453,0-2.274-.971-2.274-2.581,0-1.478.772-2.764,2.15-2.764,1.1,0,1.876.822,1.876,2.573a4.093,4.093,0,0,1-.042.681h-2.606c.033.614.523.9,1.121.9a3.319,3.319,0,0,0,1.112-.2Zm-1.087-2.922c0-.456-.133-1.038-.631-1.038s-.681.606-.706,1.038Z" transform="translate(-133.166 -626.012)" fill="rgba(5,0,0,0.65)"/>
  <path id="パス_125" data-name="パス 125" d="M226,637.764a1.358,1.358,0,0,1,1.179-.647c1.029,0,1.643,1.087,1.643,2.565,0,1.851-.888,2.8-1.859,2.8a1.218,1.218,0,0,1-1.154-.755h-.017l-.075.647H224.5c.017-.407.033-1,.033-1.577V635h1.444v2.764Zm-.025,2.556c0,.581.332.872.639.872.481,0,.755-.506.755-1.419,0-.805-.249-1.361-.755-1.361-.324,0-.639.324-.639.88Z" transform="translate(-208.451 -602.629)" fill="rgba(5,0,0,0.65)"/>
  <path id="パス_126" data-name="パス 126" d="M313.57,639.127a2.315,2.315,0,0,0-1.121-.291c-.556,0-.83.3-.83.647,0,.39.266.589,1.038.979a2.218,2.218,0,0,1,1.428,2.083,2.161,2.161,0,0,1-2.415,2.208,3.379,3.379,0,0,1-1.569-.365l.249-1.353a3.016,3.016,0,0,0,1.378.365c.606,0,.9-.291.9-.714s-.29-.672-.946-1a2.34,2.34,0,0,1-1.519-2.05,2.09,2.09,0,0,1,2.291-2.141,2.88,2.88,0,0,1,1.378.315Z" transform="translate(-286.946 -604.921)" fill="rgba(5,0,0,0.65)"/>
  <path id="パス_127" data-name="パス 127" d="M388.173,645.348l1.428-.448v1.394h.963v1.162H389.6V649.4c0,.606.174.822.515.822a.993.993,0,0,0,.374-.05l.008,1.245a2.822,2.822,0,0,1-.888.116c-1.419,0-1.444-1.353-1.444-1.942v-2.141H387.6v-1.162h.564v-.938Z" transform="translate(-358.014 -611.707)" fill="rgba(5,0,0,0.65)"/>
  <path id="パス_128" data-name="パス 128" d="M460.442,665.011c0,.631.025,1.2.042,1.66h-1.245l-.066-.639h-.025a1.481,1.481,0,0,1-1.287.739c-.938,0-1.461-.706-1.461-2.191v-3.071h1.444v2.839c0,.7.174,1.1.573,1.1.3,0,.581-.257.581-.78V661.5h1.444Z" transform="translate(-421.103 -626.929)" fill="rgba(5,0,0,0.65)"/>
  <path id="パス_129" data-name="パス 129" d="M543.483,640.61c0,.564.017,1.162.033,1.577h-1.262l-.066-.672h-.025a1.369,1.369,0,0,1-1.212.772c-1.062,0-1.751-1.137-1.751-2.656,0-1.751.855-2.706,1.818-2.706a1.08,1.08,0,0,1,1,.531h.025V634.8h1.444v5.81Zm-1.444-1.469c0-.714-.374-.921-.623-.921-.523,0-.764.639-.764,1.419,0,.888.315,1.353.755,1.353.274,0,.631-.191.631-.9Z" transform="translate(-497.03 -602.445)" fill="rgba(5,0,0,0.65)"/>
  <path id="パス_130" data-name="パス 130" d="M626.407,661.7l-1.013,3.669a8.01,8.01,0,0,1-1.361,3.021,2.456,2.456,0,0,1-1.287.764l-.357-1.378a1.7,1.7,0,0,0,1.17-1.112.661.661,0,0,0-.058-.232L622,661.7h1.585l.54,2.532c.066.291.133.623.174.9h.025c.05-.274.1-.606.149-.888l.44-2.54Z" transform="translate(-572.958 -627.113)" fill="rgba(5,0,0,0.65)"/>
  <path id="パス_131" data-name="パス 131" d="M708.17,639.127a2.314,2.314,0,0,0-1.121-.291c-.556,0-.83.3-.83.647,0,.39.266.589,1.037.979a2.218,2.218,0,0,1,1.428,2.083,2.161,2.161,0,0,1-2.415,2.208,3.379,3.379,0,0,1-1.569-.365l.249-1.353a3.016,3.016,0,0,0,1.378.365c.606,0,.9-.291.9-.714s-.291-.672-.946-1a2.34,2.34,0,0,1-1.519-2.05,2.09,2.09,0,0,1,2.291-2.141,2.88,2.88,0,0,1,1.378.315Z" transform="translate(-648.793 -604.921)" fill="rgba(5,0,0,0.65)"/>
  <path id="パス_132" data-name="パス 132" d="M786.3,664.442a7.436,7.436,0,0,0,.075,1.22h-1.295l-.083-.5h-.025a1.375,1.375,0,0,1-1.187.6,1.452,1.452,0,0,1-1.386-1.585c0-1.361,1.1-1.951,2.457-1.959,0-.39-.158-.681-.739-.681a2.072,2.072,0,0,0-1.137.349l-.266-1.046a3.321,3.321,0,0,1,1.693-.44c1.527,0,1.9,1.079,1.9,2.224v1.818Zm-1.4-1.212c-.6,0-1.112.191-1.112.789,0,.423.232.606.481.606a.655.655,0,0,0,.622-.722v-.672Z" transform="translate(-720.044 -625.921)" fill="rgba(5,0,0,0.65)"/>
  <path id="パス_133" data-name="パス 133" d="M866.936,661.155a1.437,1.437,0,0,1,1.278-.755c1.021,0,1.718,1.1,1.718,2.64,0,1.884-.946,2.722-1.851,2.722a1.135,1.135,0,0,1-.988-.523h-.025v2.473h-1.436v-5.5c0-.639-.017-1.212-.033-1.7h1.245l.075.647Zm.141,2.44c0,.523.266.9.631.9.506,0,.764-.6.764-1.4,0-.863-.266-1.395-.747-1.395-.34,0-.647.34-.647.888Z" transform="translate(-796.338 -625.921)" fill="rgba(5,0,0,0.65)"/>
  <path id="パス_134" data-name="パス 134" d="M952.745,661.155a1.437,1.437,0,0,1,1.278-.755c1.021,0,1.718,1.1,1.718,2.64,0,1.884-.946,2.722-1.851,2.722a1.135,1.135,0,0,1-.988-.523h-.025v2.473h-1.444v-5.5c0-.639-.017-1.212-.033-1.7h1.245l.075.647Zm.133,2.44c0,.523.266.9.631.9.506,0,.764-.6.764-1.4,0-.863-.266-1.395-.747-1.395-.34,0-.647.34-.647.888Z" transform="translate(-875.016 -625.921)" fill="rgba(5,0,0,0.65)"/>
  <path id="パス_135" data-name="パス 135" d="M1039.125,663.148c0,2.009-1.154,2.714-2.166,2.714-1.278,0-2.158-.988-2.158-2.648,0-1.735.938-2.714,2.208-2.714C1038.328,660.5,1039.125,661.6,1039.125,663.148Zm-2.15-1.477c-.54,0-.714.789-.714,1.5,0,.863.224,1.511.714,1.511.465,0,.689-.689.689-1.511C1037.664,662.409,1037.473,661.67,1036.975,661.67Z" transform="translate(-951.494 -626.012)" fill="rgba(5,0,0,0.65)"/>
  <path id="パス_136" data-name="パス 136" d="M1123.631,661.885a1.451,1.451,0,0,0-.357-.033.829.829,0,0,0-.838.647,1.593,1.593,0,0,0-.058.481v2.581h-1.444v-3.494c0-.681-.016-1.2-.033-1.668h1.237l.058.863h.033a1.249,1.249,0,0,1,1.1-.963,1.518,1.518,0,0,1,.307.025Z" transform="translate(-1030.448 -625.829)" fill="rgba(5,0,0,0.65)"/>
  <path id="パス_137" data-name="パス 137" d="M1187.424,663.148c0,2.009-1.154,2.714-2.166,2.714-1.278,0-2.158-.988-2.158-2.648,0-1.735.938-2.714,2.208-2.714C1186.627,660.5,1187.424,661.6,1187.424,663.148Zm-2.15-1.477c-.54,0-.714.789-.714,1.5,0,.863.224,1.511.714,1.511.465,0,.689-.689.689-1.511C1185.964,662.409,1185.764,661.67,1185.275,661.67Z" transform="translate(-1087.485 -626.012)" fill="rgba(5,0,0,0.65)"/>
  <g id="グループ_7" data-name="グループ 7" transform="translate(0 0)">
    <path id="パス_138" data-name="パス 138" d="M737.993,336.128l-11.5-11.5a.5.5,0,0,0-.789.017l-2.781,2.781a.632.632,0,0,0,.025.681l8.931,8.931.207.208-7.6,7.6a.378.378,0,0,0-.083.432c.066.183.282.216.415.216l5.6.033a1.356,1.356,0,0,0,.78-.374l6.748-6.748A1.45,1.45,0,0,0,737.993,336.128Z" transform="translate(-665.427 -317.842)" fill="rgba(5,0,0,0.65)"/>
    <path id="パス_139" data-name="パス 139" d="M551.273,256.9l11.5,11.5a.5.5,0,0,0,.789-.017l2.781-2.781a.632.632,0,0,0-.025-.681l-8.923-8.923-.208-.207,7.6-7.6a.378.378,0,0,0,.083-.432c-.066-.183-.282-.216-.415-.216l-5.6-.033a1.356,1.356,0,0,0-.78.374l-6.748,6.748A1.442,1.442,0,0,0,551.273,256.9Z" transform="translate(-507.601 -247.292)" fill="rgba(5,0,0,0.65)"/>
    <path id="パス_140" data-name="パス 140" d="M1071.993,336.22l-11.5-11.5a.5.5,0,0,0-.788.017l-2.781,2.781a.632.632,0,0,0,.025.681l8.931,8.931.208.208-7.6,7.6a.378.378,0,0,0-.083.432c.067.183.282.216.415.216l5.6.033a1.357,1.357,0,0,0,.78-.374l6.748-6.748A1.46,1.46,0,0,0,1071.993,336.22Z" transform="translate(-971.704 -317.934)" fill="rgba(5,0,0,0.65)"/>
    <path id="パス_141" data-name="パス 141" d="M885.268,256.9l11.5,11.5a.5.5,0,0,0,.788-.017l2.781-2.781a.632.632,0,0,0-.025-.681l-8.931-8.923-.208-.207,7.6-7.6a.378.378,0,0,0,.083-.432c-.066-.183-.282-.216-.415-.216l-5.6-.033a1.356,1.356,0,0,0-.78.374l-6.748,6.748A1.448,1.448,0,0,0,885.268,256.9Z" transform="translate(-813.873 -247.292)" fill="rgba(5,0,0,0.65)"/>
    <g id="グループ_6" data-name="グループ 6" transform="translate(14.783 0)">
      <g id="グループ_5" data-name="グループ 5">
        <path id="パス_142" data-name="パス 142" d="M215.022,258.007l2.739-5.926-3.138-6.79c-.058-.116-.216-.29-.349-.29h-4.64c-.224.017-.3.075-.349.216a.473.473,0,0,0,.033.432Z" transform="translate(-209.249 -245)" fill="rgba(5,0,0,0.65)"/>
        <path id="パス_143" data-name="パス 143" d="M330.509,245.216c-.058-.141-.125-.2-.349-.216h-4.648c-.133,0-.291.174-.349.29l-8.25,17.862-2.374-5.146-2.739,5.926,3.843,8.325a.684.684,0,0,0,.631.407h1.278a.684.684,0,0,0,.631-.407l12.293-26.619A.455.455,0,0,0,330.509,245.216Z" transform="translate(-303.288 -245)" fill="rgba(5,0,0,0.65)"/>
      </g>
    </g>
    <path id="パス_144" data-name="パス 144" d="M58.37,245.216c-.058-.141-.125-.2-.349-.216h-4.64c-.133,0-.291.174-.349.29l-8.25,17.862-8.25-17.862c-.058-.116-.216-.29-.349-.29H31.535c-.224.017-.3.075-.349.216a.473.473,0,0,0,.033.432l12.293,26.619a.684.684,0,0,0,.631.407h1.278a.684.684,0,0,0,.631-.407l12.293-26.619A.5.5,0,0,0,58.37,245.216Z" transform="translate(-31.149 -245)" fill="rgba(5,0,0,0.65)"/>
  </g>
</svg>
