<svg width="105" height="105" viewBox="0 0 105 105" fill="none" xmlns="http://www.w3.org/2000/svg">
<path d="M58.9639 16.3996C61.6841 16.1854 64.5372 16.0654 67.4759 16.0654C86.4105 16.0654 101.764 20.8676 101.764 26.7965C101.764 32.7211 86.4105 37.5233 67.4759 37.5233C64.6352 37.5253 61.7956 37.4138 58.9639 37.1891" stroke="black" stroke-linecap="round" stroke-linejoin="round"/>
<path d="M101.764 43.7441C101.764 49.6559 86.4365 54.4709 67.4762 54.4709C64.5246 54.4709 61.663 54.3595 58.9385 54.1453" stroke="black" stroke-linecap="round" stroke-linejoin="round"/>
<path d="M101.765 61.2559C101.765 67.1676 86.4369 71.9441 67.4766 71.9441C64.525 71.9441 61.6634 71.8241 58.9346 71.6014" stroke="black" stroke-linecap="round" stroke-linejoin="round"/>
<path d="M101.764 26.7969V78.2031C101.764 84.1148 86.3939 88.9342 67.4764 88.9342C64.5205 88.9342 61.6589 88.8185 58.9258 88.5958" stroke="black" stroke-linecap="round" stroke-linejoin="round"/>
<path d="M58.9383 101.764L3.23535 88.9339V16.1083L58.9383 3.23535V101.764Z" stroke="black" stroke-linecap="round" stroke-linejoin="round"/>
<path d="M43.5215 67.476L31.0854 32.6611L18.6494 67.476" stroke="black" stroke-linecap="round" stroke-linejoin="round"/>
<path d="M23.2031 54.6416H38.9249" stroke="black" stroke-linecap="round" stroke-linejoin="round"/>
</svg>
