<svg width="105" height="105" viewBox="0 0 105 105" fill="none" xmlns="http://www.w3.org/2000/svg">
<path d="M41.4473 76.4036L33.2223 84.6286V67.4932H7.51921C6.38306 67.4932 5.29344 67.0418 4.49006 66.2385C3.68669 65.4351 3.23535 64.3455 3.23535 63.2093V7.51921C3.23535 6.38306 3.68669 5.29344 4.49006 4.49006C5.29344 3.68669 6.38306 3.23535 7.51921 3.23535H84.6286C85.7647 3.23535 86.8543 3.68669 87.6577 4.49006C88.4611 5.29344 88.9124 6.38306 88.9124 7.51921V37.5062" stroke="black" stroke-linecap="round" stroke-linejoin="round"/>
<path d="M50.3574 80.3451C50.3574 81.4812 50.8088 82.5708 51.6121 83.3742C52.4155 84.1776 53.5051 84.6289 54.6413 84.6289H71.7767L88.9121 101.764V84.6289H97.4798C98.616 84.6289 99.7056 84.1776 100.509 83.3742C101.312 82.5708 101.764 81.4812 101.764 80.3451V50.3581C101.764 49.2219 101.312 48.1323 100.509 47.3289C99.7056 46.5256 98.616 46.0742 97.4798 46.0742H54.6413C53.5051 46.0742 52.4155 46.5256 51.6121 47.3289C50.8088 48.1323 50.3574 49.2219 50.3574 50.3581V80.3451Z" stroke="black" stroke-linecap="round" stroke-linejoin="round"/>
<path d="M20.3711 18.2285H71.7773" stroke="black" stroke-linecap="round" stroke-linejoin="round"/>
<path d="M20.3711 31.0801H71.7773" stroke="black" stroke-linecap="round" stroke-linejoin="round"/>
<path d="M63.209 58.9258H88.9121" stroke="black" stroke-linecap="round" stroke-linejoin="round"/>
<path d="M63.209 71.7773H88.9121" stroke="black" stroke-linecap="round" stroke-linejoin="round"/>
<path d="M20.3711 43.9316H39.6484" stroke="black" stroke-linecap="round" stroke-linejoin="round"/>
</svg>
