<svg width="129" height="126" viewBox="0 0 129 126" fill="none" xmlns="http://www.w3.org/2000/svg">
<path d="M88.408 0.415241C88.2966 0.559785 88.1516 0.788398 88.0295 0.99528C87.7247 1.50131 86.9586 2.82668 86.4679 3.74361C85.9771 4.66055 85.2851 6.05955 84.9878 6.615C84.5537 7.42614 84.1124 7.53021 83.6275 7.27068C82.9398 6.90263 82.1522 5.61913 82.5769 4.82563C82.9921 4.04976 84.4802 3.79133 85.7952 3.96205C86.7451 4.07343 87.7117 4.3866 88.4082 4.75937C89.7042 5.45301 90.2572 6.64499 89.691 7.70299C89.12 8.76981 88.0866 9.09009 86.7189 8.72105C86.2838 8.60159 85.8776 8.40688 85.5596 8.25936L85.6902 7.42191C86.0252 7.60121 86.3908 7.80822 86.7636 7.91699C87.6109 8.17763 88.538 8.14074 88.9768 7.32078C89.3779 6.57136 88.9114 5.81128 88.0826 5.36772C87.2891 4.94304 86.4765 4.72363 85.5666 4.62231C84.5233 4.49492 83.5282 4.72231 83.2876 5.17196C83.0752 5.56871 83.5037 6.25168 83.8475 6.43571C84.0503 6.54424 84.2404 6.46451 84.3961 6.17356C84.6698 5.66219 85.2816 4.41308 85.8054 3.43442C86.348 2.4205 87.1524 1.00226 87.3459 0.640772C87.4356 0.473254 87.5831 0.155223 87.6321 0L88.408 0.415241ZM90.6262 2.8614C91.0776 3.52264 91.7178 4.63652 91.9522 5.21568L91.2976 5.5912C91.0826 4.95442 90.4207 3.81758 90.0169 3.21582L90.6262 2.8614ZM85.0153 0.629744C85.4672 0.950986 85.7799 1.12967 86.0973 1.29955C86.9702 1.76669 88.4711 2.33182 89.4855 2.53446L89.1351 3.2316C88.109 2.96599 86.5593 2.3861 85.7658 1.96142C85.272 1.69717 84.9464 1.50024 84.6696 1.31807L85.0153 0.629744Z" fill="#F04B00"/>
<path d="M95.763 9.21092L98.4598 11.3142L96.6578 13.6246L93.9611 11.5213L94.3485 11.0245L96.4933 12.6973L97.5204 11.3805L95.3756 9.70769L95.763 9.21092ZM95.5028 9.00797L96.0548 9.43847L93.8838 12.222L93.3318 11.7915L95.5028 9.00797ZM95.9082 5.54501L98.1003 7.25469L97.7559 7.69626L95.5638 5.98658L95.9082 5.54501ZM99.5434 8.38012L101.775 10.1206L101.431 10.5621L99.199 8.82171L99.5434 8.38012ZM102.406 8.77424L102.998 9.23549L98.2193 15.3624C97.9118 15.7566 97.6696 15.8721 97.3373 15.7778C96.9954 15.6633 96.5319 15.3145 95.838 14.7733C95.9435 14.5893 96.0562 14.2333 96.0987 14.0001C96.6006 14.4297 97.1272 14.8277 97.2832 14.9366C97.433 15.0535 97.5172 15.0431 97.6341 14.8932L102.406 8.77424ZM96.8473 4.43853L99.3706 6.40651L97.1996 9.19003L94.6763 7.22205L95.0515 6.74105L97.0149 8.27238L98.4356 6.45087L96.4721 4.91955L96.8473 4.43853ZM102.714 9.01409L102.345 9.48721L100.279 7.87593L98.8461 9.7132L100.912 11.3245L100.543 11.7976L97.9093 9.74353L100.08 6.96001L102.714 9.01409ZM96.5161 4.18024L97.0996 4.63534L91.7 11.5586L91.1164 11.1035L96.5161 4.18024Z" fill="#F04B00"/>
<path d="M106.392 12.7489C106.189 12.8672 105.814 13.169 105.616 13.3371C105.151 13.748 104.479 14.3762 103.921 14.9812C102.803 16.2336 102.308 17.3368 102.794 17.8682C103.138 18.2446 104.215 17.8964 105.129 17.4135L105.03 18.3576C103.371 19.0478 102.538 18.9963 102.079 18.4945C101.438 17.7934 101.525 16.4949 103.247 14.5405C103.821 13.8938 104.708 13.0558 105.136 12.6644C105.306 12.5092 105.623 12.2191 105.752 12.0196L106.392 12.7489ZM109.702 16.7688C109.453 18.2158 108.367 20.1844 107.221 21.4355L106.438 21.0537C107.652 19.7136 108.76 17.8733 108.983 16.3827L109.702 16.7688Z" fill="#F04B00"/>
<path d="M113.088 22.3597L115.837 26.5957L115.275 26.9604L112.526 22.7244L113.088 22.3597ZM108.913 24.8546L111.831 29.3506L111.269 29.7154L108.351 25.2193L108.913 24.8546ZM111.186 22.9742L114.518 28.1077L111.154 30.2909L110.74 29.6534L113.534 27.8405L111.013 23.9568L108.22 25.7697L107.822 25.1573L111.186 22.9742ZM116.541 23.0872C115.071 23.0636 112.987 22.461 111.276 21.533C111.364 21.3566 111.481 21.0418 111.523 20.8121C113.228 21.8039 115.42 22.3717 116.933 22.3321L117.346 22.9696C116.685 24.6867 116.471 26.9113 116.747 28.64C116.492 28.5786 116.176 28.5692 115.921 28.5799C115.754 26.8165 115.979 24.5726 116.541 23.0872Z" fill="#F04B00"/>
<path d="M116.624 36.1287C117.524 37.5804 118.844 38.6656 120.418 37.9733C121.125 37.6674 121.819 36.7025 121.291 35.4819C120.782 34.3072 119.674 33.5338 118.362 33.0447L119.178 32.6912C120.692 33.3437 121.582 34.3424 121.999 35.3061C122.551 36.5817 122.149 38.0958 120.727 38.7114C118.877 39.5229 117.329 38.5909 116.078 36.757L116.624 36.1287ZM120.149 32.1402C119.986 31.8624 119.424 30.9177 119.029 30.2823L119.755 29.87C119.834 30.0759 119.909 30.2503 120.027 30.4718C120.265 30.9462 120.895 32.0247 121.219 32.3964L121.022 32.7976C120.716 32.7449 120.214 32.6679 119.89 32.623L118.513 32.8919C117.679 32.7517 116.071 32.4344 115.022 32.2018L115.448 31.4728C116.41 31.732 118.634 32.2402 119.395 32.3359L119.879 32.1701L120.149 32.1402ZM121.633 31.3891C121.844 31.2978 122.087 31.2037 122.296 31.0585L122.646 31.9423C121.994 32.072 119.246 32.9234 117.631 33.6224C116.796 33.9839 116.236 34.2261 115.435 34.6163C115.283 34.693 115.066 34.8199 114.895 34.9045L114.554 34.1152C114.686 34.0688 114.96 33.972 115.107 33.9084C115.997 33.5232 116.46 33.3338 117.473 32.9061C118.289 32.5749 121.294 31.5361 121.633 31.3891Z" fill="#F04B00"/>
<path d="M128.042 46.2604C127.873 46.2821 127.538 46.345 127.324 46.3982C126.72 46.5384 126.041 46.7077 125.541 46.8117C124.789 46.9785 123.734 47.2106 123.206 47.2393C122.747 47.2608 122.565 47.0691 122.457 46.6324C122.367 46.2734 122.287 45.5821 122.273 45.3178L122.955 45.1582C122.962 45.5171 123.015 45.9367 123.07 46.1599C123.131 46.4025 123.194 46.4899 123.427 46.473C123.81 46.4394 124.664 46.2678 125.355 46.1057C125.901 45.98 126.58 45.8107 127.114 45.6777C127.337 45.6221 127.669 45.5083 127.837 45.4357L128.042 46.2604ZM126.777 42.5051C126.546 42.5316 126.282 42.5872 125.981 42.6622C124.931 42.9137 122.255 43.5497 121.59 43.736C120.552 44.036 120.186 44.1376 120.604 45.8162C120.868 46.8739 121.274 48.0504 121.548 48.6521L120.726 48.8262C120.496 48.193 120.104 47.0334 119.857 46.0437C119.298 43.8023 119.769 43.4582 121.302 43.0348C122.112 42.8123 125.317 42.0238 125.763 41.9126C126.054 41.84 126.285 41.7723 126.564 41.6512L126.777 42.5051ZM123.734 40.1819C123.809 40.4827 123.918 40.8369 124.044 41.1765C124.393 42.2027 125.702 45.8028 126.305 47.7654C126.377 48.0152 126.467 48.2918 126.542 48.5101L125.775 48.7012C125.749 48.5532 125.647 48.1869 125.587 47.9443C125.171 46.3991 123.791 42.6 123.338 41.404C123.227 41.1226 123.065 40.7198 122.958 40.4578L123.734 40.1819Z" fill="#F04B00"/>
</svg>
