<svg width="130" height="128" viewBox="0 0 130 128" fill="none" xmlns="http://www.w3.org/2000/svg">
<path d="M86.8399 9.65186C86.0028 9.17931 85.3826 8.58811 84.9795 7.87826C84.5891 7.16487 84.413 6.38495 84.4514 5.53849C84.4944 4.6839 84.7636 3.8177 85.2591 2.93989C85.75 2.07021 86.3479 1.40024 87.0528 0.929988C87.7622 0.451607 88.5232 0.195229 89.3357 0.160853C90.1563 0.131064 90.9852 0.352448 91.8224 0.825002C92.7977 1.37555 93.4572 2.05858 93.8007 2.87409C94.1569 3.68606 94.184 4.5588 93.8822 5.49232L92.7483 4.85231C92.9165 4.25059 92.8868 3.67654 92.6594 3.13016C92.4446 2.58023 91.9959 2.11258 91.3131 1.7272C90.7036 1.3831 90.0909 1.22483 89.4752 1.25238C88.864 1.27181 88.2833 1.47456 87.7332 1.86065C87.1957 2.24319 86.7205 2.80022 86.3076 3.53173C85.8947 4.26324 85.661 4.96197 85.6067 5.62791C85.565 6.29032 85.6915 6.89223 85.986 7.43362C86.2852 7.9669 86.7396 8.40558 87.3492 8.74967C88.0319 9.13505 88.6596 9.28572 89.2322 9.20167C89.8175 9.11408 90.322 8.8469 90.7457 8.40012L91.8795 9.04013C91.2455 9.7647 90.4888 10.1843 89.6096 10.2989C88.7385 10.4181 87.8153 10.2024 86.8399 9.65186Z" fill="black"/>
<path d="M95.9344 14.7788C95.4205 14.3752 95.0503 13.8946 94.8237 13.3369C94.5971 12.7792 94.5299 12.1924 94.622 11.5764C94.7272 10.9589 95.0075 10.3601 95.4629 9.78025C95.9183 9.20036 96.4343 8.79265 97.0108 8.55713C97.5932 8.31427 98.1821 8.2368 98.7776 8.32472C99.3805 8.4184 99.9389 8.66699 100.453 9.07051C100.967 9.47402 101.337 9.95463 101.563 10.5123C101.79 11.07 101.851 11.6577 101.745 12.2752C101.653 12.8912 101.38 13.4891 100.924 14.069C100.469 14.6489 99.9499 15.0603 99.3676 15.3031C98.791 15.5387 98.2013 15.6096 97.5984 15.5159C97.0029 15.428 96.4482 15.1823 95.9344 14.7788ZM96.5569 13.986C96.8726 14.2339 97.2267 14.3874 97.6194 14.4465C98.012 14.5056 98.4138 14.4473 98.8248 14.2716C99.2357 14.0959 99.6199 13.7805 99.9773 13.3254C100.335 12.8703 100.55 12.4223 100.623 11.9814C100.704 11.5463 100.669 11.145 100.518 10.7776C100.368 10.4102 100.138 10.1054 99.8301 9.86327C99.5145 9.6154 99.1603 9.4619 98.7677 9.40276C98.375 9.34363 97.9732 9.40192 97.5623 9.57763C97.1514 9.75335 96.7672 10.0688 96.4098 10.5239C96.0524 10.979 95.8371 11.427 95.7638 11.8678C95.6905 12.3087 95.7255 12.71 95.8687 13.0717C96.0192 13.4391 96.2486 13.7439 96.5569 13.986Z" fill="black"/>
<path d="M101.398 18.2486L106.451 13.4858L107.181 14.2601L106.322 15.1656C106.795 15.0278 107.267 15.0252 107.738 15.158C108.21 15.2908 108.628 15.5508 108.993 15.9379C109.556 16.5356 109.821 17.1839 109.787 17.8828C109.766 18.582 109.379 19.2869 108.625 19.9975L105.671 22.7822L104.864 21.9264L107.727 19.2282C108.78 18.2359 108.896 17.3051 108.077 16.4357C107.667 16.001 107.165 15.7881 106.571 15.7969C105.989 15.8061 105.407 16.086 104.823 16.6366L102.204 19.1044L101.398 18.2486Z" fill="black"/>
<path d="M109.65 27.1467C109.262 26.6439 109.08 26.1544 109.102 25.678C109.123 25.2017 109.452 24.7186 110.088 24.2288L113.116 21.8963L112.381 20.9425L113.169 20.3359L113.903 21.2897L115.317 20.395L115.941 21.2046L114.621 22.2213L115.868 23.8405L115.081 24.4472L113.834 22.8279L110.806 25.1604C110.458 25.4281 110.276 25.6806 110.258 25.9179C110.248 26.1495 110.38 26.4428 110.653 26.7977L111.098 27.3744L110.299 27.9896L109.65 27.1467Z" fill="black"/>
<path d="M113.317 32.1017C113.029 31.5999 112.874 31.1343 112.854 30.7049C112.833 30.2754 112.918 29.8984 113.108 29.5738C113.298 29.2493 113.559 28.9917 113.891 28.8011C114.506 28.4477 115.115 28.4105 115.716 28.6893C116.318 28.9681 116.851 29.5122 117.316 30.3215L118.25 31.9482L118.323 31.9064C118.849 31.6042 119.166 31.2388 119.275 30.8102C119.393 30.377 119.319 29.9297 119.054 29.4684C118.826 29.0718 118.527 28.786 118.157 28.6109C117.8 28.4392 117.411 28.4262 116.989 28.5718L116.389 27.5278C116.849 27.3172 117.301 27.2514 117.745 27.3303C118.193 27.4172 118.603 27.6068 118.975 27.8988C119.356 28.1862 119.669 28.5444 119.916 28.9733C120.399 29.815 120.535 30.5764 120.324 31.2576C120.125 31.9422 119.653 32.4984 118.909 32.9261L115.206 35.0529L114.683 34.1425L115.729 33.4611C115.291 33.4864 114.856 33.4029 114.422 33.2106C114.002 33.0216 113.633 32.652 113.317 32.1017ZM114.27 31.7644C114.493 32.1529 114.784 32.4266 115.145 32.5855C115.51 32.7526 115.896 32.8159 116.304 32.7757C116.711 32.7354 117.093 32.613 117.449 32.4084L117.461 32.4015L116.575 30.8597C116.231 30.2608 115.882 29.8964 115.528 29.7663C115.186 29.6398 114.861 29.6648 114.554 29.8415C114.238 30.0228 114.048 30.2825 113.984 30.6207C113.933 30.9623 114.028 31.3436 114.27 31.7644Z" fill="black"/>
<path d="M118.038 40.3155C117.797 39.6982 117.719 39.0875 117.803 38.4833C117.9 37.8844 118.145 37.343 118.537 36.8592C118.941 36.3806 119.482 36.0089 120.16 35.744C120.839 35.4792 121.484 35.3874 122.097 35.4686C122.722 35.5552 123.269 35.7875 123.737 36.1657C124.217 36.5492 124.578 37.0495 124.819 37.6668C125.118 38.4318 125.169 39.1533 124.973 39.8311C124.78 40.5176 124.377 41.0612 123.761 41.4617L123.323 40.3402C123.689 40.0971 123.915 39.7636 124 39.3396C124.093 38.9123 124.052 38.4726 123.875 38.0205C123.733 37.6554 123.507 37.3476 123.199 37.0973C122.891 36.8469 122.515 36.6931 122.072 36.6357C121.629 36.5784 121.137 36.655 120.598 36.8655C120.059 37.0761 119.646 37.3526 119.359 37.6952C119.072 38.0378 118.896 38.4072 118.83 38.8036C118.773 39.1966 118.816 39.5756 118.959 39.9408C119.136 40.3928 119.399 40.746 119.748 41.0001C120.107 41.2509 120.507 41.3399 120.95 41.2673L121.388 42.3888C120.685 42.513 120.026 42.3898 119.41 42.0191C118.794 41.6484 118.337 41.0805 118.038 40.3155Z" fill="black"/>
<path d="M121.358 48.6132C121.186 48.0022 121.199 47.4799 121.397 47.0461C121.595 46.6124 122.081 46.2869 122.853 46.0698L126.533 45.036L126.207 43.8769L127.164 43.608L127.49 44.7671L129.135 44.4647L129.412 45.4487L127.808 45.8993L128.361 47.8671L127.404 48.136L126.851 46.1682L123.172 47.202C122.749 47.3206 122.486 47.4868 122.381 47.7004C122.285 47.9115 122.298 48.2328 122.419 48.6641L122.616 49.3649L121.645 49.6376L121.358 48.6132Z" fill="black"/>
</svg>
