<svg width="1163" height="493" viewBox="0 0 1163 493" fill="none" xmlns="http://www.w3.org/2000/svg">
<path d="M11.66 222.1C9.75333 222.1 8.21333 221.88 7.04 221.44C5.86667 221.147 5.28 220.56 5.28 219.68C5.28 217.92 7.7 216.6 12.54 215.72C18.1133 214.693 22.1467 213.007 24.64 210.66C27.28 208.313 28.6 204.427 28.6 199V106.16C28.6 99.56 27.72 94.5 25.96 90.98C24.3467 87.46 20.7533 85.1867 15.18 84.16C12.6867 83.72 10.8533 83.1333 9.68 82.4C8.50667 81.6667 7.92 80.7867 7.92 79.76C7.92 78.88 8.50667 78.2933 9.68 78C10.8533 77.56 12.3933 77.34 14.3 77.34C18.26 77.34 21.1933 77.34 23.1 77.34C25.1533 77.34 27.06 77.4133 28.82 77.56C30.58 77.56 32.9267 77.56 35.86 77.56C38.7933 77.56 41.7267 77.4867 44.66 77.34C47.74 77.0467 50.6 76.8267 53.24 76.68C55.88 76.3867 58.2267 76.24 60.28 76.24C77 76.24 90.42 79.6867 100.54 86.58C110.807 93.4733 115.94 103.08 115.94 115.4C115.94 124.347 114.18 132.633 110.66 140.26C107.14 147.74 101.713 153.753 94.38 158.3C87.1933 162.847 77.9533 165.12 66.66 165.12C63.4333 165.12 60.94 164.68 59.18 163.8C57.5667 162.773 56.76 161.82 56.76 160.94C56.76 160.353 57.1267 159.693 57.86 158.96C58.74 158.227 59.5467 157.86 60.28 157.86C61.0133 157.86 62.1133 157.933 63.58 158.08C65.1933 158.227 67.4667 158.3 70.4 158.3C79.2 158.3 85.8 154.633 90.2 147.3C94.7467 139.967 97.02 129.847 97.02 116.94C97.02 105.207 93.5733 96.5533 86.68 90.98C79.7867 85.26 70.9867 82.4 60.28 82.4C56.1733 82.4 52.8 83.1333 50.16 84.6C47.52 85.92 46.2 88.2667 46.2 91.64V196.58C46.2 201.86 47.3 206.113 49.5 209.34C51.7 212.567 55.5133 214.693 60.94 215.72C63.4333 216.16 65.2667 216.673 66.44 217.26C67.6133 217.847 68.2 218.653 68.2 219.68C68.2 220.56 67.6133 221.147 66.44 221.44C65.2667 221.88 63.7267 222.1 61.82 222.1C57.86 222.1 54.78 221.953 52.58 221.66C50.5267 221.367 48.62 221.147 46.86 221C45.2467 220.707 43.0467 220.56 40.26 220.56C36.5933 220.56 33.2933 220.707 30.36 221C27.5733 221.147 24.7133 221.367 21.78 221.66C18.9933 221.953 15.62 222.1 11.66 222.1ZM129.967 221.66C129.233 221.66 128.28 221.513 127.107 221.22C126.08 221.073 125.567 220.56 125.567 219.68C125.567 218.507 126.08 217.7 127.107 217.26C128.28 216.673 129.453 216.16 130.627 215.72C132.827 214.987 134.953 214.18 137.007 213.3C139.06 212.273 140.087 210.293 140.087 207.36V96.48C140.087 92.2267 139.28 88.7067 137.667 85.92C136.2 82.9867 133.633 81.1533 129.967 80.42C128.793 80.1267 128.207 79.1733 128.207 77.56C128.207 76.0933 128.72 75.2133 129.747 74.92C133.56 74.04 136.86 73.16 139.647 72.28C142.433 71.2533 145 70.2267 147.347 69.2C149.84 68.1733 152.26 67.22 154.607 66.34C155.193 66.0467 155.633 65.9 155.927 65.9C156.22 65.9 156.44 66.12 156.587 66.56C156.88 66.8533 157.027 67.1467 157.027 67.44C157.027 68.76 156.733 71.62 156.147 76.02C155.707 80.2733 155.487 87.3867 155.487 97.36V207.36C155.487 210.293 156.513 212.273 158.567 213.3C160.62 214.18 162.747 214.987 164.947 215.72C166.12 216.16 167.22 216.673 168.247 217.26C169.42 217.7 170.007 218.507 170.007 219.68C170.007 220.56 169.42 221.073 168.247 221.22C167.22 221.513 166.34 221.66 165.607 221.66C162.82 221.66 160.547 221.513 158.787 221.22C157.173 221.073 155.56 220.927 153.947 220.78C152.48 220.633 150.427 220.56 147.787 220.56C145.293 220.56 143.24 220.633 141.627 220.78C140.013 220.927 138.4 221.073 136.787 221.22C135.173 221.513 132.9 221.66 129.967 221.66ZM221.098 224.3C213.032 224.3 205.992 222.32 199.978 218.36C193.965 214.4 189.272 208.827 185.898 201.64C182.525 194.307 180.838 185.873 180.838 176.34C180.838 167.833 182.745 160.133 186.558 153.24C190.518 146.2 195.725 140.553 202.178 136.3C208.632 132.047 215.672 129.92 223.298 129.92C229.165 129.92 234.372 131.093 238.918 133.44C243.465 135.787 246.985 139.087 249.478 143.34C252.118 147.447 253.438 152.213 253.438 157.64C253.438 162.187 251.238 164.46 246.838 164.46H200.418C198.365 164.46 196.898 165.047 196.018 166.22C195.285 167.247 194.918 169.373 194.918 172.6C194.918 179.64 196.458 186.093 199.538 191.96C202.618 197.68 206.725 202.3 211.858 205.82C216.992 209.193 222.638 210.88 228.798 210.88C233.198 210.88 237.158 210.073 240.678 208.46C244.345 206.7 247.572 204.207 250.358 200.98C250.945 200.247 251.385 199.807 251.678 199.66C251.972 199.367 252.338 199.22 252.778 199.22C253.952 199.22 254.538 199.953 254.538 201.42C254.538 204.207 253.218 207.287 250.578 210.66C248.378 213.447 245.738 215.867 242.658 217.92C239.578 219.973 236.205 221.513 232.538 222.54C228.872 223.713 225.058 224.3 221.098 224.3ZM200.858 157.64H220.878C224.398 157.64 227.405 157.567 229.898 157.42C232.392 157.273 234.812 156.98 237.158 156.54C237.892 156.393 238.332 155.953 238.478 155.22C238.772 154.34 238.918 153.167 238.918 151.7C238.918 147.447 237.012 143.853 233.198 140.92C229.532 137.84 225.132 136.3 219.998 136.3C216.625 136.3 213.252 137.327 209.878 139.38C206.505 141.287 203.718 143.707 201.518 146.64C199.318 149.573 198.218 152.507 198.218 155.44C198.218 156.907 199.098 157.64 200.858 157.64ZM285.701 224.08C283.061 224.08 280.348 223.053 277.561 221C274.921 218.947 272.648 216.453 270.741 213.52C268.981 210.587 268.101 207.8 268.101 205.16C268.101 200.467 269.348 196.8 271.841 194.16C274.334 191.52 278.294 189.1 283.721 186.9L306.161 177.66C309.094 176.487 310.781 175.46 311.221 174.58C311.808 173.7 312.174 171.793 312.321 168.86L312.761 154.78C312.908 150.967 311.808 147.667 309.461 144.88C307.261 142.093 304.034 140.7 299.781 140.7C297.581 140.7 295.381 141.067 293.181 141.8C290.981 142.533 289.148 143.487 287.681 144.66C286.801 145.247 286.214 146.127 285.921 147.3C285.628 148.473 285.481 149.72 285.481 151.04C285.481 151.627 285.481 152.287 285.481 153.02C285.628 153.753 285.701 154.413 285.701 155C285.701 155.733 284.748 156.76 282.841 158.08C281.081 159.253 279.028 160.353 276.681 161.38C274.481 162.26 272.648 162.7 271.181 162.7C270.448 162.7 269.861 162.553 269.421 162.26C268.981 161.82 268.761 161.307 268.761 160.72C268.761 158.373 269.494 155.88 270.961 153.24C272.574 150.453 274.774 147.887 277.561 145.54C280.934 142.46 284.601 139.747 288.561 137.4C292.521 135.053 296.408 133.22 300.221 131.9C304.034 130.58 307.408 129.92 310.341 129.92C315.621 129.92 319.948 131.827 323.321 135.64C326.841 139.307 328.528 143.927 328.381 149.5L327.281 202.3C327.134 205.38 327.794 207.873 329.261 209.78C330.874 211.687 332.854 212.64 335.201 212.64C338.868 212.64 341.581 211.833 343.341 210.22C344.074 209.487 344.661 209.12 345.101 209.12C345.834 209.12 346.421 209.34 346.861 209.78C347.301 210.22 347.521 210.807 347.521 211.54C347.521 213.153 346.714 214.767 345.101 216.38C342.754 218.727 340.188 220.56 337.401 221.88C334.761 223.347 332.268 224.08 329.921 224.08C323.174 224.08 317.821 220.267 313.861 212.64H313.201C308.361 216.6 303.741 219.46 299.341 221.22C294.941 223.127 290.394 224.08 285.701 224.08ZM296.041 213.52C298.974 213.52 301.468 213.08 303.521 212.2C305.574 211.173 307.408 209.853 309.021 208.24C309.754 207.507 310.341 206.553 310.781 205.38C311.368 204.06 311.734 202.007 311.881 199.22L312.321 188.44C312.468 186.827 312.394 185.653 312.101 184.92C311.808 184.187 311.221 183.82 310.341 183.82C310.048 183.82 309.534 183.893 308.801 184.04C308.068 184.187 307.114 184.48 305.941 184.92C298.168 187.707 292.741 190.64 289.661 193.72C286.728 196.653 285.261 199.367 285.261 201.86C285.261 205.673 286.361 208.607 288.561 210.66C290.908 212.567 293.401 213.52 296.041 213.52ZM379.512 224.08C374.965 224.08 370.712 223.347 366.752 221.88C362.792 220.56 359.419 218.653 356.632 216.16C355.899 214.547 355.312 211.833 354.872 208.02C354.579 204.207 354.359 201.053 354.212 198.56C354.212 197.24 355.165 196.58 357.072 196.58C357.659 196.58 358.172 196.727 358.612 197.02C359.199 197.167 359.565 197.533 359.712 198.12C361.619 205.307 364.625 210.44 368.732 213.52C372.985 216.6 377.239 218.14 381.492 218.14C385.745 218.14 389.339 216.747 392.272 213.96C395.352 211.027 396.892 207.433 396.892 203.18C396.892 199.22 395.572 195.847 392.932 193.06C390.292 190.127 385.672 186.607 379.072 182.5C374.085 179.42 370.052 176.487 366.972 173.7C363.892 170.913 361.619 168.053 360.152 165.12C358.832 162.187 358.172 158.887 358.172 155.22C358.172 150.527 359.272 146.273 361.472 142.46C363.672 138.647 366.972 135.64 371.372 133.44C375.772 131.093 381.272 129.92 387.872 129.92C392.272 129.92 395.939 130.36 398.872 131.24C401.805 132.12 404.005 133.073 405.472 134.1C406.645 135.713 407.599 138.28 408.332 141.8C409.212 145.173 409.652 148.4 409.652 151.48C409.652 152.507 408.919 153.02 407.452 153.02C406.572 153.02 405.692 152.873 404.812 152.58C404.079 152.14 403.565 151.627 403.272 151.04C401.365 146.2 398.945 142.533 396.012 140.04C393.225 137.4 389.705 136.08 385.452 136.08C381.785 136.08 378.485 137.18 375.552 139.38C372.765 141.58 371.372 144.807 371.372 149.06C371.372 152.433 372.399 155.44 374.452 158.08C376.652 160.72 380.685 163.727 386.552 167.1C395.059 171.94 401.365 176.487 405.472 180.74C409.725 184.847 411.852 190.347 411.852 197.24C411.852 205.16 408.845 211.613 402.832 216.6C396.819 221.587 389.045 224.08 379.512 224.08ZM465.805 224.3C457.739 224.3 450.699 222.32 444.685 218.36C438.672 214.4 433.979 208.827 430.605 201.64C427.232 194.307 425.545 185.873 425.545 176.34C425.545 167.833 427.452 160.133 431.265 153.24C435.225 146.2 440.432 140.553 446.885 136.3C453.339 132.047 460.379 129.92 468.005 129.92C473.872 129.92 479.079 131.093 483.625 133.44C488.172 135.787 491.692 139.087 494.185 143.34C496.825 147.447 498.145 152.213 498.145 157.64C498.145 162.187 495.945 164.46 491.545 164.46H445.125C443.072 164.46 441.605 165.047 440.725 166.22C439.992 167.247 439.625 169.373 439.625 172.6C439.625 179.64 441.165 186.093 444.245 191.96C447.325 197.68 451.432 202.3 456.565 205.82C461.699 209.193 467.345 210.88 473.505 210.88C477.905 210.88 481.865 210.073 485.385 208.46C489.052 206.7 492.279 204.207 495.065 200.98C495.652 200.247 496.092 199.807 496.385 199.66C496.679 199.367 497.045 199.22 497.485 199.22C498.659 199.22 499.245 199.953 499.245 201.42C499.245 204.207 497.925 207.287 495.285 210.66C493.085 213.447 490.445 215.867 487.365 217.92C484.285 219.973 480.912 221.513 477.245 222.54C473.579 223.713 469.765 224.3 465.805 224.3ZM445.565 157.64H465.585C469.105 157.64 472.112 157.567 474.605 157.42C477.099 157.273 479.519 156.98 481.865 156.54C482.599 156.393 483.039 155.953 483.185 155.22C483.479 154.34 483.625 153.167 483.625 151.7C483.625 147.447 481.719 143.853 477.905 140.92C474.239 137.84 469.839 136.3 464.705 136.3C461.332 136.3 457.959 137.327 454.585 139.38C451.212 141.287 448.425 143.707 446.225 146.64C444.025 149.573 442.925 152.507 442.925 155.44C442.925 156.907 443.805 157.64 445.565 157.64ZM513.028 253.34C510.388 253.34 509.068 252.533 509.068 250.92C509.068 250.333 509.288 249.747 509.728 249.16C510.315 248.72 511.121 248.427 512.148 248.28C515.375 247.547 518.601 246.3 521.828 244.54C525.055 242.78 527.768 240.213 529.968 236.84C532.168 233.613 533.268 229.433 533.268 224.3C533.268 222.54 532.461 220.56 530.848 218.36C529.235 216.013 527.181 214.767 524.688 214.62C521.461 214.327 518.895 213.3 516.988 211.54C515.228 209.78 514.348 207.727 514.348 205.38C514.348 202.447 515.521 200.027 517.868 198.12C520.361 196.213 523.221 195.26 526.448 195.26C531.728 195.26 536.055 197.313 539.428 201.42C542.948 205.38 544.708 210.44 544.708 216.6C544.708 222.173 543.608 227.16 541.408 231.56C539.208 236.107 536.421 239.993 533.048 243.22C529.675 246.447 526.155 248.94 522.488 250.7C518.968 252.46 515.815 253.34 513.028 253.34Z" fill="#2D2F31"/>
<path d="M42.9 490.8C30.4333 490.8 20.5333 488.38 13.2 483.54C6.01333 478.847 2.42 472.467 2.42 464.4C2.42 460.587 3.00667 457.36 4.18 454.72C5.35333 452.08 7.18667 449.807 9.68 447.9C11.7333 446.14 14.4467 443.867 17.82 441.08C21.34 438.44 24.9333 435.653 28.6 432.72L37.84 433.16C30.8 437.707 25.8867 442.033 23.1 446.14C20.3133 450.247 18.92 455.233 18.92 461.1C18.92 466.967 21.4867 471.88 26.62 475.84C31.9 479.947 38.3533 482 45.98 482C54.6333 482 61.6 480.02 66.88 476.06C70.5467 473.273 73.4067 469.607 75.46 465.06C77.5133 460.66 78.54 455.967 78.54 450.98C78.54 447.753 77.3667 445.04 75.02 442.84C72.82 440.787 69.3 439.1 64.46 437.78C59.62 436.46 53.3133 435.58 45.54 435.14C31.7533 434.113 22.1467 432.28 16.72 429.64C11.44 427 8.8 422.893 8.8 417.32C8.8 415.853 9.16667 414.533 9.9 413.36C10.78 412.04 12.1 410.647 13.86 409.18C17.2333 406.54 19.7267 404.633 21.34 403.46C22.9533 402.14 24.1267 401.04 24.86 400.16C25.74 399.28 26.5467 398.18 27.28 396.86L34.76 400.6C31.5333 401.773 28.82 403.387 26.62 405.44C24.42 407.347 23.32 409.107 23.32 410.72C23.32 412.773 24.42 414.607 26.62 416.22C28.82 417.687 32.0467 418.86 36.3 419.74C40.5533 420.62 45.76 421.28 51.92 421.72C65.4133 422.453 75.46 424.653 82.06 428.32C88.66 431.987 91.96 437.193 91.96 443.94C91.96 449.66 90.4933 455.233 87.56 460.66C84.7733 466.233 81.0333 471.293 76.34 475.84C71.6467 480.387 66.3667 483.98 60.5 486.62C54.78 489.407 48.9133 490.8 42.9 490.8ZM45.54 395.98C51.1133 395.98 55.7333 393.193 59.4 387.62C63.0667 381.9 64.9 374.86 64.9 366.5C64.9 362.247 63.8733 358.287 61.82 354.62C59.9133 350.807 57.3467 347.8 54.12 345.6C51.04 343.253 47.6667 342.08 44 342.08C40.6267 342.08 37.4 343.327 34.32 345.82C31.3867 348.167 28.9667 351.247 27.06 355.06C25.3 358.873 24.42 363.053 24.42 367.6C24.42 372.733 25.3733 377.5 27.28 381.9C29.1867 386.153 31.7533 389.6 34.98 392.24C38.2067 394.733 41.7267 395.98 45.54 395.98ZM44.22 403.68C38.2067 403.68 32.4867 402.14 27.06 399.06C21.6333 395.98 17.16 391.947 13.64 386.96C10.2667 381.827 8.58 376.253 8.58 370.24C8.58 363.347 10.34 357.333 13.86 352.2C17.5267 346.92 22.2933 342.813 28.16 339.88C34.0267 336.947 40.26 335.48 46.86 335.48C51.1133 335.48 54.78 336.067 57.86 337.24C61.0867 338.267 64.24 339.22 67.32 340.1C70.84 341.127 73.6267 341.787 75.68 342.08C77.7333 342.227 79.86 342.3 82.06 342.3C83.82 342.3 86.02 342.227 88.66 342.08C91.3 341.787 93.1333 341.64 94.16 341.64C96.0667 341.64 97.02 342.74 97.02 344.94C97.02 346.26 96.2867 347.653 94.82 349.12C94.0867 349.853 93.5 350.22 93.06 350.22H87.12C83.16 350.22 80.96 350.807 80.52 351.98C80.3733 352.567 80.1533 353.447 79.86 354.62C79.7133 355.647 79.5667 356.82 79.42 358.14C79.2733 359.46 79.2 360.78 79.2 362.1C79.2 369.58 77.5867 376.473 74.36 382.78C71.1333 389.087 66.88 394.147 61.6 397.96C56.32 401.773 50.5267 403.68 44.22 403.68ZM142.465 430.3C134.399 430.3 127.359 428.32 121.345 424.36C115.332 420.4 110.639 414.827 107.265 407.64C103.892 400.307 102.205 391.873 102.205 382.34C102.205 373.833 104.112 366.133 107.925 359.24C111.885 352.2 117.092 346.553 123.545 342.3C129.999 338.047 137.039 335.92 144.665 335.92C150.532 335.92 155.739 337.093 160.285 339.44C164.832 341.787 168.352 345.087 170.845 349.34C173.485 353.447 174.805 358.213 174.805 363.64C174.805 368.187 172.605 370.46 168.205 370.46H121.785C119.732 370.46 118.265 371.047 117.385 372.22C116.652 373.247 116.285 375.373 116.285 378.6C116.285 385.64 117.825 392.093 120.905 397.96C123.985 403.68 128.092 408.3 133.225 411.82C138.359 415.193 144.005 416.88 150.165 416.88C154.565 416.88 158.525 416.073 162.045 414.46C165.712 412.7 168.939 410.207 171.725 406.98C172.312 406.247 172.752 405.807 173.045 405.66C173.339 405.367 173.705 405.22 174.145 405.22C175.319 405.22 175.905 405.953 175.905 407.42C175.905 410.207 174.585 413.287 171.945 416.66C169.745 419.447 167.105 421.867 164.025 423.92C160.945 425.973 157.572 427.513 153.905 428.54C150.239 429.713 146.425 430.3 142.465 430.3ZM122.225 363.64H142.245C145.765 363.64 148.772 363.567 151.265 363.42C153.759 363.273 156.179 362.98 158.525 362.54C159.259 362.393 159.699 361.953 159.845 361.22C160.139 360.34 160.285 359.167 160.285 357.7C160.285 353.447 158.379 349.853 154.565 346.92C150.899 343.84 146.499 342.3 141.365 342.3C137.992 342.3 134.619 343.327 131.245 345.38C127.872 347.287 125.085 349.707 122.885 352.64C120.685 355.573 119.585 358.507 119.585 361.44C119.585 362.907 120.465 363.64 122.225 363.64ZM222.908 430.08C215.721 430.08 210.075 427.88 205.968 423.48C202.008 419.08 200.028 412.553 200.028 403.9V352.86C200.028 351.687 199.588 350.88 198.708 350.44C197.828 349.853 195.921 349.56 192.988 349.56H191.668C190.935 349.56 190.275 349.12 189.688 348.24C189.248 347.213 189.028 346.187 189.028 345.16C189.028 344.867 189.248 344.427 189.688 343.84C190.128 343.253 190.421 342.887 190.568 342.74C193.501 340.687 196.141 338.633 198.488 336.58C200.981 334.527 203.181 332.547 205.088 330.64C207.141 328.587 208.828 326.753 210.148 325.14C210.881 324.407 211.468 323.82 211.908 323.38C212.495 322.793 213.155 322.5 213.888 322.5C214.621 322.5 215.281 322.647 215.868 322.94C216.601 323.233 216.895 323.893 216.748 324.92L215.648 334.82C215.501 336.433 215.868 337.533 216.748 338.12C217.628 338.707 219.021 339 220.928 339H246.008C246.595 339 247.108 339.513 247.548 340.54C247.988 341.42 248.208 342.52 248.208 343.84C248.208 345.16 247.988 346.48 247.548 347.8C247.108 348.973 246.595 349.56 246.008 349.56H224.228C220.561 349.56 218.141 349.853 216.968 350.44C215.941 351.027 215.428 352.787 215.428 355.72V399.06C215.428 404.927 216.675 409.547 219.168 412.92C221.661 416.293 225.255 417.98 229.948 417.98C234.201 417.98 237.501 417.687 239.848 417.1C242.195 416.367 244.321 415.34 246.228 414.02C246.521 413.727 246.815 413.58 247.108 413.58C247.695 413.58 248.061 413.947 248.208 414.68C248.501 415.267 248.648 415.927 248.648 416.66C248.648 417.393 247.401 418.86 244.908 421.06C242.561 423.26 239.408 425.313 235.448 427.22C231.635 429.127 227.455 430.08 222.908 430.08ZM304.231 427.66C302.911 427.66 301.811 427.44 300.931 427C300.197 426.707 299.831 426.12 299.831 425.24C299.831 424.067 300.344 423.26 301.371 422.82C302.544 422.38 303.717 422.013 304.891 421.72C307.971 420.987 310.317 420.107 311.931 419.08C313.544 417.907 314.351 416 314.351 413.36V365.62C314.351 361.66 313.617 358.14 312.151 355.06C310.831 351.98 308.264 350.147 304.451 349.56C303.717 349.413 303.131 349.12 302.691 348.68C302.397 348.24 302.251 347.58 302.251 346.7C302.251 345.087 302.911 344.207 304.231 344.06C310.097 342.74 314.937 340.98 318.751 338.78C322.564 336.433 325.424 334.527 327.331 333.06C328.651 332.033 329.677 331.52 330.411 331.52C331.291 331.52 331.731 331.887 331.731 332.62C331.731 333.793 331.511 336.14 331.071 339.66C330.777 343.033 330.484 346.847 330.191 351.1C329.897 355.207 329.751 358.947 329.751 362.32V413.36C329.751 415.853 330.557 417.687 332.171 418.86C333.931 420.033 336.277 420.987 339.211 421.72C340.384 422.013 341.484 422.38 342.511 422.82C343.684 423.26 344.271 424.067 344.271 425.24C344.271 426.853 342.804 427.66 339.871 427.66C337.084 427.66 334.811 427.513 333.051 427.22C331.437 427.073 329.824 426.927 328.211 426.78C326.744 426.633 324.691 426.56 322.051 426.56C319.557 426.56 317.504 426.633 315.891 426.78C314.277 426.927 312.664 427.073 311.051 427.22C309.437 427.513 307.164 427.66 304.231 427.66ZM321.831 313.48C318.751 313.48 316.111 312.453 313.911 310.4C311.857 308.2 310.831 305.56 310.831 302.48C310.831 299.253 311.857 296.613 313.911 294.56C316.111 292.36 318.751 291.26 321.831 291.26C325.057 291.26 327.697 292.36 329.751 294.56C331.951 296.613 333.051 299.253 333.051 302.48C333.051 305.56 331.951 308.2 329.751 310.4C327.697 312.453 325.057 313.48 321.831 313.48ZM358.157 427.66C356.837 427.66 355.737 427.44 354.857 427C354.123 426.707 353.757 426.12 353.757 425.24C353.757 424.067 354.197 423.333 355.077 423.04C355.957 422.6 357.203 422.16 358.817 421.72C361.017 421.133 363.143 420.327 365.197 419.3C367.25 418.273 368.277 416.293 368.277 413.36V366.06C368.277 362.1 367.837 358.727 366.957 355.94C366.223 353.153 363.95 351.247 360.137 350.22C359.55 349.927 359.037 349.633 358.597 349.34C358.157 348.9 357.937 348.24 357.937 347.36C357.937 345.747 358.597 344.867 359.917 344.72C365.05 343.4 369.23 341.787 372.457 339.88C375.683 337.973 378.837 335.847 381.917 333.5C382.357 333.207 382.723 332.987 383.017 332.84C383.457 332.547 383.897 332.4 384.337 332.4C384.63 332.4 384.85 332.547 384.997 332.84C385.29 333.133 385.437 333.5 385.437 333.94C385.437 334.967 385.217 337.093 384.777 340.32C384.483 343.4 384.337 345.967 384.337 348.02C384.337 348.607 384.337 349.193 384.337 349.78C384.483 350.22 384.63 350.513 384.777 350.66C389.91 345.82 395.337 342.153 401.057 339.66C406.923 337.167 413.303 335.92 420.197 335.92C427.383 335.92 433.323 338.853 438.017 344.72C442.71 350.587 445.057 357.847 445.057 366.5V413.36C445.057 416.293 446.083 418.273 448.137 419.3C450.19 420.18 452.317 420.987 454.517 421.72C455.69 422.16 456.79 422.673 457.817 423.26C458.99 423.7 459.577 424.507 459.577 425.68C459.577 426.56 459.063 427.073 458.037 427.22C457.01 427.513 456.057 427.66 455.177 427.66C452.243 427.66 449.97 427.513 448.357 427.22C446.743 427.073 445.203 426.927 443.737 426.78C442.27 426.633 440.217 426.56 437.577 426.56C435.083 426.56 433.03 426.633 431.417 426.78C429.803 426.927 428.117 427.073 426.357 427.22C424.743 427.513 422.47 427.66 419.537 427.66C418.803 427.66 417.85 427.513 416.677 427.22C415.65 427.073 415.137 426.56 415.137 425.68C415.137 424.507 415.65 423.7 416.677 423.26C417.85 422.673 419.023 422.16 420.197 421.72C422.397 420.987 424.523 420.18 426.577 419.3C428.63 418.273 429.657 416.293 429.657 413.36V367.16C429.657 360.707 427.823 355.72 424.157 352.2C420.637 348.533 415.87 346.627 409.857 346.48C404.577 346.48 399.957 347.36 395.997 349.12C392.037 350.733 388.517 352.787 385.437 355.28C384.85 355.867 384.41 356.673 384.117 357.7C383.823 358.58 383.677 359.46 383.677 360.34V413.36C383.677 416.293 384.703 418.273 386.757 419.3C388.81 420.327 390.937 421.133 393.137 421.72C396.51 422.6 398.197 423.773 398.197 425.24C398.197 426.12 397.83 426.707 397.097 427C396.363 427.44 395.263 427.66 393.797 427.66C390.863 427.66 388.517 427.513 386.757 427.22C385.143 427.073 383.603 426.927 382.137 426.78C380.67 426.633 378.617 426.56 375.977 426.56C373.483 426.56 371.43 426.633 369.817 426.78C368.35 426.927 366.737 427.073 364.977 427.22C363.363 427.513 361.09 427.66 358.157 427.66ZM550.33 430.08C543.143 430.08 537.497 427.88 533.39 423.48C529.43 419.08 527.45 412.553 527.45 403.9V352.86C527.45 351.687 527.01 350.88 526.13 350.44C525.25 349.853 523.343 349.56 520.41 349.56H519.09C518.357 349.56 517.697 349.12 517.11 348.24C516.67 347.213 516.45 346.187 516.45 345.16C516.45 344.867 516.67 344.427 517.11 343.84C517.55 343.253 517.843 342.887 517.99 342.74C520.923 340.687 523.563 338.633 525.91 336.58C528.403 334.527 530.603 332.547 532.51 330.64C534.563 328.587 536.25 326.753 537.57 325.14C538.303 324.407 538.89 323.82 539.33 323.38C539.917 322.793 540.577 322.5 541.31 322.5C542.043 322.5 542.703 322.647 543.29 322.94C544.023 323.233 544.317 323.893 544.17 324.92L543.07 334.82C542.923 336.433 543.29 337.533 544.17 338.12C545.05 338.707 546.443 339 548.35 339H573.43C574.017 339 574.53 339.513 574.97 340.54C575.41 341.42 575.63 342.52 575.63 343.84C575.63 345.16 575.41 346.48 574.97 347.8C574.53 348.973 574.017 349.56 573.43 349.56H551.65C547.983 349.56 545.563 349.853 544.39 350.44C543.363 351.027 542.85 352.787 542.85 355.72V399.06C542.85 404.927 544.097 409.547 546.59 412.92C549.083 416.293 552.677 417.98 557.37 417.98C561.623 417.98 564.923 417.687 567.27 417.1C569.617 416.367 571.743 415.34 573.65 414.02C573.943 413.727 574.237 413.58 574.53 413.58C575.117 413.58 575.483 413.947 575.63 414.68C575.923 415.267 576.07 415.927 576.07 416.66C576.07 417.393 574.823 418.86 572.33 421.06C569.983 423.26 566.83 425.313 562.87 427.22C559.057 429.127 554.877 430.08 550.33 430.08ZM629.41 430.08C621.196 430.08 613.79 428.173 607.19 424.36C600.59 420.547 595.31 415.34 591.35 408.74C587.536 401.993 585.63 394.367 585.63 385.86C585.63 379.7 586.803 373.687 589.15 367.82C591.643 361.953 595.09 356.6 599.49 351.76C603.89 346.92 609.023 343.107 614.89 340.32C620.756 337.387 627.063 335.92 633.81 335.92C642.316 335.92 649.943 337.973 656.69 342.08C663.583 346.187 669.01 351.613 672.97 358.36C677.076 364.96 679.13 372.22 679.13 380.14C679.13 388.647 677.223 396.713 673.41 404.34C669.743 411.967 664.243 418.2 656.91 423.04C649.576 427.733 640.41 430.08 629.41 430.08ZM634.03 423.48C639.016 423.48 643.49 422.527 647.45 420.62C651.41 418.713 654.49 415.633 656.69 411.38C658.45 408.007 659.623 403.9 660.21 399.06C660.796 394.22 661.09 389.673 661.09 385.42C661.09 378.38 659.77 371.633 657.13 365.18C654.636 358.58 651.043 353.227 646.35 349.12C641.803 344.867 636.376 342.74 630.07 342.74C626.11 342.74 622.516 343.4 619.29 344.72C616.21 345.893 613.35 348.167 610.71 351.54C607.776 355.207 605.87 359.68 604.99 364.96C604.11 370.24 603.67 375.52 603.67 380.8C603.67 387.987 604.99 394.88 607.63 401.48C610.27 407.933 613.863 413.213 618.41 417.32C622.956 421.427 628.163 423.48 634.03 423.48ZM767.375 431.18C766.349 431.18 765.835 430.593 765.835 429.42C765.835 427.953 765.982 425.827 766.275 423.04C766.715 420.107 766.935 417.687 766.935 415.78C766.935 415.487 766.935 415.267 766.935 415.12C766.935 414.827 766.935 414.607 766.935 414.46C761.215 420.033 755.422 424.067 749.555 426.56C743.835 428.907 737.529 430.08 730.635 430.08C725.942 430.08 721.689 429.053 717.875 427C714.062 425.093 711.055 422.233 708.855 418.42C706.655 414.46 705.555 409.62 705.555 403.9V359.24C705.555 356.013 704.822 353.447 703.355 351.54C701.889 349.633 699.469 348.02 696.095 346.7C695.362 346.407 694.702 346.04 694.115 345.6C693.529 345.16 693.235 344.353 693.235 343.18C693.235 341.86 693.529 340.98 694.115 340.54C694.849 340.1 695.655 339.807 696.535 339.66C701.522 339.367 705.335 339 707.975 338.56C710.762 337.973 714.209 337.167 718.315 336.14C718.755 335.993 719.049 335.92 719.195 335.92C719.489 335.92 719.782 335.92 720.075 335.92C721.689 335.92 722.422 336.947 722.275 339C721.835 342.373 721.469 345.233 721.175 347.58C721.029 349.78 720.955 352.567 720.955 355.94V398.84C720.955 402.36 721.835 405.66 723.595 408.74C725.355 411.673 727.629 414.093 730.415 416C733.349 417.907 736.355 418.86 739.435 418.86C743.249 418.86 746.549 418.64 749.335 418.2C752.269 417.76 755.129 416.513 757.915 414.46C759.529 413.287 761.582 411.38 764.075 408.74C766.569 406.1 767.815 402.507 767.815 397.96V357.7C767.815 354.62 766.862 352.347 764.955 350.88C763.195 349.267 761.142 348.167 758.795 347.58C756.449 346.993 754.542 346.7 753.075 346.7C751.755 346.7 750.655 346.48 749.775 346.04C748.895 345.453 748.455 344.427 748.455 342.96C748.455 341.64 748.895 340.76 749.775 340.32C750.802 339.88 751.902 339.66 753.075 339.66C757.622 339.513 761.362 339.367 764.295 339.22C767.375 338.927 770.089 338.56 772.435 338.12C774.929 337.533 777.495 336.873 780.135 336.14C780.429 335.993 780.795 335.92 781.235 335.92C781.675 335.773 782.042 335.7 782.335 335.7C784.242 335.7 785.195 336.507 785.195 338.12C785.195 338.267 785.122 338.56 784.975 339C784.975 339.293 784.902 339.66 784.755 340.1C784.609 340.54 784.389 341.787 784.095 343.84C783.949 345.893 783.729 348.02 783.435 350.22C783.289 352.42 783.215 354.107 783.215 355.28V406.1C783.215 410.06 783.582 412.92 784.315 414.68C785.195 416.293 786.149 417.1 787.175 417.1C788.349 417.1 790.035 417.027 792.235 416.88C794.582 416.587 796.269 416.44 797.295 416.44C798.029 416.44 798.762 416.587 799.495 416.88C800.229 417.173 800.595 417.98 800.595 419.3C800.595 420.473 800.302 421.28 799.715 421.72C799.129 422.013 798.395 422.233 797.515 422.38C791.795 423.113 786.882 424.213 782.775 425.68C778.669 427.147 775.002 428.54 771.775 429.86C771.335 430.007 770.675 430.227 769.795 430.52C768.915 430.96 768.109 431.18 767.375 431.18ZM849.731 430.3C842.398 430.3 835.724 428.467 829.711 424.8C823.844 420.987 819.151 415.853 815.631 409.4C812.258 402.8 810.571 395.467 810.571 387.4C810.571 377.867 812.624 369.213 816.731 361.44C820.984 353.667 826.631 347.507 833.671 342.96C840.711 338.267 848.484 335.92 856.991 335.92C866.524 335.92 874.884 338.487 882.071 343.62C883.831 344.94 884.711 346.333 884.711 347.8C884.711 348.973 884.198 350.293 883.171 351.76C882.144 353.227 880.898 354.473 879.431 355.5C877.964 356.38 876.571 356.82 875.251 356.82C874.518 356.82 873.784 356.6 873.051 356.16C872.318 355.573 871.511 354.987 870.631 354.4C867.404 351.907 863.811 349.56 859.851 347.36C855.891 345.16 852.591 344.06 849.951 344.06C842.764 344.06 836.898 347.433 832.351 354.18C827.951 360.78 825.751 369.507 825.751 380.36C825.751 387.253 827.218 393.487 830.151 399.06C833.231 404.633 837.264 409.033 842.251 412.26C847.384 415.487 853.031 417.1 859.191 417.1C863.444 417.1 867.111 416.44 870.191 415.12C873.271 413.653 876.571 411.16 880.091 407.64C880.384 407.347 880.751 407.127 881.191 406.98C881.631 406.687 881.998 406.54 882.291 406.54C883.904 406.54 884.711 407.567 884.711 409.62C884.711 410.5 884.418 411.527 883.831 412.7C883.391 413.727 882.584 414.973 881.411 416.44C879.064 419.373 876.278 421.94 873.051 424.14C869.824 426.193 866.231 427.733 862.271 428.76C858.458 429.787 854.278 430.3 849.731 430.3ZM901.041 427.66C898.108 427.66 896.641 426.853 896.641 425.24C896.641 423.92 898.328 422.747 901.701 421.72C903.901 420.987 905.954 420.033 907.861 418.86C909.914 417.687 911.014 415.633 911.161 412.7V302.48C911.161 298.52 910.501 295.073 909.181 292.14C907.861 289.06 905.294 287.227 901.481 286.64C900.161 286.347 899.501 285.32 899.501 283.56C899.501 282.24 900.088 281.36 901.261 280.92C903.314 280.187 905.734 279.38 908.521 278.5C911.454 277.62 914.461 276.667 917.541 275.64C920.621 274.467 923.334 273.367 925.681 272.34C926.268 272.047 926.708 271.9 927.001 271.9C927.441 271.9 927.808 272.047 928.101 272.34C928.394 272.633 928.541 273 928.541 273.44C928.541 274.32 928.321 275.567 927.881 277.18C927.588 278.793 927.294 281.58 927.001 285.54C926.708 289.5 926.561 295.44 926.561 303.36V341.64C926.561 343.987 926.634 345.673 926.781 346.7C927.074 347.727 927.514 348.753 928.101 349.78C930.448 348.02 933.308 346.113 936.681 344.06C940.201 341.86 944.088 339.953 948.341 338.34C952.594 336.727 956.994 335.92 961.541 335.92C968.728 335.92 974.668 338.78 979.361 344.5C984.201 350.073 986.621 357.187 986.621 365.84V412.04C986.621 414.973 987.574 417.173 989.481 418.64C991.388 419.96 993.441 420.987 995.641 421.72C997.254 422.16 998.501 422.673 999.381 423.26C1000.26 423.7 1000.7 424.36 1000.7 425.24C1000.7 426.853 999.234 427.66 996.301 427.66C993.368 427.66 991.094 427.513 989.481 427.22C988.014 427.073 986.548 426.927 985.081 426.78C983.761 426.633 981.781 426.56 979.141 426.56C976.648 426.56 974.668 426.633 973.201 426.78C971.734 426.927 970.194 427.073 968.581 427.22C967.114 427.513 964.914 427.66 961.981 427.66C959.048 427.66 957.581 426.853 957.581 425.24C957.581 424.213 958.021 423.553 958.901 423.26C959.781 422.82 961.028 422.307 962.641 421.72C964.841 420.987 966.821 419.96 968.581 418.64C970.341 417.173 971.221 414.973 971.221 412.04V367.16C971.221 363.493 970.121 360.193 967.921 357.26C965.868 354.18 963.301 351.76 960.221 350C957.141 348.24 953.988 347.36 950.761 347.36C947.974 347.36 944.748 347.8 941.081 348.68C937.414 349.413 934.554 350.587 932.501 352.2C930.154 354.107 928.541 356.087 927.661 358.14C926.928 360.193 926.561 363.493 926.561 368.04V412.7C926.708 415.633 927.588 417.687 929.201 418.86C930.961 420.033 932.941 420.987 935.141 421.72C936.754 422.16 937.928 422.673 938.661 423.26C939.541 423.7 939.981 424.36 939.981 425.24C939.981 426.853 938.514 427.66 935.581 427.66C932.648 427.66 930.448 427.513 928.981 427.22C927.514 427.073 926.121 426.927 924.801 426.78C923.481 426.633 921.501 426.56 918.861 426.56C916.368 426.56 914.314 426.633 912.701 426.78C911.234 426.927 909.621 427.073 907.861 427.22C906.248 427.513 903.974 427.66 901.041 427.66ZM1030.98 430.08C1027.76 430.08 1024.9 428.907 1022.4 426.56C1020.06 424.067 1018.88 421.207 1018.88 417.98C1018.88 414.607 1020.06 411.747 1022.4 409.4C1024.9 407.053 1027.76 405.88 1030.98 405.88C1034.36 405.88 1037.22 407.053 1039.56 409.4C1041.91 411.747 1043.08 414.607 1043.08 417.98C1043.08 421.207 1041.91 424.067 1039.56 426.56C1037.22 428.907 1034.36 430.08 1030.98 430.08Z" fill="#2D2F31"/>
</svg>
