<svg width="799" height="551" viewBox="0 0 799 551" fill="none" xmlns="http://www.w3.org/2000/svg">
<path d="M216.063 445.056C216.381 445.492 216.588 445.88 216.683 446.221C216.812 446.538 216.776 446.77 216.575 446.916C216.173 447.21 215.468 446.878 214.46 445.92C213.295 444.82 212.237 444.181 211.286 444.003C210.309 443.792 209.202 444.14 207.964 445.045L186.776 460.539C185.269 461.64 184.261 462.685 183.752 463.674C183.218 464.63 183.299 465.829 183.994 467.273C184.31 467.915 184.482 468.432 184.511 468.822C184.539 469.212 184.436 469.493 184.202 469.664C184.001 469.811 183.769 469.775 183.506 469.556C183.21 469.362 182.903 469.047 182.585 468.612C181.924 467.708 181.434 467.039 181.116 466.603C180.773 466.135 180.472 465.687 180.212 465.261C179.918 464.86 179.526 464.324 179.037 463.655C178.547 462.985 178.041 462.328 177.518 461.683C176.937 461.029 176.41 460.413 175.936 459.835C175.428 459.281 175.003 458.77 174.66 458.302C171.87 454.486 170.417 450.848 170.302 447.388C170.162 443.895 171.497 441.12 174.309 439.064C176.351 437.571 178.536 436.59 180.864 436.12C183.158 435.675 185.436 435.91 187.698 436.825C189.935 437.706 191.995 439.436 193.88 442.013C194.419 442.75 194.734 443.392 194.827 443.941C194.862 444.48 194.779 444.823 194.578 444.97C194.444 445.068 194.232 445.095 193.943 445.05C193.629 444.971 193.41 444.848 193.288 444.681C193.165 444.513 192.999 444.25 192.787 443.891C192.552 443.498 192.189 442.967 191.699 442.298C190.231 440.289 188.293 439.395 185.885 439.615C183.452 439.801 180.763 440.971 177.818 443.125C175.14 445.083 173.74 447.314 173.619 449.817C173.464 452.345 174.28 454.83 176.066 457.274C176.752 458.211 177.482 458.858 178.257 459.216C178.999 459.598 179.755 459.508 180.525 458.945L204.474 441.433C205.679 440.551 206.466 439.591 206.836 438.55C207.205 437.509 207.054 436.284 206.383 434.874C206.067 434.232 205.878 433.728 205.816 433.362C205.754 432.997 205.84 432.728 206.075 432.557C206.276 432.41 206.507 432.446 206.77 432.665C207.066 432.859 207.374 433.174 207.692 433.609C208.353 434.513 208.833 435.24 209.133 435.791C209.409 436.309 209.677 436.781 209.937 437.207C210.14 437.624 210.473 438.15 210.938 438.786C211.55 439.623 212.134 440.352 212.691 440.972C213.189 441.584 213.717 442.2 214.273 442.82C214.805 443.407 215.402 444.153 216.063 445.056Z" fill="white"/>
<path d="M194.789 416.686C194.899 416.861 195.008 417.111 195.115 417.436C195.234 417.704 195.189 417.904 194.979 418.037C194.698 418.214 194.428 418.213 194.168 418.033C193.85 417.841 193.551 417.638 193.269 417.424C192.761 417.008 192.248 416.621 191.728 416.263C191.173 415.927 190.544 415.98 189.843 416.422L163.325 433.142C162.308 433.784 161.588 434.508 161.165 435.314C160.684 436.107 160.633 436.997 161.011 437.985C161.117 438.309 160.978 438.593 160.592 438.837C160.241 439.058 159.953 439.068 159.728 438.867C158.943 438.087 158.235 437.431 157.604 436.897C156.938 436.385 156.306 435.926 155.706 435.52C155.085 435.079 154.492 434.644 153.928 434.215C153.769 434.119 153.668 434.036 153.623 433.966C153.579 433.896 153.599 433.81 153.682 433.708C153.708 433.594 153.756 433.515 153.826 433.47C154.141 433.271 154.87 432.91 156.01 432.387C157.094 431.851 158.828 430.831 161.214 429.327L187.52 412.739C188.222 412.297 188.541 411.753 188.476 411.107C188.377 410.483 188.25 409.853 188.093 409.216C188.021 408.869 187.978 408.529 187.964 408.195C187.892 407.848 187.997 407.586 188.277 407.409C188.488 407.276 188.699 407.339 188.911 407.597C189.136 407.799 189.304 407.987 189.414 408.162C189.834 408.829 190.142 409.395 190.337 409.86C190.546 410.268 190.754 410.676 190.962 411.084C191.148 411.457 191.44 411.959 191.838 412.59C192.214 413.186 192.541 413.666 192.82 414.03C193.098 414.394 193.377 414.757 193.655 415.121C193.968 415.463 194.346 415.984 194.789 416.686Z" fill="white"/>
<path d="M180.572 392.299C181.57 394.35 181.937 396.384 181.674 398.403C181.411 400.422 180.575 402.304 179.165 404.051C177.717 405.815 175.782 407.287 173.358 408.466C171.195 409.518 169.002 409.986 166.778 409.869C164.498 409.732 162.418 409.107 160.539 407.992C158.659 406.878 157.248 405.351 156.305 403.412C155.579 401.92 155.234 400.451 155.268 399.005C155.302 397.559 155.706 396.256 156.479 395.096C157.197 393.917 158.245 392.992 159.625 392.321C160.781 391.758 161.631 392.037 162.175 393.155L167.916 404.957C168.17 405.479 168.501 405.779 168.908 405.858C169.259 405.918 169.845 405.748 170.666 405.349C172.456 404.478 173.906 403.288 175.017 401.78C176.09 400.289 176.757 398.674 177.017 396.933C177.239 395.211 176.97 393.567 176.208 392.001C175.664 390.882 174.969 389.975 174.124 389.28C173.223 388.565 172.19 388.053 171.025 387.744C170.766 387.685 170.599 387.628 170.526 387.571C170.415 387.533 170.332 387.458 170.278 387.346C170.133 387.048 170.247 386.808 170.62 386.627C171.328 386.282 172.274 386.237 173.459 386.491C174.439 386.705 175.381 387.077 176.284 387.606C177.187 388.135 177.996 388.803 178.71 389.608C179.462 390.395 180.083 391.292 180.572 392.299ZM166.128 405.689L163.652 400.599C163.216 399.704 162.826 398.948 162.48 398.333C162.135 397.717 161.761 397.138 161.359 396.596C161.231 396.427 161.064 396.37 160.86 396.423C160.6 396.458 160.283 396.565 159.911 396.747C158.829 397.273 158.151 398.202 157.877 399.534C157.548 400.847 157.7 402.157 158.335 403.462C158.752 404.319 159.43 405.05 160.37 405.654C161.272 406.276 162.232 406.685 163.249 406.881C164.267 407.078 165.149 406.995 165.895 406.632C166.268 406.451 166.345 406.136 166.128 405.689Z" fill="white"/>
<path d="M170.99 373.74C171.239 374.444 171.222 375.264 170.938 376.201C170.64 377.098 170.19 377.939 169.589 378.724C168.973 379.47 168.314 379.968 167.61 380.217C166.359 380.661 165.265 380.675 164.326 380.259C163.387 379.844 162.368 379.018 161.269 377.779L156.688 372.672C156.098 372.001 155.665 371.648 155.389 371.614C155.099 371.541 154.556 371.623 153.761 371.861L149.967 373.074C148.937 373.395 148.161 373.999 147.64 374.888C147.106 375.737 147.039 376.729 147.441 377.862C147.648 378.448 147.954 379 148.357 379.517C148.76 380.034 149.187 380.433 149.639 380.713C149.878 380.892 150.168 380.965 150.508 380.932C150.849 380.9 151.195 380.821 151.546 380.696C151.703 380.641 151.879 380.579 152.074 380.51C152.256 380.401 152.425 380.319 152.581 380.264C152.776 380.195 153.14 380.352 153.672 380.735C154.151 381.093 154.638 381.537 155.133 382.065C155.575 382.568 155.866 383.015 156.004 383.406C156.073 383.602 156.09 383.772 156.053 383.917C155.977 384.076 155.861 384.183 155.705 384.238C155.08 384.46 154.346 384.5 153.504 384.358C152.609 384.191 151.717 383.847 150.829 383.326C149.689 382.718 148.62 381.997 147.621 381.164C146.621 380.33 145.766 379.467 145.054 378.576C144.342 377.684 143.848 376.848 143.571 376.066C143.072 374.659 143.172 373.326 143.869 372.067C144.514 370.783 145.586 369.897 147.085 369.41L161.259 364.717C162.094 364.465 162.696 364.053 163.066 363.483C163.422 362.873 163.489 362.255 163.267 361.63C162.921 360.652 162.45 360.006 161.853 359.689C161.589 359.563 161.436 359.441 161.394 359.324C161.325 359.128 161.328 358.951 161.404 358.792C161.479 358.634 161.615 358.52 161.81 358.45C162.24 358.298 162.746 358.361 163.329 358.638C164.176 359.042 164.907 359.553 165.522 360.171C166.162 360.736 166.593 361.331 166.814 361.956C167.451 363.754 166.941 365.541 165.282 367.316L165.345 367.492C166.857 368.408 168.055 369.369 168.94 370.376C169.863 371.368 170.547 372.49 170.99 373.74ZM167.2 371.982C166.923 371.2 166.57 370.578 166.141 370.113C165.674 369.663 165.149 369.299 164.567 369.022C164.302 368.896 163.993 368.829 163.638 368.823C163.231 368.791 162.649 368.887 161.893 369.111L158.979 370.012C158.535 370.125 158.229 370.256 158.061 370.403C157.894 370.551 157.851 370.742 157.934 370.976C157.962 371.054 158.03 371.184 158.138 371.366C158.247 371.547 158.415 371.774 158.643 372.045C160.12 373.853 161.414 375.022 162.526 375.552C163.584 376.057 164.446 376.191 165.11 375.956C166.126 375.596 166.804 375.026 167.144 374.246C167.43 373.44 167.449 372.686 167.2 371.982Z" fill="white"/>
<path d="M161.429 346.809C161.745 348.055 161.839 349.272 161.712 350.459C161.626 351.636 161.337 352.693 160.847 353.63C160.456 353.943 159.753 354.292 158.739 354.677C157.714 355.022 156.865 355.302 156.192 355.515C155.83 355.607 155.583 355.391 155.451 354.869C155.41 354.708 155.414 354.557 155.464 354.416C155.464 354.245 155.539 354.119 155.689 354.038C157.527 353.017 158.725 351.836 159.284 350.497C159.833 349.117 159.959 347.845 159.664 346.679C159.369 345.513 158.737 344.625 157.77 344.015C156.752 343.374 155.66 343.202 154.495 343.497C153.409 343.772 152.576 344.368 151.996 345.285C151.375 346.212 150.731 347.723 150.064 349.817C149.566 351.397 149.042 352.706 148.493 353.744C147.943 354.782 147.317 355.603 146.615 356.209C145.902 356.774 145.044 357.184 144.039 357.439C142.753 357.765 141.51 357.759 140.313 357.421C139.115 357.082 138.062 356.387 137.153 355.334C136.204 354.291 135.501 352.865 135.043 351.056C134.737 349.85 134.603 348.815 134.641 347.95C134.678 347.085 134.787 346.415 134.966 345.942C135.327 345.509 135.964 345.069 136.878 344.624C137.741 344.148 138.595 343.804 139.439 343.59C139.721 343.518 139.912 343.684 140.014 344.086C140.075 344.327 140.096 344.578 140.077 344.84C140.007 345.071 139.902 345.248 139.762 345.369C138.568 346.227 137.731 347.145 137.251 348.122C136.721 349.069 136.604 350.126 136.899 351.291C137.154 352.296 137.684 353.124 138.491 353.776C139.287 354.387 140.268 354.544 141.434 354.249C142.359 354.015 143.111 353.525 143.692 352.779C144.263 351.992 144.807 350.678 145.324 348.836C146.06 346.169 146.868 344.124 147.749 342.704C148.579 341.253 149.939 340.288 151.828 339.809C153.998 339.259 155.976 339.635 157.76 340.937C159.544 342.239 160.767 344.196 161.429 346.809Z" fill="white"/>
<path d="M155.089 320.562C155.403 322.821 155.123 324.87 154.248 326.708C153.374 328.546 151.996 330.078 150.115 331.302C148.193 332.533 145.897 333.334 143.227 333.705C140.845 334.037 138.615 333.803 136.536 333.003C134.41 332.169 132.626 330.931 131.184 329.289C129.741 327.648 128.871 325.759 128.574 323.624C128.345 321.981 128.471 320.477 128.951 319.113C129.431 317.748 130.218 316.634 131.312 315.77C132.359 314.87 133.642 314.315 135.162 314.104C136.435 313.926 137.158 314.454 137.329 315.686L139.138 328.685C139.218 329.26 139.439 329.648 139.802 329.849C140.118 330.014 140.728 330.034 141.631 329.908C143.603 329.634 145.35 328.951 146.873 327.86C148.355 326.775 149.488 325.445 150.274 323.87C151.019 322.301 151.271 320.654 151.031 318.929C150.859 317.697 150.479 316.619 149.89 315.697C149.255 314.738 148.431 313.932 147.419 313.277C147.19 313.142 147.05 313.036 146.997 312.959C146.904 312.889 146.849 312.792 146.831 312.668C146.786 312.34 146.968 312.147 147.379 312.09C148.159 311.981 149.073 312.231 150.121 312.839C150.987 313.346 151.767 313.991 152.462 314.774C153.157 315.556 153.72 316.441 154.15 317.428C154.622 318.409 154.935 319.454 155.089 320.562ZM137.211 328.828L136.431 323.221C136.294 322.236 136.156 321.397 136.018 320.704C135.879 320.012 135.703 319.345 135.488 318.705C135.419 318.506 135.278 318.4 135.067 318.387C134.809 318.339 134.475 318.344 134.064 318.401C132.873 318.567 131.941 319.241 131.269 320.423C130.549 321.57 130.289 322.862 130.489 324.299C130.621 325.244 131.04 326.149 131.746 327.013C132.411 327.884 133.198 328.57 134.105 329.071C135.012 329.573 135.876 329.767 136.698 329.653C137.108 329.595 137.279 329.32 137.211 328.828Z" fill="white"/>
<path d="M160.994 305.394C161.051 306.138 160.852 306.528 160.397 306.562C160.232 306.575 160.061 306.526 159.887 306.414C159.75 306.258 159.65 306.037 159.586 305.751C159.31 304.857 158.889 303.974 158.323 303.103C157.758 302.231 156.975 301.522 155.977 300.974C155.02 300.423 153.818 300.204 152.371 300.314C151.875 300.352 151.334 300.622 150.749 301.124C150.122 301.63 149.815 302.236 149.827 302.942C149.814 303.858 149.58 304.603 149.125 305.179C148.667 305.713 148.107 306.005 147.445 306.056C146.618 306.119 145.911 305.84 145.323 305.22C144.731 304.558 144.401 303.772 144.331 302.863C144.218 301.374 144.703 300.11 145.788 299.071C146.829 297.993 148.217 297.388 149.954 297.255C151.525 297.135 152.954 297.338 154.242 297.863C155.571 298.385 156.727 299.087 157.709 299.968C158.692 300.85 159.47 301.788 160.046 302.784C160.618 303.738 160.934 304.608 160.994 305.394Z" fill="white"/>
<path d="M167.847 279.934C167.681 283.455 166.865 286.218 165.4 288.225C163.979 290.192 162.129 291.121 159.851 291.014C158.774 290.963 157.871 290.754 157.141 290.387C156.411 290.021 155.793 289.473 155.288 288.743C154.818 288.14 154.213 287.343 153.471 286.353C152.772 285.324 152.033 284.272 151.254 283.197L151.501 280.593C152.691 282.642 153.848 284.088 154.97 284.929C156.093 285.771 157.482 286.231 159.139 286.31C160.796 286.388 162.218 285.729 163.405 284.332C164.635 282.896 165.301 281.101 165.403 278.947C165.518 276.503 165.052 274.509 164.004 272.965C163.266 271.892 162.269 271.036 161.012 270.395C159.797 269.756 158.485 269.404 157.077 269.337C156.166 269.294 155.384 269.589 154.731 270.223C154.122 270.817 153.599 271.788 153.161 273.137C152.724 274.487 152.391 276.256 152.163 278.445C151.689 282.325 151.043 285.014 150.225 286.511C149.409 287.967 148.214 288.658 146.64 288.583C146.226 288.564 145.858 288.442 145.536 288.22C145.175 287.954 144.8 287.562 144.409 287.046C143.708 286.058 143.203 285.328 142.893 284.857C142.542 284.383 142.247 284.037 142.008 283.819C141.772 283.558 141.472 283.316 141.109 283.091L142.265 281.029C142.553 281.955 142.973 282.743 143.523 283.392C144.032 284.039 144.515 284.373 144.97 284.394C145.55 284.422 146.082 284.136 146.567 283.536C147.011 282.934 147.385 282.039 147.691 280.849C147.996 279.66 148.252 278.198 148.458 276.464C148.846 272.663 149.601 269.856 150.725 268.041C151.848 266.226 153.363 265.363 155.268 265.453C156.884 265.53 158.438 266.018 159.931 266.919C161.468 267.781 162.847 268.904 164.069 270.29C165.29 271.677 166.234 273.216 166.902 274.908C167.612 276.56 167.927 278.236 167.847 279.934ZM141.104 277.923C141.178 276.349 140.453 275.007 138.928 273.897C137.362 272.785 135.398 272.173 133.037 272.061C131.836 272.005 130.704 272.242 129.641 272.773C128.538 273.26 127.655 273.945 126.991 274.827C126.287 275.665 125.91 276.602 125.862 277.638C125.816 278.59 126.125 279.518 126.788 280.421C127.412 281.281 128.25 282.006 129.301 282.595C130.354 283.143 131.523 283.447 132.807 283.508C134.257 283.577 135.616 283.371 136.884 282.891C138.111 282.41 139.118 281.731 139.907 280.855C140.654 279.977 141.053 278.999 141.104 277.923ZM143.261 278.398C143.181 280.096 142.669 281.691 141.727 283.183C140.785 284.674 139.586 285.884 138.131 286.811C136.636 287.695 135.04 288.097 133.341 288.017C131.395 287.925 129.72 287.347 128.317 286.285C126.875 285.179 125.779 283.778 125.029 282.082C124.279 280.386 123.948 278.606 124.036 276.742C124.093 275.541 124.307 274.513 124.68 273.659C125.013 272.761 125.324 271.884 125.614 271.026C125.951 270.045 126.174 269.267 126.284 268.691C126.353 268.113 126.402 267.513 126.432 266.892C126.455 266.395 126.464 265.773 126.458 265.025C126.41 264.276 126.393 263.756 126.407 263.466C126.432 262.928 126.756 262.673 127.377 262.703C127.75 262.72 128.134 262.946 128.528 263.38C128.725 263.597 128.821 263.767 128.815 263.891L128.736 265.569C128.683 266.687 128.819 267.316 129.145 267.456C129.309 267.506 129.554 267.579 129.882 267.678C130.17 267.733 130.499 267.79 130.87 267.849C131.241 267.908 131.613 267.947 131.985 267.964C134.098 268.064 136.023 268.612 137.761 269.607C139.499 270.603 140.871 271.871 141.878 273.413C142.884 274.955 143.345 276.617 143.261 278.398Z" fill="white"/>
<path d="M152.489 248.257C152.134 250.51 151.271 252.389 149.9 253.894C148.529 255.399 146.766 256.464 144.61 257.089C142.413 257.708 139.984 257.807 137.321 257.387C134.946 257.012 132.879 256.141 131.122 254.772C129.331 253.356 127.983 251.653 127.08 249.663C126.176 247.674 125.893 245.614 126.229 243.484C126.487 241.845 127.044 240.443 127.9 239.277C128.756 238.11 129.832 237.273 131.13 236.764C132.393 236.208 133.783 236.049 135.298 236.288C136.568 236.489 137.106 237.203 136.912 238.432L134.866 251.396C134.776 251.969 134.875 252.405 135.164 252.702C135.418 252.952 135.996 253.148 136.897 253.29C138.863 253.601 140.733 253.455 142.508 252.853C144.241 252.245 145.712 251.302 146.921 250.023C148.089 248.739 148.809 247.236 149.081 245.516C149.275 244.287 149.224 243.145 148.928 242.091C148.599 240.99 148.044 239.979 147.266 239.058C147.087 238.862 146.984 238.72 146.956 238.631C146.887 238.537 146.862 238.428 146.881 238.305C146.933 237.977 147.164 237.846 147.573 237.91C148.351 238.033 149.153 238.537 149.979 239.423C150.66 240.161 151.22 241.004 151.658 241.955C152.095 242.906 152.377 243.916 152.502 244.985C152.668 246.061 152.664 247.151 152.489 248.257ZM132.981 250.972L133.863 245.381C134.019 244.398 134.131 243.555 134.199 242.853C134.268 242.15 134.293 241.461 134.274 240.786C134.265 240.575 134.162 240.433 133.963 240.359C133.73 240.239 133.409 240.146 133 240.081C131.812 239.894 130.724 240.268 129.737 241.204C128.715 242.092 128.091 243.253 127.865 244.687C127.716 245.629 127.854 246.616 128.279 247.649C128.663 248.675 129.216 249.559 129.938 250.303C130.661 251.047 131.431 251.483 132.25 251.613C132.66 251.677 132.904 251.464 132.981 250.972Z" fill="white"/>
<path d="M156.554 223.839C156.062 225.81 155.073 227.209 153.585 228.034C152.107 228.819 150.181 228.916 147.807 228.324L133.806 224.831C133.484 224.751 133.232 224.817 133.051 225.028C132.83 225.229 132.619 225.732 132.419 226.537L132.328 226.899C132.278 227.1 132.112 227.251 131.831 227.352C131.519 227.402 131.222 227.392 130.941 227.322C130.86 227.302 130.755 227.211 130.624 227.051C130.493 226.89 130.412 226.784 130.382 226.734C130.02 225.789 129.637 224.924 129.234 224.14C128.842 223.315 128.449 222.576 128.056 221.923C127.634 221.219 127.246 220.631 126.894 220.158C126.743 219.907 126.622 219.706 126.532 219.555C126.411 219.354 126.375 219.153 126.426 218.952C126.476 218.751 126.561 218.58 126.682 218.439C126.812 218.258 127.014 218.222 127.285 218.333L129.926 219.312C130.358 219.463 130.685 219.437 130.906 219.236C131.127 219.035 131.303 218.673 131.434 218.15L133.15 211.27C133.19 211.109 133.366 211.003 133.678 210.953C133.949 210.892 134.266 210.907 134.628 210.997C134.99 211.088 135.337 211.238 135.669 211.449C135.961 211.65 136.087 211.831 136.047 211.992L134.556 217.967C134.305 218.973 134.22 219.657 134.301 220.019C134.392 220.34 134.839 220.602 135.644 220.802L147.533 223.768C149.142 224.17 150.495 224.144 151.591 223.691C152.687 223.237 153.396 222.367 153.717 221.08C154.008 219.913 154.153 218.988 154.153 218.304C154.112 217.61 153.976 216.956 153.744 216.343C153.684 216.242 153.664 216.152 153.684 216.071C153.724 215.91 153.85 215.835 154.061 215.845C154.242 215.804 154.433 215.809 154.634 215.859C154.835 215.91 155.152 216.352 155.585 217.187C156.028 217.981 156.376 218.986 156.628 220.203C156.89 221.38 156.865 222.592 156.554 223.839Z" fill="white"/>
<path d="M163.471 195.829C163.332 196.175 163.159 196.441 162.951 196.625C162.796 196.787 162.604 196.821 162.373 196.729C162.065 196.605 161.907 196.386 161.9 196.07C161.908 195.716 161.935 195.369 161.982 195.031C162.114 194.145 162.13 193.437 162.03 192.905C161.892 192.359 161.477 191.946 160.784 191.668L148.257 186.643C147.218 186.226 146.217 186.048 145.255 186.108C144.308 186.131 143.556 186.611 143.001 187.55C142.885 187.727 142.747 187.85 142.585 187.919C142.438 187.95 142.25 187.919 142.019 187.826C141.596 187.656 141.434 187.39 141.535 187.029C141.806 185.35 141.854 183.895 141.678 182.663C141.463 181.415 141.264 180.464 141.08 179.809C140.95 179.355 140.923 179.031 141 178.839C141.093 178.608 141.235 178.531 141.428 178.608C141.736 178.732 142.328 179.037 143.205 179.523C144.06 179.955 145.029 180.433 146.115 180.958C147.161 181.467 148.127 181.899 149.012 182.254L162.405 187.627C163.06 187.89 163.626 187.871 164.103 187.571C164.596 187.233 165.094 186.718 165.595 186.025C165.795 185.748 166.007 185.498 166.231 185.275C166.47 185.013 166.743 184.944 167.051 185.068C167.474 185.238 167.532 185.707 167.223 186.477C166.93 187.208 166.652 187.789 166.39 188.22C166.181 188.628 165.973 189.036 165.765 189.444C165.572 189.814 165.336 190.345 165.058 191.037C164.796 191.692 164.599 192.238 164.468 192.677C164.336 193.116 164.205 193.554 164.074 193.993C163.981 194.447 163.78 195.059 163.471 195.829ZM135.363 179.191C135.039 180 134.492 180.584 133.721 180.945C132.928 181.253 132.127 181.244 131.319 180.92C130.472 180.58 129.888 180.033 129.565 179.278C129.219 178.469 129.209 177.66 129.533 176.852C129.872 176.006 130.439 175.429 131.232 175.121C132.003 174.76 132.811 174.75 133.658 175.089C134.466 175.414 135.043 175.98 135.389 176.789C135.711 177.544 135.703 178.345 135.363 179.191Z" fill="white"/>
<path d="M168.758 178.047C168.57 178.369 168.359 178.606 168.126 178.758C167.95 178.896 167.755 178.901 167.54 178.776C167.253 178.609 167.137 178.397 167.191 178.14C167.209 177.863 167.279 177.495 167.402 177.039C167.572 176.418 167.678 175.784 167.72 175.136C167.762 174.488 167.425 173.956 166.709 173.537L155.159 166.796C154.192 166.232 153.306 165.858 152.5 165.676C151.715 165.458 150.926 165.741 150.131 166.526C149.976 166.627 149.831 166.711 149.697 166.777C149.527 166.821 149.334 166.781 149.119 166.656C148.726 166.426 148.605 166.139 148.757 165.796C149.166 164.354 149.368 163.104 149.363 162.044C149.357 160.984 149.287 159.911 149.153 158.825C149.144 158.676 149.143 158.555 149.149 158.462C149.14 158.313 149.167 158.185 149.229 158.077C149.271 158.006 149.338 157.973 149.431 157.979C149.544 157.949 149.655 157.965 149.762 158.028C150.013 158.174 150.501 158.531 151.226 159.099C151.936 159.609 152.542 160.011 153.043 160.303C153.187 160.387 153.33 160.471 153.473 160.554C153.601 160.581 153.694 160.587 153.751 160.572C153.3 158.629 153.179 156.781 153.385 155.029C153.612 153.241 154.217 151.506 155.2 149.823C156.224 148.068 157.787 147.036 159.888 146.726C161.99 146.416 164.097 146.878 166.21 148.111L177.652 154.79C178.368 155.208 178.998 155.239 179.541 154.884C180.049 154.508 180.549 154.104 181.041 153.671C181.316 153.448 181.598 153.252 181.888 153.085C182.162 152.861 182.443 152.833 182.729 153C182.944 153.126 182.996 153.324 182.886 153.596C182.811 153.888 182.711 154.142 182.586 154.357C182.168 155.073 181.808 155.607 181.506 155.959C181.241 156.332 180.985 156.688 180.74 157.025C180.496 157.362 180.185 157.853 179.809 158.498C179.453 159.106 179.179 159.618 178.984 160.033C178.79 160.448 178.586 160.881 178.371 161.331C178.212 161.767 177.924 162.343 177.506 163.059C177.402 163.238 177.23 163.45 176.991 163.695C176.809 163.925 176.61 163.977 176.396 163.851C176.109 163.684 175.985 163.444 176.024 163.13C176.048 162.76 176.09 162.401 176.15 162.051C176.284 161.41 176.39 160.775 176.468 160.149C176.51 159.501 176.173 158.968 175.457 158.55L164.176 151.965C162.6 151.046 161.121 150.783 159.739 151.176C158.342 151.513 157.197 152.405 156.304 153.853C155.552 155.142 155.108 156.395 154.974 157.613C154.803 158.81 154.803 159.962 154.973 161.07C155.032 161.296 155.167 161.519 155.376 161.737C155.549 161.934 155.743 162.095 155.957 162.22L168.904 169.777C169.62 170.195 170.25 170.227 170.793 169.872C171.336 169.517 171.836 169.112 172.293 168.659C172.989 167.961 173.516 167.716 173.874 167.925C174.089 168.05 174.18 168.224 174.147 168.444C174.15 168.686 174.047 168.986 173.838 169.344C173.419 170.06 173.049 170.613 172.727 171C172.461 171.374 172.206 171.729 171.961 172.066C171.716 172.403 171.405 172.894 171.029 173.539C170.674 174.147 170.399 174.659 170.205 175.074C170.032 175.453 169.838 175.868 169.623 176.319C169.464 176.754 169.176 177.33 168.758 178.047Z" fill="white"/>
<path d="M201.402 127.168C200.116 128.741 198.624 129.584 196.926 129.695C195.255 129.775 193.471 129.041 191.577 127.493L180.403 118.361C180.146 118.152 179.891 118.104 179.637 118.217C179.351 118.305 178.946 118.67 178.421 119.312L178.185 119.601C178.054 119.762 177.84 119.828 177.542 119.799C177.238 119.711 176.974 119.576 176.75 119.392C176.685 119.34 176.628 119.213 176.579 119.011C176.529 118.81 176.501 118.68 176.495 118.622C176.571 117.612 176.593 116.667 176.564 115.786C176.56 114.873 176.52 114.037 176.444 113.278C176.362 112.462 176.262 111.764 176.145 111.187C176.116 110.895 176.092 110.662 176.075 110.486C176.051 110.253 176.105 110.056 176.236 109.896C176.368 109.735 176.518 109.617 176.687 109.541C176.882 109.433 177.079 109.487 177.278 109.702L179.248 111.714C179.575 112.035 179.882 112.152 180.168 112.064C180.454 111.976 180.767 111.724 181.108 111.306L185.595 105.816C185.7 105.687 185.904 105.667 186.208 105.754C186.479 105.815 186.759 105.964 187.048 106.2C187.337 106.436 187.587 106.721 187.797 107.053C187.975 107.359 188.012 107.577 187.907 107.705L184.01 112.473C183.354 113.276 182.986 113.858 182.904 114.22C182.849 114.55 183.142 114.977 183.785 115.502L193.273 123.256C194.557 124.305 195.791 124.859 196.976 124.916C198.161 124.974 199.173 124.489 200.012 123.462C200.773 122.531 201.299 121.756 201.591 121.137C201.85 120.492 202.006 119.843 202.058 119.189C202.046 119.072 202.067 118.982 202.119 118.918C202.224 118.789 202.37 118.775 202.557 118.874C202.738 118.915 202.908 119.001 203.069 119.132C203.229 119.263 203.327 119.798 203.363 120.738C203.425 121.645 203.31 122.703 203.019 123.911C202.754 125.087 202.215 126.172 201.402 127.168Z" fill="white"/>
<path d="M218.02 107.195C216.316 108.773 214.413 109.799 212.312 110.276C210.21 110.752 208.114 110.686 206.025 110.077C203.938 109.41 202.078 108.193 200.444 106.428C199.261 105.15 198.35 103.677 197.71 102.009C197.1 100.313 196.787 98.5406 196.771 96.6914C196.754 94.8421 197.087 93.065 197.769 91.3601C198.423 89.6248 199.45 88.1092 200.849 86.8135C202.614 85.1798 204.591 84.141 206.78 83.6973C208.999 83.2255 211.167 83.3092 213.284 83.9485C215.404 84.5292 217.224 85.6412 218.745 87.2844C220.379 89.0494 221.533 91.0893 222.206 93.404C222.91 95.6906 222.966 98.0403 222.374 100.453C221.754 102.835 220.303 105.082 218.02 107.195ZM217.711 104.938C218.746 103.981 219.491 102.924 219.946 101.768C220.402 100.611 220.449 99.3809 220.089 98.0759C219.806 97.038 219.261 95.9606 218.453 94.8437C217.645 93.7268 216.833 92.7271 216.016 91.8446C214.664 90.3839 213.095 89.2376 211.307 88.4057C209.522 87.5152 207.749 87.0946 205.986 87.1439C204.226 87.1346 202.692 87.7356 201.383 88.9468C200.562 89.7073 199.943 90.5344 199.527 91.428C199.113 92.263 198.956 93.2839 199.056 94.4908C199.152 95.815 199.616 97.1093 200.447 98.3738C201.278 99.6383 202.201 100.818 203.215 101.914C204.596 103.405 206.193 104.582 208.009 105.444C209.796 106.276 211.555 106.681 213.287 106.66C215.019 106.639 216.494 106.065 217.711 104.938Z" fill="white"/>
<path d="M249.832 79.819C249.592 79.9822 249.379 79.9266 249.192 79.6522C248.959 79.3093 248.655 78.7887 248.281 78.0904C247.918 77.3346 247.585 76.7337 247.282 76.2879C247.235 76.2193 247.2 76.1679 247.177 76.1336C247.13 76.065 247.095 76.0135 247.072 75.9792C246.62 78.1915 245.906 80.0553 244.931 81.5707C243.966 83.0284 242.678 84.3051 241.066 85.4006C239.969 86.1464 238.811 86.5823 237.593 86.7082C236.398 86.8684 235.241 86.6774 234.12 86.1354C232.976 85.559 231.95 84.6021 231.041 83.2645L223.944 72.8215C223.431 72.067 222.851 71.5834 222.206 71.3706C221.56 71.1578 220.737 71.1652 219.739 71.3926C219.521 71.4406 219.308 71.4597 219.101 71.4501C218.894 71.4404 218.697 71.2984 218.511 71.024C218.301 70.7154 218.23 70.463 218.297 70.2669C218.398 70.0475 218.54 69.8507 218.723 69.6765C219.842 68.8154 220.676 68.1237 221.223 67.6012C221.781 67.0212 222.459 66.2848 223.256 65.3921C223.336 65.2879 223.393 65.2241 223.427 65.2008C223.496 65.1542 223.564 65.1076 223.633 65.061C224.01 64.8046 224.345 64.9281 224.637 65.4316C225.07 66.2903 225.439 67.0173 225.743 67.6127C226.058 68.1504 226.484 68.8137 227.02 69.6025L233.838 79.634C234.397 80.457 235.128 81.0889 236.029 81.5294C236.906 81.9356 237.822 82.1402 238.777 82.1431C239.766 82.1228 240.621 81.8679 241.341 81.3784C242.232 80.7724 242.969 80.1965 243.551 79.6508C244.167 79.0817 244.638 78.3357 244.963 77.4127C245.154 76.882 245.331 76.1098 245.494 75.0962C245.658 74.0827 245.378 73.0443 244.656 71.9811L238.257 62.567C237.768 61.8468 237.184 61.4667 236.505 61.4268C235.837 61.3292 235.182 61.3983 234.54 61.634C233.898 61.8698 233.406 62.1042 233.063 62.3373C232.754 62.5471 232.462 62.6705 232.186 62.7074C231.887 62.7101 231.621 62.5399 231.388 62.197C231.178 61.8883 231.141 61.6126 231.277 61.3699C231.447 61.1038 231.669 60.8776 231.944 60.6911C232.984 59.9342 233.835 59.3056 234.497 58.8051C235.171 58.2471 235.747 57.7301 236.226 57.2543C236.716 56.7209 237.211 56.1586 237.712 55.5676C237.757 55.4867 237.831 55.4113 237.934 55.3413C238.014 55.2371 238.088 55.1617 238.156 55.1151C238.602 54.8121 238.953 54.8492 239.21 55.2265C239.233 55.2608 239.263 55.341 239.298 55.4672C239.345 55.5358 239.386 55.6332 239.422 55.7594C239.457 55.8856 239.604 56.212 239.862 56.7388C240.154 57.2423 240.44 57.7745 240.721 58.3356C241.037 58.8733 241.287 59.2793 241.474 59.5537L249.55 71.4372C250.18 72.3631 250.72 72.9736 251.171 73.2686C251.633 73.506 251.984 73.5432 252.224 73.38C252.499 73.1935 252.881 72.9083 253.373 72.5244C253.875 72.0829 254.246 71.7805 254.486 71.6174C254.657 71.5008 254.852 71.4186 255.07 71.3707C255.288 71.3227 255.502 71.4531 255.712 71.7617C255.898 72.0361 255.958 72.2713 255.891 72.4674C255.8 72.6293 255.664 72.7973 255.481 72.9714C254.26 74.0519 253.286 75.09 252.559 76.0856C251.832 77.0811 251.196 77.9897 250.651 78.8111C250.572 78.9153 250.452 79.0716 250.293 79.2801C250.157 79.5228 250.004 79.7025 249.832 79.819Z" fill="white"/>
<path d="M271.135 65.2877C269.299 66.2505 267.387 66.6675 265.4 66.5389C263.431 66.3542 261.581 65.6851 259.853 64.5313C258.142 63.3216 256.757 61.7067 255.698 59.6869C254.446 57.2998 253.824 54.8634 253.832 52.3779C253.876 49.873 254.481 47.5893 255.647 45.5266C256.794 43.4271 258.432 41.819 260.562 40.7022C262.949 39.4506 265.38 38.9957 267.853 39.3376C268.467 39.4371 268.87 39.6704 269.063 40.0377C269.217 40.3315 269.262 40.7294 269.197 41.2314C269.133 41.7335 268.984 42.2093 268.752 42.6589C268.5 43.0718 268.209 43.3649 267.878 43.5382C267.695 43.6345 267.482 43.6757 267.241 43.6618C266.98 43.6112 266.701 43.5702 266.404 43.5388C265.269 43.3381 264.061 43.2222 262.78 43.1912C261.5 43.1603 260.529 43.3181 259.868 43.6647C258.069 44.6082 257.043 46.2231 256.79 48.5093C256.555 50.7396 257.149 53.2135 258.574 55.9312C259.479 57.6572 260.665 59.0255 262.131 60.0359C263.634 61.0271 265.222 61.5993 266.894 61.7526C268.603 61.8866 270.229 61.5493 271.771 60.7405C272.836 60.1821 273.667 59.5355 274.265 58.8006C274.844 58.029 275.343 56.9714 275.762 55.6279C275.797 55.516 275.86 55.4127 275.951 55.3182C276.023 55.187 276.095 55.1022 276.169 55.0637C276.573 54.8518 276.91 55.003 277.179 55.5172C277.295 55.7375 277.356 56.0331 277.363 56.4039C277.388 56.7188 277.349 57.1368 277.248 57.6581C277.046 58.7007 276.685 59.7092 276.166 60.6837C275.627 61.6215 274.93 62.4788 274.073 63.2558C273.253 64.0135 272.274 64.6908 271.135 65.2877Z" fill="white"/>
<path d="M285.627 54.9542C284.846 55.2312 284.379 55.1547 284.226 54.7248C284.102 54.373 284.44 53.9011 285.242 53.3089C285.759 52.9057 286.217 52.4578 286.614 51.965C287.05 51.4585 287.149 50.8074 286.912 50.0118L276.503 20.6394C276.129 19.5841 275.628 18.7279 274.999 18.0709C274.356 17.3748 273.499 17.1286 272.428 17.3323C272.048 17.3788 271.775 17.1675 271.609 16.6985C271.484 16.3467 271.558 16.0569 271.829 15.8288C272.307 15.4395 272.876 14.996 273.535 14.4983C274.234 13.9868 274.945 13.4488 275.669 12.8843C276.379 12.2808 276.998 11.7314 277.526 11.2362C277.655 11.1027 277.758 11.022 277.837 10.9943C277.954 10.9528 278.065 10.9572 278.171 11.0077C278.277 11.0582 278.351 11.142 278.392 11.2593C278.475 11.4938 278.535 11.8468 278.57 12.3183C278.644 12.7759 278.829 13.5463 279.125 14.6293C279.42 15.7123 279.942 17.309 280.69 19.4196L284.305 29.6208C284.527 30.2462 284.705 30.6888 284.842 30.9485C285.017 31.1944 285.231 31.4264 285.484 31.6446C285.943 30.954 286.525 30.1758 287.23 29.3101C287.961 28.3914 288.816 27.5163 289.798 26.6847C290.779 25.8531 291.875 25.2226 293.087 24.7932C295.002 24.1146 296.855 24.3158 298.646 25.3969C300.462 26.4251 301.779 28.0922 302.596 30.3982L306.959 42.71C307.236 43.4917 307.697 43.988 308.344 44.1988C308.977 44.3705 309.621 44.4501 310.276 44.4378C310.748 44.4027 311.129 44.4218 311.418 44.495C311.695 44.5292 311.874 44.6635 311.957 44.898C312.11 45.328 311.795 45.6814 311.013 45.9584C310.231 46.2354 309.612 46.411 309.154 46.4852C308.749 46.5846 308.345 46.6841 307.94 46.7835C307.574 46.869 307.04 47.0365 306.336 47.2858C305.672 47.5212 305.151 47.7278 304.774 47.9054C304.397 48.0829 304.001 48.2674 303.585 48.4589C303.221 48.6756 302.649 48.9224 301.867 49.1994C301.086 49.4764 300.619 49.3999 300.466 48.97C300.369 48.6964 300.424 48.479 300.631 48.3177C300.824 48.1174 301.108 47.8628 301.482 47.5541C301.999 47.151 302.43 46.6904 302.774 46.1724C303.105 45.6154 303.132 44.946 302.855 44.1643L298.616 32.2042C298.27 31.2271 297.665 30.4516 296.802 29.8776C295.964 29.2507 295.052 28.8482 294.065 28.6701C293.078 28.4919 292.154 28.5552 291.294 28.8599C290.552 29.123 289.733 29.545 288.839 30.1258C287.931 30.6674 287.28 31.2502 286.885 31.874C286.44 32.6037 286.197 33.2838 286.156 33.914C286.155 34.5305 286.369 35.4445 286.798 36.6562L291.016 48.5576C291.332 49.3254 291.76 49.7895 292.301 49.9498C292.881 50.0963 293.498 50.1634 294.154 50.151C294.625 50.116 294.986 50.142 295.237 50.229C295.513 50.2632 295.693 50.3975 295.776 50.632C295.928 51.062 295.614 51.4154 294.832 51.6924C294.05 51.9695 293.45 52.1381 293.032 52.1985C292.627 52.2979 292.242 52.3904 291.876 52.4759C291.51 52.5615 290.976 52.7289 290.272 52.9783C289.608 53.2137 289.068 53.4271 288.652 53.6186C288.275 53.7962 287.858 53.9876 287.403 54.1929C287.001 54.4234 286.409 54.6772 285.627 54.9542Z" fill="white"/>
<path d="M321.812 42.9193C320.934 43.1661 320.066 43.0654 319.207 42.6174C318.378 42.1182 317.84 41.4295 317.593 40.5513C317.335 39.6331 317.436 38.7649 317.895 37.9467C318.394 37.1173 319.083 36.5792 319.961 36.3324C320.879 36.0744 321.747 36.175 322.566 36.6343C323.384 37.0935 323.922 37.7823 324.18 38.7004C324.427 39.5787 324.326 40.4469 323.878 41.305C323.419 42.1232 322.73 42.6613 321.812 42.9193Z" fill="white"/>
<path d="M579.015 103.826C578.686 103.399 578.469 103.016 578.365 102.677C578.229 102.364 578.259 102.131 578.456 101.979C578.85 101.675 579.563 101.99 580.596 102.922C581.787 103.993 582.861 104.605 583.817 104.759C584.798 104.945 585.896 104.57 587.111 103.633L607.904 87.613C609.382 86.4741 610.363 85.4039 610.848 84.4023C611.358 83.4336 611.247 82.2366 610.515 80.8112C610.183 80.1769 609.998 79.665 609.96 79.2757C609.922 78.8864 610.018 78.6031 610.248 78.426C610.445 78.2741 610.677 78.3043 610.946 78.5165C611.247 78.7033 611.562 79.0102 611.891 79.4372C612.574 80.3241 613.08 80.9811 613.409 81.4081C613.764 81.868 614.076 82.3076 614.347 82.7271C614.651 83.1213 615.056 83.6468 615.562 84.3038C616.068 84.9607 616.591 85.605 617.13 86.2367C617.727 86.8758 618.27 87.4784 618.758 88.0443C619.279 88.585 619.717 89.0852 620.071 89.5451C622.957 93.2897 624.5 96.89 624.703 100.346C624.931 103.835 623.665 106.642 620.906 108.768C618.902 110.312 616.742 111.348 614.427 111.875C612.144 112.378 609.861 112.2 607.578 111.342C605.319 110.517 603.216 108.84 601.267 106.311C600.71 105.588 600.378 104.954 600.272 104.408C600.223 103.87 600.297 103.524 600.495 103.372C600.626 103.271 600.837 103.239 601.128 103.277C601.444 103.348 601.665 103.465 601.792 103.629C601.918 103.794 602.092 104.053 602.312 104.406C602.558 104.793 602.933 105.315 603.44 105.972C604.958 107.943 606.918 108.788 609.32 108.508C611.747 108.261 614.405 107.024 617.296 104.796C619.924 102.772 621.267 100.507 621.326 98.0011C621.417 95.4703 620.539 93.0059 618.692 90.608C617.983 89.6883 617.237 89.0594 616.453 88.7212C615.702 88.3577 614.948 88.467 614.193 89.0491L590.69 107.157C589.508 108.069 588.745 109.049 588.402 110.098C588.059 111.148 588.241 112.369 588.947 113.761C589.279 114.396 589.481 114.895 589.552 115.259C589.623 115.623 589.543 115.894 589.313 116.071C589.116 116.223 588.884 116.192 588.615 115.98C588.314 115.793 587.999 115.486 587.67 115.059C586.987 114.173 586.488 113.457 586.175 112.914C585.886 112.404 585.606 111.939 585.335 111.519C585.123 111.107 584.776 110.589 584.295 109.965C583.662 109.144 583.06 108.43 582.488 107.824C581.974 107.225 581.432 106.622 580.86 106.016C580.313 105.443 579.698 104.713 579.015 103.826Z" fill="white"/>
<path d="M600.994 131.653C600.879 131.481 600.765 131.233 600.65 130.911C600.523 130.647 600.563 130.445 600.771 130.308C601.047 130.124 601.317 130.118 601.581 130.291C601.903 130.475 602.208 130.67 602.495 130.877C603.013 131.28 603.536 131.654 604.065 131.999C604.628 132.321 605.255 132.253 605.945 131.793L632.035 114.412C633.035 113.745 633.737 113.003 634.14 112.187C634.6 111.382 634.629 110.491 634.227 109.513C634.112 109.191 634.244 108.904 634.624 108.651C634.969 108.421 635.257 108.404 635.487 108.599C636.291 109.359 637.016 109.997 637.66 110.515C638.338 111.01 638.982 111.452 639.591 111.844C640.224 112.269 640.827 112.689 641.402 113.104C641.563 113.196 641.667 113.276 641.713 113.345C641.759 113.414 641.741 113.501 641.661 113.604C641.638 113.719 641.592 113.799 641.523 113.845C641.212 114.052 640.493 114.432 639.366 114.983C638.296 115.547 636.588 116.61 634.242 118.173L608.359 135.416C607.669 135.876 607.364 136.428 607.445 137.072C607.559 137.693 607.703 138.32 607.875 138.953C607.956 139.298 608.007 139.637 608.03 139.97C608.111 140.315 608.013 140.58 607.737 140.764C607.53 140.902 607.317 140.844 607.098 140.591C606.869 140.396 606.696 140.212 606.581 140.039C606.144 139.383 605.822 138.825 605.616 138.365C605.397 137.963 605.179 137.56 604.96 137.158C604.765 136.789 604.46 136.295 604.047 135.674C603.656 135.087 603.317 134.615 603.029 134.259C602.742 133.902 602.454 133.546 602.167 133.189C601.845 132.855 601.454 132.343 600.994 131.653Z" fill="white"/>
<path d="M615.818 155.676C614.77 153.65 614.351 151.626 614.564 149.601C614.776 147.576 615.565 145.674 616.931 143.892C618.333 142.092 620.231 140.572 622.625 139.332C624.76 138.226 626.941 137.704 629.168 137.765C631.45 137.844 633.545 138.417 635.452 139.484C637.358 140.551 638.808 142.042 639.799 143.957C640.562 145.43 640.944 146.889 640.946 148.336C640.948 149.783 640.578 151.095 639.834 152.274C639.146 153.471 638.121 154.422 636.759 155.128C635.617 155.719 634.76 155.462 634.188 154.358L628.153 142.704C627.886 142.188 627.548 141.896 627.139 141.828C626.786 141.777 626.204 141.962 625.394 142.381C623.627 143.296 622.207 144.522 621.134 146.058C620.099 147.575 619.473 149.207 619.257 150.953C619.077 152.681 619.388 154.317 620.189 155.864C620.761 156.969 621.478 157.858 622.341 158.532C623.26 159.224 624.305 159.709 625.477 159.99C625.738 160.042 625.905 160.095 625.98 160.149C626.092 160.185 626.177 160.258 626.234 160.368C626.386 160.663 626.279 160.905 625.91 161.096C625.211 161.459 624.266 161.528 623.076 161.303C622.09 161.113 621.139 160.765 620.223 160.259C619.307 159.753 618.482 159.106 617.748 158.319C616.976 157.551 616.333 156.67 615.818 155.676ZM629.922 141.927L632.525 146.953C632.983 147.837 633.392 148.582 633.753 149.189C634.114 149.796 634.503 150.366 634.918 150.898C635.05 151.063 635.218 151.116 635.421 151.057C635.68 151.017 635.994 150.901 636.362 150.71C637.43 150.157 638.084 149.211 638.325 147.873C638.621 146.552 638.436 145.247 637.768 143.958C637.33 143.111 636.634 142.398 635.679 141.818C634.762 141.219 633.792 140.834 632.77 140.663C631.747 140.492 630.868 140.597 630.131 140.978C629.763 141.169 629.694 141.485 629.922 141.927Z" fill="white"/>
<path d="M625.864 173.988C625.597 173.29 625.594 172.47 625.854 171.527C626.129 170.622 626.558 169.77 627.139 168.97C627.736 168.209 628.383 167.695 629.08 167.428C630.319 166.953 631.413 166.912 632.362 167.303C633.312 167.695 634.351 168.496 635.48 169.706L640.189 174.697C640.795 175.353 641.236 175.694 641.513 175.721C641.805 175.787 642.345 175.691 643.135 175.434L646.897 174.126C647.919 173.78 648.679 173.156 649.177 172.254C649.691 171.392 649.732 170.399 649.302 169.276C649.08 168.695 648.761 168.151 648.345 167.644C647.929 167.138 647.492 166.75 647.033 166.481C646.79 166.308 646.498 166.242 646.158 166.284C645.819 166.325 645.475 166.412 645.126 166.545C644.972 166.605 644.797 166.672 644.604 166.746C644.425 166.859 644.258 166.945 644.103 167.004C643.91 167.078 643.542 166.93 643.001 166.56C642.513 166.214 642.015 165.783 641.507 165.267C641.052 164.775 640.75 164.336 640.602 163.949C640.528 163.755 640.507 163.585 640.54 163.439C640.612 163.279 640.725 163.169 640.88 163.109C641.5 162.872 642.232 162.814 643.078 162.934C643.977 163.078 644.877 163.4 645.778 163.898C646.932 164.478 648.019 165.171 649.039 165.98C650.059 166.788 650.936 167.629 651.67 168.502C652.404 169.376 652.92 170.2 653.216 170.974C653.75 172.368 653.684 173.704 653.018 174.98C652.406 176.28 651.356 177.192 649.87 177.717L635.818 182.764C634.99 183.037 634.398 183.463 634.043 184.043C633.703 184.662 633.651 185.281 633.888 185.901C634.259 186.869 634.746 187.504 635.35 187.805C635.618 187.925 635.774 188.043 635.819 188.159C635.893 188.352 635.894 188.53 635.822 188.69C635.751 188.851 635.618 188.968 635.424 189.042C634.998 189.206 634.491 189.156 633.902 188.893C633.045 188.51 632.301 188.018 631.671 187.416C631.017 186.867 630.571 186.283 630.334 185.663C629.652 183.882 630.118 182.083 631.731 180.266L631.664 180.092C630.129 179.214 628.907 178.284 627.998 177.3C627.049 176.331 626.338 175.227 625.864 173.988ZM629.697 175.65C629.994 176.425 630.362 177.038 630.802 177.492C631.281 177.93 631.814 178.281 632.403 178.543C632.671 178.663 632.982 178.721 633.337 178.719C633.744 178.74 634.324 178.63 635.074 178.387L637.965 177.413C638.406 177.289 638.708 177.151 638.872 176.999C639.036 176.848 639.074 176.656 638.985 176.423C638.955 176.346 638.884 176.218 638.771 176.039C638.658 175.86 638.484 175.638 638.249 175.373C636.728 173.602 635.405 172.466 634.28 171.964C633.209 171.486 632.344 171.373 631.686 171.625C630.679 172.011 630.016 172.598 629.696 173.386C629.43 174.198 629.43 174.953 629.697 175.65Z" fill="white"/>
<path d="M636.098 200.67C635.751 199.433 635.626 198.219 635.723 197.029C635.78 195.85 636.042 194.786 636.508 193.837C636.891 193.515 637.585 193.148 638.59 192.737C639.606 192.366 640.447 192.066 641.115 191.836C641.474 191.735 641.727 191.944 641.872 192.463C641.917 192.623 641.916 192.774 641.87 192.916C641.875 193.087 641.803 193.215 641.654 193.299C639.843 194.367 638.675 195.577 638.15 196.93C637.636 198.323 637.541 199.598 637.866 200.756C638.19 201.914 638.844 202.786 639.826 203.372C640.86 203.987 641.955 204.132 643.113 203.807C644.191 203.505 645.009 202.888 645.566 201.957C646.163 201.015 646.769 199.488 647.384 197.378C647.842 195.786 648.332 194.464 648.856 193.413C649.38 192.362 649.985 191.525 650.672 190.901C651.369 190.318 652.217 189.887 653.216 189.607C654.493 189.249 655.735 189.224 656.941 189.532C658.147 189.84 659.217 190.509 660.152 191.539C661.127 192.558 661.866 193.966 662.369 195.762C662.705 196.96 662.865 197.992 662.849 198.858C662.833 199.723 662.742 200.395 662.574 200.873C662.224 201.315 661.598 201.77 660.696 202.239C659.845 202.736 659 203.102 658.162 203.337C657.882 203.415 657.686 203.254 657.574 202.855C657.507 202.616 657.48 202.365 657.493 202.103C657.557 201.87 657.657 201.691 657.795 201.566C658.967 200.678 659.78 199.739 660.235 198.75C660.741 197.79 660.832 196.731 660.508 195.573C660.228 194.575 659.677 193.761 658.854 193.13C658.042 192.539 657.058 192.406 655.9 192.731C654.981 192.988 654.241 193.497 653.679 194.257C653.128 195.058 652.618 196.385 652.147 198.24C651.478 200.925 650.722 202.989 649.877 204.431C649.083 205.902 647.748 206.901 645.872 207.427C643.716 208.031 641.729 207.705 639.913 206.448C638.097 205.192 636.825 203.266 636.098 200.67Z" fill="white"/>
<path d="M643.095 226.75C642.724 224.499 642.953 222.444 643.781 220.585C644.609 218.725 645.948 217.16 647.798 215.888C649.688 214.61 651.963 213.752 654.623 213.313C656.996 212.922 659.232 213.1 661.33 213.847C663.476 214.628 665.29 215.82 666.774 217.425C668.257 219.03 669.174 220.896 669.525 223.023C669.794 224.66 669.707 226.166 669.261 227.543C668.815 228.919 668.057 230.053 666.985 230.944C665.961 231.869 664.692 232.456 663.178 232.706C661.909 232.915 661.174 232.406 660.972 231.178L658.837 218.229C658.743 217.656 658.512 217.274 658.144 217.083C657.824 216.925 657.214 216.921 656.314 217.069C654.35 217.393 652.62 218.119 651.125 219.248C649.671 220.37 648.571 221.728 647.825 223.322C647.12 224.909 646.91 226.562 647.193 228.28C647.395 229.508 647.802 230.576 648.414 231.483C649.074 232.425 649.918 233.211 650.946 233.84C651.177 233.97 651.32 234.072 651.375 234.147C651.47 234.216 651.528 234.311 651.548 234.434C651.602 234.761 651.425 234.959 651.015 235.026C650.238 235.154 649.318 234.927 648.256 234.346C647.377 233.861 646.581 233.235 645.866 232.471C645.152 231.706 644.567 230.836 644.112 229.86C643.616 228.891 643.277 227.854 643.095 226.75ZM660.76 218.038L661.681 223.623C661.842 224.605 662.001 225.44 662.157 226.129C662.312 226.818 662.505 227.479 662.736 228.114C662.811 228.312 662.954 228.414 663.165 228.421C663.424 228.463 663.758 228.45 664.167 228.382C665.354 228.187 666.268 227.49 666.911 226.291C667.602 225.126 667.829 223.828 667.593 222.396C667.438 221.455 666.997 220.561 666.269 219.715C665.582 218.861 664.778 218.195 663.859 217.716C662.939 217.238 662.071 217.066 661.252 217.201C660.843 217.268 660.679 217.547 660.76 218.038Z" fill="white"/>
<path d="M637.573 242.062C637.497 241.319 637.686 240.925 638.14 240.879C638.305 240.862 638.477 240.907 638.654 241.014C638.795 241.166 638.9 241.385 638.971 241.669C639.27 242.556 639.713 243.428 640.3 244.285C640.887 245.142 641.687 245.832 642.699 246.354C643.669 246.88 644.877 247.07 646.321 246.923C646.816 246.873 647.349 246.589 647.922 246.072C648.536 245.551 648.828 244.938 648.798 244.233C648.788 243.317 649.003 242.565 649.443 241.979C649.888 241.433 650.44 241.127 651.101 241.06C651.926 240.976 652.64 241.237 653.243 241.842C653.851 242.489 654.201 243.266 654.293 244.173C654.445 245.659 653.991 246.934 652.932 248.001C651.919 249.104 650.547 249.744 648.814 249.92C647.246 250.08 645.812 249.913 644.512 249.421C643.17 248.932 641.997 248.259 640.993 247.403C639.988 246.547 639.186 245.628 638.586 244.647C637.99 243.707 637.653 242.845 637.573 242.062Z" fill="white"/>
<path d="M631.361 267.685C631.439 264.162 632.185 261.379 633.599 259.336C634.97 257.334 636.796 256.358 639.076 256.409C640.154 256.433 641.063 256.619 641.802 256.967C642.54 257.315 643.172 257.847 643.695 258.564C644.179 259.155 644.805 259.937 645.572 260.908C646.296 261.919 647.061 262.952 647.867 264.007L647.685 266.616C646.444 264.597 645.252 263.182 644.108 262.368C642.965 261.555 641.564 261.13 639.906 261.093C638.248 261.056 636.843 261.751 635.691 263.177C634.498 264.644 633.877 266.455 633.829 268.611C633.775 271.057 634.291 273.039 635.377 274.556C636.142 275.61 637.161 276.441 638.433 277.05C639.664 277.658 640.984 277.977 642.393 278.009C643.306 278.029 644.08 277.714 644.716 277.064C645.31 276.456 645.809 275.471 646.213 274.111C646.616 272.751 646.904 270.974 647.077 268.78C647.454 264.889 648.032 262.186 648.812 260.668C649.591 259.192 650.769 258.472 652.344 258.507C652.759 258.516 653.129 258.628 653.456 258.842C653.824 259.099 654.21 259.481 654.613 259.988C655.338 260.958 655.862 261.674 656.183 262.138C656.546 262.602 656.85 262.941 657.094 263.153C657.337 263.408 657.643 263.643 658.012 263.858L656.908 265.949C656.596 265.03 656.157 264.253 655.59 263.618C655.065 262.984 654.575 262.662 654.119 262.652C653.538 262.639 653.013 262.939 652.543 263.55C652.115 264.163 651.763 265.068 651.488 266.265C651.213 267.461 650.993 268.929 650.831 270.667C650.539 274.477 649.854 277.303 648.776 279.145C647.699 280.988 646.206 281.888 644.299 281.846C642.683 281.81 641.116 281.361 639.601 280.498C638.043 279.675 636.636 278.586 635.38 277.231C634.125 275.876 633.142 274.361 632.432 272.686C631.681 271.052 631.323 269.385 631.361 267.685ZM658.146 269.025C658.111 270.6 658.87 271.924 660.422 272.995C662.016 274.067 663.995 274.629 666.358 274.682C667.56 274.708 668.686 274.443 669.735 273.885C670.825 273.37 671.691 272.664 672.333 271.765C673.015 270.909 673.368 269.963 673.391 268.927C673.412 267.973 673.08 267.053 672.394 266.167C671.749 265.323 670.894 264.62 669.828 264.057C668.761 263.536 667.585 263.261 666.3 263.233C664.849 263.201 663.496 263.44 662.24 263.952C661.026 264.464 660.036 265.168 659.269 266.063C658.544 266.96 658.17 267.947 658.146 269.025ZM655.978 268.604C656.015 266.904 656.487 265.297 657.391 263.782C658.296 262.268 659.464 261.028 660.895 260.065C662.367 259.143 663.953 258.701 665.653 258.739C667.601 258.782 669.29 259.317 670.719 260.344C672.188 261.414 673.319 262.787 674.112 264.463C674.904 266.14 675.28 267.911 675.239 269.777C675.212 270.979 675.023 272.011 674.672 272.875C674.362 273.78 674.073 274.666 673.805 275.531C673.492 276.519 673.288 277.303 673.193 277.881C673.138 278.461 673.104 279.062 673.091 279.683C673.08 280.181 673.087 280.803 673.112 281.55C673.178 282.298 673.208 282.817 673.201 283.108C673.19 283.647 672.873 283.909 672.251 283.895C671.878 283.887 671.488 283.671 671.083 283.247C670.88 283.036 670.78 282.867 670.783 282.743L670.82 281.064C670.845 279.945 670.693 279.319 670.364 279.188C670.199 279.142 669.952 279.075 669.622 278.984C669.333 278.937 669.002 278.888 668.63 278.838C668.258 278.788 667.885 278.759 667.512 278.751C665.398 278.704 663.459 278.205 661.697 277.254C659.934 276.302 658.531 275.068 657.486 273.552C656.441 272.036 655.938 270.386 655.978 268.604Z" fill="white"/>
<path d="M647.509 298.967C647.808 296.706 648.624 294.806 649.956 293.267C651.289 291.728 653.025 290.619 655.164 289.94C657.345 289.266 659.771 289.106 662.443 289.459C664.827 289.774 666.915 290.593 668.706 291.918C670.533 293.288 671.922 294.957 672.875 296.923C673.829 298.89 674.164 300.942 673.881 303.079C673.664 304.724 673.142 306.14 672.316 307.327C671.49 308.514 670.435 309.379 669.15 309.92C667.901 310.508 666.516 310.701 664.995 310.5C663.721 310.332 663.165 309.631 663.328 308.398L665.048 295.387C665.124 294.811 665.014 294.378 664.717 294.088C664.457 293.845 663.874 293.663 662.97 293.544C660.997 293.283 659.131 293.475 657.372 294.121C655.655 294.773 654.208 295.753 653.031 297.061C651.896 298.375 651.214 299.895 650.985 301.622C650.822 302.855 650.902 303.995 651.224 305.041C651.581 306.134 652.161 307.131 652.962 308.032C653.146 308.223 653.253 308.363 653.283 308.451C653.354 308.544 653.382 308.652 653.365 308.775C653.322 309.104 653.095 309.241 652.684 309.187C651.902 309.084 651.088 308.6 650.24 307.735C649.541 307.015 648.96 306.185 648.499 305.246C648.037 304.307 647.731 303.304 647.579 302.238C647.386 301.167 647.363 300.077 647.509 298.967ZM666.943 295.763L666.201 301.374C666.071 302.361 665.98 303.206 665.929 303.91C665.878 304.615 665.87 305.304 665.907 305.978C665.921 306.189 666.028 306.329 666.228 306.397C666.464 306.512 666.787 306.596 667.198 306.651C668.39 306.808 669.468 306.407 670.431 305.447C671.431 304.533 672.025 303.357 672.215 301.918C672.34 300.972 672.178 299.989 671.727 298.967C671.318 297.951 670.742 297.08 670.002 296.355C669.261 295.63 668.48 295.213 667.657 295.104C667.246 295.05 667.008 295.269 666.943 295.763Z" fill="white"/>
<path d="M644.059 323.479C644.501 321.496 645.455 320.073 646.922 319.211C648.38 318.389 650.303 318.244 652.691 318.776L666.775 321.916C667.099 321.988 667.349 321.917 667.524 321.701C667.74 321.494 667.938 320.986 668.119 320.176L668.2 319.812C668.245 319.61 668.407 319.455 668.686 319.347C668.997 319.289 669.293 319.291 669.577 319.354C669.658 319.372 669.766 319.46 669.9 319.618C670.035 319.775 670.118 319.879 670.15 319.928C670.536 320.864 670.94 321.719 671.362 322.493C671.776 323.307 672.187 324.036 672.596 324.679C673.036 325.372 673.438 325.951 673.802 326.414C673.959 326.662 674.085 326.859 674.179 327.008C674.305 327.206 674.346 327.406 674.3 327.609C674.255 327.811 674.174 327.984 674.057 328.128C673.931 328.312 673.731 328.353 673.457 328.249L670.792 327.336C670.356 327.197 670.03 327.23 669.814 327.437C669.598 327.644 669.431 328.01 669.314 328.536L667.771 335.457C667.735 335.619 667.562 335.729 667.252 335.787C666.982 335.855 666.665 335.848 666.3 335.766C665.936 335.685 665.585 335.543 665.248 335.341C664.951 335.147 664.821 334.969 664.857 334.807L666.197 328.797C666.423 327.785 666.491 327.1 666.401 326.74C666.302 326.42 665.848 326.17 665.039 325.99L653.079 323.324C651.46 322.963 650.108 323.023 649.024 323.503C647.94 323.984 647.253 324.871 646.965 326.167C646.703 327.34 646.581 328.269 646.598 328.953C646.656 329.645 646.809 330.295 647.056 330.903C647.119 331.002 647.141 331.092 647.123 331.173C647.087 331.334 646.963 331.413 646.752 331.408C646.572 331.453 646.381 331.453 646.178 331.408C645.976 331.363 645.648 330.929 645.194 330.105C644.732 329.322 644.359 328.326 644.076 327.116C643.785 325.946 643.779 324.734 644.059 323.479Z" fill="white"/>
<path d="M637.847 351.654C637.977 351.304 638.144 351.035 638.348 350.845C638.498 350.679 638.689 350.64 638.922 350.727C639.233 350.843 639.396 351.058 639.412 351.374C639.413 351.728 639.394 352.075 639.356 352.415C639.246 353.303 639.248 354.012 639.361 354.541C639.513 355.084 639.938 355.486 640.638 355.746L653.287 360.455C654.336 360.846 655.341 360.999 656.302 360.914C657.248 360.868 657.987 360.369 658.519 359.417C658.63 359.237 658.766 359.11 658.926 359.037C659.071 359.003 659.26 359.029 659.494 359.116C659.921 359.275 660.089 359.537 659.998 359.901C659.769 361.586 659.758 363.042 659.964 364.269C660.21 365.511 660.433 366.457 660.634 367.107C660.775 367.558 660.81 367.88 660.738 368.075C660.651 368.308 660.51 368.388 660.316 368.316C660.005 368.2 659.405 367.91 658.516 367.446C657.651 367.036 656.67 366.582 655.572 366.085C654.512 365.602 653.536 365.194 652.642 364.861L639.119 359.826C638.458 359.581 637.893 359.613 637.423 359.925C636.938 360.276 636.454 360.803 635.97 361.508C635.777 361.79 635.571 362.046 635.353 362.274C635.121 362.542 634.849 362.617 634.539 362.502C634.111 362.343 634.042 361.874 634.331 361.097C634.606 360.359 634.869 359.771 635.121 359.334C635.319 358.921 635.517 358.508 635.715 358.095C635.898 357.72 636.12 357.184 636.381 356.484C636.627 355.824 636.81 355.272 636.93 354.83C637.05 354.388 637.171 353.946 637.291 353.505C637.372 353.048 637.558 352.431 637.847 351.654ZM666.364 367.581C666.668 366.765 667.2 366.167 667.961 365.786C668.747 365.459 669.548 365.448 670.364 365.751C671.219 366.07 671.817 366.602 672.158 367.349C672.524 368.149 672.555 368.957 672.251 369.773C671.933 370.628 671.381 371.219 670.596 371.546C669.835 371.926 669.027 371.957 668.172 371.639C667.356 371.335 666.765 370.783 666.399 369.983C666.057 369.237 666.046 368.436 666.364 367.581Z" fill="white"/>
<path d="M633.008 369.564C633.188 369.237 633.393 368.994 633.622 368.836C633.795 368.695 633.99 368.684 634.208 368.804C634.498 368.964 634.62 369.173 634.573 369.431C634.562 369.709 634.501 370.077 634.39 370.537C634.235 371.162 634.145 371.799 634.119 372.447C634.093 373.096 634.444 373.62 635.17 374.02L646.885 380.469C647.866 381.009 648.762 381.36 649.572 381.522C650.362 381.721 651.144 381.417 651.918 380.613C652.071 380.508 652.214 380.421 652.346 380.352C652.515 380.303 652.709 380.338 652.927 380.458C653.326 380.678 653.454 380.961 653.311 381.308C652.938 382.76 652.767 384.015 652.8 385.074C652.832 386.133 652.929 387.204 653.09 388.287C653.103 388.436 653.107 388.557 653.103 388.65C653.116 388.799 653.092 388.927 653.032 389.036C652.992 389.109 652.926 389.144 652.833 389.14C652.721 389.173 652.61 389.159 652.501 389.099C652.247 388.959 651.75 388.614 651.011 388.066C650.288 387.573 649.672 387.187 649.164 386.907C649.018 386.827 648.873 386.747 648.728 386.667C648.599 386.643 648.506 386.639 648.45 386.656C648.949 388.587 649.117 390.431 648.955 392.188C648.772 393.981 648.211 395.731 647.271 397.438C646.291 399.218 644.755 400.289 642.662 400.652C640.569 401.014 638.451 400.606 636.308 399.426L624.701 393.036C623.975 392.636 623.345 392.621 622.81 392.989C622.312 393.378 621.823 393.795 621.341 394.24C621.072 394.47 620.795 394.673 620.51 394.847C620.241 395.078 619.961 395.113 619.67 394.953C619.452 394.833 619.395 394.636 619.499 394.361C619.566 394.067 619.66 393.811 619.78 393.593C620.18 392.867 620.526 392.324 620.819 391.964C621.075 391.584 621.321 391.223 621.558 390.88C621.794 390.536 622.092 390.038 622.452 389.384C622.792 388.767 623.054 388.248 623.237 387.828C623.421 387.409 623.615 386.971 623.818 386.515C623.966 386.076 624.239 385.493 624.639 384.766C624.739 384.584 624.906 384.368 625.138 384.118C625.315 383.883 625.512 383.826 625.73 383.946C626.02 384.106 626.15 384.343 626.119 384.658C626.104 385.028 626.072 385.389 626.021 385.739C625.902 386.384 625.812 387.021 625.75 387.649C625.724 388.298 626.075 388.822 626.801 389.222L638.244 395.522C639.842 396.402 641.327 396.627 642.699 396.199C644.087 395.827 645.209 394.907 646.065 393.437C646.785 392.13 647.197 390.865 647.301 389.645C647.442 388.444 647.413 387.292 647.216 386.189C647.15 385.964 647.011 385.745 646.796 385.532C646.618 385.34 646.42 385.183 646.202 385.063L633.071 377.834C632.344 377.434 631.714 377.418 631.179 377.787C630.645 378.156 630.155 378.572 629.71 379.037C629.032 379.753 628.512 380.011 628.148 379.811C627.93 379.691 627.835 379.52 627.862 379.298C627.854 379.057 627.949 378.754 628.149 378.391C628.549 377.664 628.905 377.103 629.218 376.707C629.474 376.328 629.72 375.966 629.957 375.623C630.193 375.28 630.491 374.781 630.851 374.127C631.191 373.51 631.453 372.991 631.637 372.572C631.8 372.188 631.984 371.769 632.188 371.313C632.335 370.873 632.609 370.29 633.008 369.564Z" fill="white"/>
<path d="M601.652 421.246C602.898 419.641 604.368 418.761 606.063 418.607C607.732 418.485 609.533 419.174 611.466 420.674L622.865 429.522C623.127 429.726 623.384 429.767 623.635 429.647C623.918 429.552 624.314 429.177 624.823 428.522L625.052 428.227C625.179 428.064 625.391 427.992 625.69 428.014C625.995 428.094 626.263 428.222 626.492 428.4C626.558 428.451 626.618 428.577 626.672 428.777C626.727 428.977 626.758 429.106 626.766 429.164C626.716 430.175 626.717 431.121 626.768 432.001C626.795 432.913 626.856 433.748 626.951 434.504C627.054 435.319 627.171 436.014 627.302 436.588C627.339 436.879 627.368 437.112 627.39 437.286C627.419 437.519 627.371 437.717 627.243 437.881C627.116 438.045 626.969 438.167 626.802 438.247C626.609 438.36 626.411 438.311 626.207 438.1L624.187 436.138C623.852 435.826 623.543 435.717 623.259 435.812C622.975 435.907 622.668 436.167 622.338 436.593L617.99 442.194C617.888 442.325 617.685 442.351 617.379 442.271C617.106 442.217 616.823 442.076 616.528 441.847C616.233 441.618 615.976 441.34 615.758 441.013C615.572 440.711 615.53 440.495 615.632 440.364L619.407 435.499C620.043 434.68 620.397 434.089 620.469 433.725C620.516 433.394 620.212 432.975 619.557 432.466L609.877 424.953C608.567 423.936 607.319 423.414 606.133 423.386C604.948 423.358 603.948 423.868 603.134 424.916C602.397 425.866 601.891 426.654 601.615 427.28C601.372 427.931 601.232 428.584 601.197 429.239C601.211 429.355 601.193 429.446 601.142 429.511C601.041 429.642 600.895 429.661 600.706 429.566C600.524 429.53 600.351 429.449 600.188 429.321C600.024 429.194 599.912 428.662 599.853 427.723C599.769 426.818 599.857 425.758 600.117 424.543C600.353 423.36 600.864 422.262 601.652 421.246Z" fill="white"/>
<path d="M585.541 441.63C587.205 440.01 589.081 438.936 591.17 438.407C593.259 437.878 595.356 437.891 597.46 438.447C599.563 439.062 601.453 440.231 603.131 441.955C604.345 443.203 605.293 444.653 605.975 446.304C606.627 447.984 606.984 449.748 607.047 451.597C607.11 453.445 606.822 455.23 606.183 456.951C605.573 458.702 604.585 460.243 603.218 461.574C601.494 463.251 599.544 464.339 597.368 464.838C595.161 465.365 592.992 465.336 590.859 464.75C588.725 464.223 586.878 463.157 585.316 461.552C583.638 459.829 582.434 457.819 581.702 455.521C580.941 453.253 580.826 450.906 581.357 448.479C581.918 446.082 583.312 443.799 585.541 441.63ZM585.906 443.878C584.896 444.861 584.178 445.937 583.751 447.104C583.325 448.271 583.308 449.502 583.701 450.798C584.01 451.828 584.582 452.892 585.418 453.988C586.253 455.084 587.091 456.063 587.929 456.925C589.318 458.351 590.916 459.458 592.723 460.245C594.53 461.09 596.314 461.466 598.074 461.372C599.834 461.337 601.353 460.698 602.631 459.454C603.433 458.674 604.031 457.831 604.424 456.928C604.817 456.082 604.948 455.058 604.817 453.854C604.689 452.532 604.193 451.25 603.33 450.007C602.467 448.764 601.515 447.607 600.474 446.538C599.056 445.082 597.429 443.945 595.593 443.129C593.786 442.342 592.016 441.981 590.285 442.046C588.554 442.11 587.095 442.721 585.906 443.878Z" fill="white"/>
<path d="M554.426 469.796C554.662 469.627 554.877 469.677 555.07 469.947C555.312 470.284 555.628 470.796 556.02 471.485C556.402 472.231 556.75 472.824 557.064 473.262C557.113 473.329 557.149 473.38 557.173 473.413C557.221 473.481 557.258 473.531 557.282 473.565C557.678 471.342 558.345 469.461 559.282 467.922C560.21 466.44 561.465 465.132 563.049 463.996C564.128 463.223 565.274 462.758 566.488 462.602C567.679 462.411 568.841 462.573 569.974 463.087C571.132 463.634 572.182 464.565 573.125 465.88L580.482 476.141C581.014 476.883 581.605 477.351 582.256 477.548C582.907 477.744 583.729 477.716 584.722 477.464C584.938 477.411 585.151 477.386 585.358 477.391C585.565 477.395 585.765 477.532 585.959 477.802C586.176 478.105 586.254 478.355 586.191 478.553C586.095 478.775 585.958 478.975 585.78 479.154C584.683 480.043 583.867 480.755 583.333 481.291C582.789 481.885 582.13 482.639 581.356 483.551C581.279 483.657 581.224 483.722 581.19 483.746C581.122 483.795 581.055 483.843 580.988 483.891C580.617 484.157 580.279 484.042 579.975 483.546C579.52 482.699 579.133 481.981 578.814 481.394C578.485 480.864 578.043 480.212 577.487 479.436L570.42 469.579C569.84 468.77 569.094 468.157 568.182 467.739C567.295 467.355 566.374 467.174 565.419 467.195C564.431 467.24 563.583 467.516 562.876 468.024C561.999 468.652 561.277 469.246 560.71 469.806C560.108 470.391 559.656 471.148 559.354 472.079C559.177 472.615 559.019 473.391 558.881 474.408C558.743 475.426 559.049 476.457 559.798 477.501L566.43 486.752C566.938 487.46 567.531 487.825 568.211 487.848C568.881 487.928 569.534 487.843 570.17 487.591C570.806 487.339 571.292 487.093 571.629 486.851C571.933 486.634 572.222 486.503 572.496 486.459C572.795 486.449 573.065 486.612 573.307 486.949C573.524 487.253 573.568 487.527 573.439 487.773C573.275 488.044 573.059 488.275 572.789 488.469C571.769 489.251 570.933 489.901 570.284 490.418C569.624 490.993 569.061 491.524 568.594 492.012C568.118 492.557 567.637 493.132 567.151 493.735C567.108 493.817 567.036 493.895 566.935 493.967C566.858 494.073 566.786 494.151 566.718 494.199C566.28 494.513 565.928 494.485 565.663 494.114C565.638 494.08 565.607 494.001 565.568 493.876C565.52 493.808 565.476 493.712 565.438 493.587C565.399 493.461 565.244 493.139 564.973 492.618C564.668 492.122 564.369 491.598 564.074 491.044C563.745 490.514 563.484 490.115 563.291 489.845L554.918 478.168C554.266 477.258 553.711 476.661 553.252 476.378C552.784 476.152 552.432 476.124 552.196 476.293C551.927 476.486 551.551 476.781 551.07 477.177C550.579 477.631 550.216 477.943 549.98 478.112C549.811 478.233 549.619 478.32 549.402 478.373C549.185 478.426 548.968 478.302 548.75 477.998C548.557 477.729 548.492 477.495 548.554 477.297C548.64 477.133 548.773 476.962 548.951 476.783C550.144 475.672 551.092 474.61 551.794 473.597C552.496 472.583 553.109 471.659 553.633 470.824C553.71 470.718 553.825 470.559 553.979 470.346C554.109 470.1 554.258 469.917 554.426 469.796Z" fill="white"/>
<path d="M533.495 484.857C535.306 483.849 537.207 483.384 539.196 483.463C541.17 483.598 543.035 484.22 544.792 485.33C546.533 486.497 547.959 488.076 549.068 490.069C550.379 492.424 551.062 494.844 551.117 497.329C551.135 499.834 550.587 502.132 549.474 504.224C548.38 506.351 546.783 508 544.681 509.17C542.326 510.481 539.908 510.997 537.427 510.717C536.811 510.633 536.402 510.41 536.2 510.047C536.039 509.758 535.984 509.361 536.036 508.858C536.088 508.354 536.224 507.875 536.445 507.419C536.687 507 536.97 506.7 537.296 506.518C537.478 506.417 537.689 506.371 537.931 506.379C538.192 506.423 538.472 506.457 538.77 506.481C539.91 506.653 541.121 506.738 542.402 506.737C543.682 506.736 544.649 506.554 545.301 506.191C547.076 505.202 548.061 503.562 548.257 501.27C548.436 499.035 547.779 496.577 546.286 493.896C545.338 492.193 544.119 490.855 542.628 489.882C541.1 488.928 539.499 488.396 537.823 488.285C536.112 488.194 534.495 488.572 532.973 489.419C531.923 490.004 531.108 490.671 530.528 491.421C529.969 492.207 529.497 493.277 529.112 494.63C529.079 494.743 529.019 494.848 528.931 494.945C528.862 495.078 528.792 495.164 528.719 495.205C528.321 495.427 527.98 495.284 527.698 494.777C527.577 494.559 527.508 494.265 527.492 493.895C527.459 493.581 527.487 493.162 527.575 492.638C527.751 491.591 528.087 490.574 528.581 489.586C529.096 488.635 529.772 487.761 530.609 486.962C531.41 486.184 532.371 485.483 533.495 484.857Z" fill="white"/>
<path d="M519.266 495.552C520.041 495.255 520.51 495.32 520.673 495.746C520.806 496.094 520.48 496.575 519.693 497.187C519.186 497.603 518.74 498.062 518.355 498.565C517.932 499.082 517.849 499.735 518.107 500.525L529.249 529.626C529.65 530.672 530.172 531.515 530.818 532.156C531.477 532.836 532.34 533.061 533.407 532.83C533.785 532.774 534.063 532.979 534.241 533.443C534.374 533.792 534.308 534.083 534.043 534.318C533.575 534.719 533.018 535.177 532.371 535.691C531.685 536.22 530.988 536.776 530.278 537.358C529.584 537.979 528.978 538.544 528.463 539.052C528.337 539.189 528.236 539.272 528.159 539.302C528.042 539.346 527.931 539.345 527.824 539.297C527.717 539.249 527.641 539.167 527.596 539.051C527.507 538.819 527.439 538.467 527.392 537.997C527.307 537.541 527.103 536.776 526.78 535.701C526.457 534.625 525.895 533.042 525.094 530.951L521.224 520.844C520.987 520.224 520.797 519.786 520.655 519.53C520.474 519.289 520.254 519.062 519.995 518.85C519.553 519.552 518.991 520.345 518.308 521.228C517.601 522.165 516.767 523.061 515.807 523.917C514.847 524.773 513.767 525.431 512.567 525.89C510.669 526.617 508.812 526.462 506.994 525.426C505.153 524.444 503.795 522.811 502.92 520.526L498.249 508.327C497.953 507.553 497.479 507.068 496.827 506.874C496.19 506.718 495.544 506.655 494.889 506.683C494.419 506.73 494.038 506.721 493.746 506.655C493.469 506.628 493.286 506.498 493.197 506.266C493.034 505.84 493.34 505.478 494.115 505.182C494.889 504.885 495.504 504.694 495.96 504.609C496.362 504.499 496.764 504.389 497.166 504.28C497.529 504.185 498.06 504.004 498.757 503.738C499.415 503.485 499.93 503.266 500.303 503.079C500.675 502.892 501.067 502.698 501.478 502.496C501.836 502.27 502.402 502.009 503.176 501.712C503.951 501.416 504.419 501.48 504.583 501.906C504.686 502.178 504.637 502.396 504.434 502.563C504.246 502.768 503.969 503.029 503.602 503.347C503.096 503.763 502.677 504.235 502.345 504.761C502.029 505.326 502.019 505.996 502.316 506.771L506.853 518.62C507.223 519.589 507.847 520.349 508.725 520.901C509.578 521.506 510.501 521.886 511.492 522.039C512.483 522.193 513.405 522.106 514.257 521.78C514.992 521.498 515.8 521.056 516.679 520.453C517.573 519.889 518.209 519.29 518.589 518.656C519.015 517.915 519.241 517.229 519.266 516.598C519.252 515.982 519.015 515.074 518.556 513.873L514.041 502.081C513.705 501.322 513.265 500.869 512.721 500.722C512.138 500.59 511.518 500.538 510.863 500.567C510.393 500.614 510.031 500.597 509.778 500.517C509.501 500.489 509.319 500.36 509.23 500.127C509.066 499.701 509.372 499.34 510.147 499.043C510.921 498.747 511.517 498.563 511.934 498.492C512.336 498.383 512.719 498.281 513.082 498.186C513.445 498.091 513.975 497.91 514.673 497.644C515.331 497.391 515.866 497.165 516.277 496.963C516.649 496.776 517.06 496.574 517.51 496.357C517.907 496.117 518.492 495.848 519.266 495.552Z" fill="white"/>
<path d="M483.395 508.491C484.267 508.222 485.138 508.301 486.007 508.728C486.848 509.206 487.404 509.881 487.672 510.753C487.953 511.664 487.875 512.534 487.436 513.364C486.958 514.206 486.283 514.761 485.411 515.03C484.5 515.311 483.629 515.232 482.8 514.793C481.97 514.355 481.415 513.68 481.134 512.768C480.865 511.896 480.944 511.026 481.371 510.157C481.809 509.327 482.484 508.772 483.395 508.491Z" fill="white"/>
</svg>
