<svg width="105" height="105" viewBox="0 0 105 105" fill="none" xmlns="http://www.w3.org/2000/svg">
<path d="M7.94727 17.5508H96.9512" stroke="black" stroke-width="1.5" stroke-linecap="round" stroke-linejoin="round"/>
<path d="M7.94727 87.4824H96.9512" stroke="black" stroke-width="1.5" stroke-linecap="round" stroke-linejoin="round"/>
<path d="M33.377 36.623C30.0048 36.623 26.7707 37.9626 24.3862 40.3471C22.0017 42.7316 20.6621 45.9657 20.6621 49.3379V55.6953C20.6621 59.0675 22.0017 62.3016 24.3862 64.6861C26.7707 67.0706 30.0048 68.4102 33.377 68.4102" stroke="black" stroke-width="1.5" stroke-linecap="round" stroke-linejoin="round"/>
<path d="M58.8066 36.623H52.4492C50.7631 36.623 49.1461 37.2928 47.9538 38.4851C46.7616 39.6773 46.0918 41.2944 46.0918 42.9805C46.0918 52.5166 58.8066 52.5166 58.8066 62.0527C58.8066 62.8876 58.6422 63.7143 58.3227 64.4856C58.0032 65.2569 57.5349 65.9578 56.9446 66.5481C56.3543 67.1385 55.6534 67.6067 54.8821 67.9262C54.1108 68.2457 53.2841 68.4102 52.4492 68.4102H46.0918" stroke="black" stroke-width="1.5" stroke-linecap="round" stroke-linejoin="round"/>
<path d="M84.2363 36.623H77.8789C76.1928 36.623 74.5758 37.2928 73.3835 38.4851C72.1913 39.6773 71.5215 41.2944 71.5215 42.9805C71.5215 52.5166 84.2363 52.5166 84.2363 62.0527C84.2363 63.7388 83.5665 65.3559 82.3743 66.5481C81.182 67.7404 79.565 68.4102 77.8789 68.4102H71.5215" stroke="black" stroke-width="1.5" stroke-linecap="round" stroke-linejoin="round"/>
</svg>
