<svg width="30" height="30" viewBox="0 0 30 30" fill="none" xmlns="http://www.w3.org/2000/svg">
<path d="M22.9725 6.17773L23.8209 7.02673L14.8269 16.0207L13.9785 15.1723L22.9725 6.17773Z" fill="black"/>
<path d="M23.9992 12H22.7992V7.2H17.9992V6H23.9992V12ZM20.9992 22.8H8.99922C7.97922 22.8 7.19922 22.02 7.19922 21V9C7.19922 7.98 7.97922 7.2 8.99922 7.2H15.5992V8.4H8.99922C8.63922 8.4 8.39922 8.64 8.39922 9V21C8.39922 21.36 8.63922 21.6 8.99922 21.6H20.9992C21.3592 21.6 21.5992 21.36 21.5992 21V14.4H22.7992V21C22.7992 22.02 22.0192 22.8 20.9992 22.8Z" fill="black"/>
</svg>
