<svg width="98" height="98" viewBox="0 0 98 98" fill="none" xmlns="http://www.w3.org/2000/svg">
<path d="M92.123 1H5.23828C2.89756 1 1 2.89756 1 5.23828V92.123C1 94.4638 2.89756 96.3613 5.23828 96.3613H92.123C94.4638 96.3613 96.3613 94.4638 96.3613 92.123V5.23828C96.3613 2.89756 94.4638 1 92.123 1Z" stroke="black" stroke-width="1.5" stroke-linecap="round" stroke-linejoin="round"/>
<path d="M51.2393 51.5003C51.2393 53.5564 52.056 55.5282 53.5098 56.982C54.9637 58.4359 56.9355 59.2526 58.9915 59.2526C61.0476 59.2526 63.0194 58.4359 64.4732 56.982C65.9271 55.5282 66.7438 53.5564 66.7438 51.5003C66.7438 49.4443 65.9271 47.4725 64.4732 46.0186C63.0194 44.5648 61.0476 43.748 58.9915 43.748C56.9355 43.748 54.9637 44.5648 53.5098 46.0186C52.056 47.4725 51.2393 49.4443 51.2393 51.5003Z" stroke="black" stroke-width="0.9" stroke-linecap="round" stroke-linejoin="round"/>
<path d="M48.5004 41.0087H38.0087C36.584 41.0815 35.1594 40.8637 33.8215 40.3686C32.4836 39.8735 31.2604 39.1115 30.2263 38.1288C29.1921 37.1461 28.3687 35.9634 27.806 34.6525C27.2433 33.3416 26.9531 31.9299 26.9531 30.5034C26.9531 29.0768 27.2433 27.6652 27.806 26.3543C28.3687 25.0434 29.1921 23.8606 30.2263 22.878C31.2604 21.8953 32.4836 21.1332 33.8215 20.6382C35.1594 20.1431 36.584 19.9253 38.0087 19.9981H48.5004V41.0087Z" stroke="black" stroke-width="0.9" stroke-linecap="round" stroke-linejoin="round"/>
<path d="M48.5 41.0087H58.9916C60.4163 41.0815 61.8409 40.8637 63.1788 40.3686C64.5167 39.8735 65.7399 39.1115 66.7741 38.1288C67.8082 37.1461 68.6317 35.9634 69.1944 34.6525C69.7571 33.3416 70.0472 31.9299 70.0472 30.5034C70.0472 29.0768 69.7571 27.6652 69.1944 26.3543C68.6317 25.0434 67.8082 23.8606 66.7741 22.878C65.7399 21.8953 64.5167 21.1332 63.1788 20.6382C61.8409 20.1431 60.4163 19.9253 58.9916 19.9981H48.5V41.0087Z" stroke="black" stroke-width="0.9" stroke-linecap="round" stroke-linejoin="round"/>
<path d="M48.5008 61.992H38.0092C35.2266 61.992 32.5581 60.8866 30.5905 58.9191C28.6229 56.9515 27.5176 54.2829 27.5176 51.5004C27.5176 48.7178 28.6229 46.0493 30.5905 44.0817C32.5581 42.1142 35.2266 41.0088 38.0092 41.0088H48.5008V61.992Z" stroke="black" stroke-width="0.9" stroke-linecap="round" stroke-linejoin="round"/>
<path d="M48.4999 72.5112C48.4999 74.5928 47.8823 76.6277 46.7252 78.3581C45.5682 80.0885 43.9237 81.4368 42 82.2321C40.0763 83.0275 37.9599 83.2342 35.9187 82.8261C33.8774 82.4179 32.0032 81.4134 30.5332 79.9395C29.0632 78.4657 28.0635 76.5888 27.6607 74.5465C27.2579 72.5042 27.4702 70.3884 28.2705 68.4668C29.0709 66.5451 30.4234 64.9042 32.1568 63.7517C33.8903 62.5991 35.9267 61.9868 38.0083 61.9922H48.4999V72.5112Z" stroke="black" stroke-width="0.9" stroke-linecap="round" stroke-linejoin="round"/>
</svg>
