<svg width="105" height="105" viewBox="0 0 105 105" fill="none" xmlns="http://www.w3.org/2000/svg">
<path d="M52.5003 3.23542C40.7937 3.22438 29.4657 7.38252 20.5462 14.9647C11.6268 22.5469 5.69895 33.0576 3.8249 44.6133C1.95085 56.169 4.25311 68.0144 10.3191 78.0269C16.3851 88.0393 25.8184 95.5644 36.9285 99.2537C39.3875 99.6821 40.1671 98.2385 40.1671 96.9362C40.1671 95.7581 40.1928 92.4938 40.1671 88.3684C26.4588 91.3414 23.6272 81.8784 23.6272 81.8784C22.7234 78.9012 20.7845 76.3455 18.161 74.673C13.6886 71.6143 18.4951 71.6743 18.4951 71.6743C20.0566 71.8886 21.5484 72.457 22.8566 73.3361C24.1649 74.2151 25.2548 75.3816 26.0433 76.7464C26.7102 77.9617 27.6115 79.0327 28.695 79.8975C29.7786 80.7622 31.0228 81.4036 32.3557 81.7844C33.6887 82.1653 35.084 82.2781 36.4608 82.1163C37.8376 81.9544 39.1687 81.5212 40.377 80.8417C40.6043 78.3514 41.7133 76.0241 43.5043 74.2789C32.5676 73.028 21.0654 68.8041 21.0654 49.9209C20.996 45.0256 22.8138 40.2916 26.1418 36.7009C24.6338 32.4534 24.8054 27.7903 26.6216 23.6651C26.6216 23.6651 30.7641 22.3414 40.1671 28.7201C48.2429 26.504 56.7664 26.504 64.8421 28.7201C74.2666 22.3457 78.3748 23.6651 78.3748 23.6651C80.1916 27.7897 80.3663 32.452 78.8632 36.7009C82.192 40.2938 84.0072 45.032 83.931 49.9294C83.931 68.8641 72.4117 73.0237 61.4365 74.236C62.6153 75.4206 63.5263 76.8442 64.1079 78.411C64.6895 79.9777 64.9282 81.6509 64.8079 83.3178V96.9576C64.8079 98.2727 65.6047 99.7292 68.1064 99.2537C79.2194 95.5635 88.6546 88.0356 94.7204 78.0195C100.786 68.0035 103.086 56.1543 101.207 44.5963C99.3289 33.0384 93.3949 22.5275 84.4692 14.948C75.5436 7.36853 64.21 3.2162 52.5003 3.23542Z" stroke="black" stroke-linecap="round" stroke-linejoin="round"/>
</svg>
