<svg width="85" height="85" viewBox="0 0 85 85" fill="none" xmlns="http://www.w3.org/2000/svg">
<circle cx="42.5" cy="42.5" r="42.5" fill="#F04B00"/>
<path d="M29.15 46.255C29.15 45.835 29.1967 45.31 29.29 44.68C29.4067 44.05 29.6283 43.0467 29.955 41.67C30.2817 40.34 30.4917 39.3833 30.585 38.8C30.6783 38.2167 30.725 37.7267 30.725 37.33C30.725 36.7467 30.62 36.3033 30.41 36C30.2 35.6967 29.885 35.545 29.465 35.545C28.905 35.545 28.38 35.8367 27.89 36.42C27.4233 36.98 27.0383 37.7617 26.735 38.765L24.355 50H19.315L21.87 37.925C21.9167 37.785 21.94 37.645 21.94 37.505C21.9633 37.365 21.975 37.2133 21.975 37.05C21.975 36.5833 21.8817 36.21 21.695 35.93C21.5083 35.65 21.2517 35.51 20.925 35.51C20.3183 35.51 19.77 35.8017 19.28 36.385C18.79 36.945 18.3933 37.7383 18.09 38.765L15.71 50H10.67L14.38 32.5H19.42L19.035 34.32C19.6183 33.6433 20.26 33.1417 20.96 32.815C21.66 32.4883 22.4417 32.325 23.305 32.325C24.3317 32.325 25.1367 32.5817 25.72 33.095C26.3267 33.585 26.7233 34.3317 26.91 35.335C27.5633 34.3317 28.2867 33.585 29.08 33.095C29.8733 32.605 30.7717 32.36 31.775 32.36C33.0117 32.36 33.9683 32.6983 34.645 33.375C35.3217 34.0517 35.66 35.0317 35.66 36.315C35.66 36.8517 35.59 37.4933 35.45 38.24C35.3333 38.9633 35.0883 40.0833 34.715 41.6C34.4117 42.79 34.2133 43.63 34.12 44.12C34.0267 44.61 33.98 45.0183 33.98 45.345C33.98 45.835 34.0967 46.2083 34.33 46.465C34.5633 46.6983 34.9133 46.815 35.38 46.815C35.9633 46.815 36.465 46.6167 36.885 46.22C37.305 45.8233 37.7833 44.995 38.32 43.735H39.79C39.0433 45.905 38.1333 47.5267 37.06 48.6C36.01 49.6733 34.75 50.21 33.28 50.21C31.9733 50.21 30.9583 49.86 30.235 49.16C29.5117 48.4367 29.15 47.4683 29.15 46.255ZM46.8234 46.255C46.8234 45.835 46.87 45.31 46.9634 44.68C47.08 44.05 47.3017 43.0467 47.6284 41.67C47.955 40.34 48.165 39.3833 48.2584 38.8C48.3517 38.2167 48.3984 37.7267 48.3984 37.33C48.3984 36.7467 48.2817 36.3033 48.0484 36C47.8384 35.6967 47.5234 35.545 47.1034 35.545C46.5434 35.545 45.995 35.8833 45.4584 36.56C44.945 37.2133 44.6067 37.9017 44.4434 38.625L42.0284 50H36.9884L42.0634 26.2L47.2434 25.5L45.3534 34.32C45.9367 33.6667 46.5667 33.1767 47.2434 32.85C47.92 32.5233 48.655 32.36 49.4484 32.36C50.685 32.36 51.6417 32.6983 52.3184 33.375C52.995 34.0517 53.3334 35.0317 53.3334 36.315C53.3334 36.8517 53.2634 37.4933 53.1234 38.24C53.0067 38.9633 52.7617 40.0833 52.3884 41.6C52.085 42.79 51.8867 43.63 51.7934 44.12C51.7 44.61 51.6534 45.0183 51.6534 45.345C51.6534 45.835 51.77 46.2083 52.0034 46.465C52.2367 46.6983 52.5867 46.815 53.0534 46.815C53.6367 46.815 54.1384 46.6167 54.5584 46.22C54.9784 45.8233 55.4567 44.995 55.9934 43.735H57.4634C56.7167 45.905 55.8067 47.5267 54.7334 48.6C53.6834 49.6733 52.4234 50.21 50.9534 50.21C49.6467 50.21 48.6317 49.86 47.9084 49.16C47.185 48.4367 46.8234 47.4683 46.8234 46.255ZM60.4693 46.36C60.5626 46.6167 60.7259 46.815 60.9593 46.955C61.1926 47.095 61.4726 47.165 61.7993 47.165C63.2693 47.165 64.4476 46.22 65.3343 44.33C66.2443 42.44 66.6993 40.2467 66.6993 37.75C66.6993 36.7933 66.5593 36.07 66.2793 35.58C65.9993 35.09 65.5559 34.845 64.9493 34.845C64.5293 34.845 64.0976 35.0083 63.6543 35.335C63.2109 35.6383 62.8376 36.0467 62.5343 36.56L60.4693 46.36ZM58.0893 57.49L52.8043 58.75L58.6493 31.205H63.6893L63.1293 33.83C63.7126 33.34 64.3426 32.9667 65.0193 32.71C65.6959 32.4533 66.4309 32.325 67.2243 32.325C68.6243 32.325 69.6859 32.7917 70.4093 33.725C71.1326 34.6583 71.4943 36.035 71.4943 37.855C71.4943 41.425 70.7243 44.3767 69.1843 46.71C67.6676 49.0433 65.5676 50.21 62.8843 50.21C62.1376 50.21 61.5076 50.105 60.9943 49.895C60.5043 49.685 60.1426 49.37 59.9093 48.95L58.0893 57.49Z" fill="white"/>
</svg>
