<svg width="908" height="208" viewBox="0 0 908 208" fill="none" xmlns="http://www.w3.org/2000/svg">
<path d="M144.96 148.74C143.64 148.74 141 147.64 137.04 145.44C133.227 143.24 129.56 139.72 126.04 134.88C125.453 134.147 123.62 131.947 120.54 128.28C117.607 124.613 113.793 120.067 109.1 114.64C104.553 109.067 99.5667 103.053 94.14 96.6C88.7133 90.1467 83.2867 83.6933 77.86 77.24C72.4333 70.7867 67.3733 64.8467 62.68 59.42C57.9867 53.8467 54.0267 49.2267 50.8 45.56C47.72 41.7467 45.8133 39.4 45.08 38.52C44.0533 37.2 43.1733 36.32 42.44 35.88C41.7067 35.2933 41.0467 35 40.46 35C39.7267 35 39.2133 35.5867 38.92 36.76C38.6267 37.7867 38.48 38.74 38.48 39.62C38.3333 46.8067 38.1867 55.0933 38.04 64.48C37.8933 73.8667 37.7467 83.5467 37.6 93.52C37.4533 103.493 37.38 113.027 37.38 122.12C37.38 126.08 38.3333 129.747 40.24 133.12C42.2933 136.493 46.0333 138.693 51.46 139.72C53.9533 140.16 55.7867 140.673 56.96 141.26C58.1333 141.847 58.72 142.653 58.72 143.68C58.72 144.56 58.1333 145.147 56.96 145.44C55.7867 145.88 54.2467 146.1 52.34 146.1C48.38 146.1 45.3733 145.953 43.32 145.66C41.4133 145.513 39.6533 145.367 38.04 145.22C36.5733 145.073 34.4467 145 31.66 145C29.02 145 26.9667 145.073 25.5 145.22C24.0333 145.367 22.3467 145.513 20.44 145.66C18.5333 145.953 15.6 146.1 11.64 146.1C9.73333 146.1 8.19333 145.88 7.02 145.44C5.84667 145.147 5.26 144.56 5.26 143.68C5.26 142.653 5.84667 141.847 7.02 141.26C8.19333 140.673 10.0267 140.087 12.52 139.5C16.7733 138.327 19.8533 136.2 21.76 133.12C23.6667 129.893 24.84 126.007 25.28 121.46C25.8667 115.887 26.4533 108.553 27.04 99.46C27.6267 90.22 28.14 79.9533 28.58 68.66C29.02 57.22 29.24 45.4867 29.24 33.46C29.24 25.6867 27.1867 20.1133 23.08 16.74C19.12 13.3667 13.9133 10.6533 7.46 8.6C6.87333 8.30666 5.55333 7.71999 3.5 6.84C1.59333 5.81332 0.64 4.63999 0.64 3.31999C0.64 1.99999 1.3 1.19332 2.62 0.899993C3.94 0.45999 4.96667 0.239989 5.7 0.239989C9.95333 0.386662 13.4 0.533331 16.04 0.679996C18.68 0.679996 21.0267 0.753328 23.08 0.899993C25.1333 1.04666 27.4067 1.19332 29.9 1.33999C32.3933 1.33999 35.62 1.33999 39.58 1.33999C40.9 1.33999 41.9267 1.70666 42.66 2.44C43.3933 3.17333 44.1267 4.05333 44.86 5.07999C45.4467 5.95999 47.3533 8.45332 50.58 12.56C53.9533 16.52 58.06 21.58 62.9 27.74C67.8867 33.7533 73.3133 40.3533 79.18 47.54C85.0467 54.58 90.9133 61.6933 96.78 68.88C102.647 75.92 108.073 82.52 113.06 88.68C118.047 94.6933 122.153 99.68 125.38 103.64C128.753 107.6 130.733 109.947 131.32 110.68C131.907 111.267 132.713 112.147 133.74 113.32C134.913 114.493 135.94 115.08 136.82 115.08C138.14 115.08 138.873 113.54 139.02 110.46C139.02 108.407 139.02 104.52 139.02 98.8C139.167 92.9333 139.24 85.8933 139.24 77.68C139.387 69.32 139.46 60.3 139.46 50.62C139.46 40.94 139.46 31.04 139.46 20.92C139.313 17.9867 137.773 15.3467 134.84 13C131.907 10.6533 129.193 9.25999 126.7 8.82C124.207 8.37999 121.933 7.79333 119.88 7.05999C117.827 6.32666 116.8 5.44666 116.8 4.41999C116.8 3.53999 117.827 2.95333 119.88 2.66C121.933 2.21999 123.913 1.99999 125.82 1.99999C127.287 1.99999 128.68 1.99999 130 1.99999C131.467 1.99999 132.86 1.99999 134.18 1.99999C135.647 1.99999 137.04 1.99999 138.36 1.99999C141.88 1.99999 144.667 1.99999 146.72 1.99999C148.773 1.85333 150.973 1.70666 153.32 1.56C155.813 1.41332 159.26 1.33999 163.66 1.33999C165.567 1.33999 167.107 1.55999 168.28 1.99999C169.453 2.29333 170.04 2.88 170.04 3.76C170.04 5.81333 167.62 7.27999 162.78 8.15999C157.353 9.18666 153.76 10.5067 152 12.12C150.24 13.7333 149.213 16.3733 148.92 20.04C148.92 20.7733 148.847 23.6333 148.7 28.62C148.7 33.6067 148.7 39.9133 148.7 47.54C148.7 55.1667 148.627 63.38 148.48 72.18C148.48 80.98 148.48 89.78 148.48 98.58C148.48 107.233 148.48 115.007 148.48 121.9C148.48 125.42 148.553 128.647 148.7 131.58C148.993 134.367 149.213 136.787 149.36 138.84C149.507 140.747 149.58 142.213 149.58 143.24C149.58 145.587 149.067 147.053 148.04 147.64C147.16 148.373 146.133 148.74 144.96 148.74ZM219.098 148.3C211.032 148.3 203.992 146.32 197.978 142.36C191.965 138.4 187.272 132.827 183.898 125.64C180.525 118.307 178.838 109.873 178.838 100.34C178.838 91.8333 180.745 84.1333 184.558 77.24C188.518 70.2 193.725 64.5533 200.178 60.3C206.632 56.0467 213.672 53.92 221.298 53.92C227.165 53.92 232.372 55.0933 236.918 57.44C241.465 59.7867 244.985 63.0867 247.478 67.34C250.118 71.4467 251.438 76.2133 251.438 81.64C251.438 86.1867 249.238 88.46 244.838 88.46H198.418C196.365 88.46 194.898 89.0467 194.018 90.22C193.285 91.2467 192.918 93.3733 192.918 96.6C192.918 103.64 194.458 110.093 197.538 115.96C200.618 121.68 204.725 126.3 209.858 129.82C214.992 133.193 220.638 134.88 226.798 134.88C231.198 134.88 235.158 134.073 238.678 132.46C242.345 130.7 245.572 128.207 248.358 124.98C248.945 124.247 249.385 123.807 249.678 123.66C249.972 123.367 250.338 123.22 250.778 123.22C251.952 123.22 252.538 123.953 252.538 125.42C252.538 128.207 251.218 131.287 248.578 134.66C246.378 137.447 243.738 139.867 240.658 141.92C237.578 143.973 234.205 145.513 230.538 146.54C226.872 147.713 223.058 148.3 219.098 148.3ZM198.858 81.64H218.878C222.398 81.64 225.405 81.5667 227.898 81.42C230.392 81.2733 232.812 80.98 235.158 80.54C235.892 80.3933 236.332 79.9533 236.478 79.22C236.772 78.34 236.918 77.1667 236.918 75.7C236.918 71.4467 235.012 67.8533 231.198 64.92C227.532 61.84 223.132 60.3 217.998 60.3C214.625 60.3 211.252 61.3267 207.878 63.38C204.505 65.2867 201.718 67.7067 199.518 70.64C197.318 73.5733 196.218 76.5067 196.218 79.44C196.218 80.9067 197.098 81.64 198.858 81.64ZM305.041 149.62C304.454 149.62 303.721 148.447 302.841 146.1C301.961 143.9 301.374 142.287 301.081 141.26C300.054 138.767 299.101 136.2 298.221 133.56C297.341 130.773 296.461 128.207 295.581 125.86C292.354 116.767 288.834 107.893 285.021 99.24C281.354 90.44 277.761 81.5667 274.241 72.62C273.214 69.98 271.601 67.6333 269.401 65.58C267.348 63.38 265.221 61.9867 263.021 61.4C261.848 60.96 260.894 60.52 260.161 60.08C259.428 59.64 259.061 58.9067 259.061 57.88C259.061 57 259.574 56.4867 260.601 56.34C261.774 56.0467 262.728 55.9 263.461 55.9C266.394 55.9 268.521 55.9733 269.841 56.12C271.161 56.2667 272.481 56.4867 273.801 56.78C275.121 56.9267 277.028 57 279.521 57C282.161 57 284.141 56.9267 285.461 56.78C286.781 56.4867 288.174 56.2667 289.641 56.12C291.108 55.9733 293.234 55.9 296.021 55.9C296.754 55.9 297.634 56.0467 298.661 56.34C299.834 56.4867 300.421 57 300.421 57.88C300.421 58.9067 299.908 59.7133 298.881 60.3C297.854 60.8867 296.681 61.4 295.361 61.84C293.894 62.4267 292.794 63.6 292.061 65.36C291.328 66.9733 290.961 68.8067 290.961 70.86C290.961 71.8867 291.034 72.9133 291.181 73.94C291.328 74.9667 291.548 75.92 291.841 76.8L309.221 123C309.368 123.147 309.441 123.22 309.441 123.22C309.588 123.22 309.734 123.147 309.881 123L326.601 80.1C327.188 78.6333 327.628 77.0933 327.921 75.48C328.214 73.72 328.361 72.2533 328.361 71.08C328.361 68.1467 327.921 66.0933 327.041 64.92C326.161 63.6 324.694 62.5733 322.641 61.84C320.734 61.1067 319.414 60.52 318.681 60.08C317.948 59.64 317.581 58.9067 317.581 57.88C317.581 57 318.021 56.4867 318.901 56.34C319.928 56.0467 320.954 55.9 321.981 55.9C323.594 55.9 325.721 56.12 328.361 56.56C331.001 56.8533 334.228 57 338.041 57C341.854 57 344.421 56.8533 345.741 56.56C347.208 56.12 348.968 55.9 351.021 55.9C352.194 55.9 353.221 56.0467 354.101 56.34C354.981 56.4867 355.421 57 355.421 57.88C355.421 59.4933 353.734 60.8133 350.361 61.84C348.161 62.4267 345.741 64.1133 343.101 66.9C340.461 69.6867 338.334 72.9133 336.721 76.58L319.561 117.94C319.268 118.527 318.681 119.993 317.801 122.34C316.921 124.54 315.968 127.033 314.941 129.82C313.914 132.46 313.034 134.807 312.301 136.86C311.568 138.767 311.201 139.72 311.201 139.72C311.201 139.72 310.908 140.453 310.321 141.92C309.734 143.24 309.074 144.633 308.341 146.1C307.608 147.713 306.948 148.887 306.361 149.62H305.041ZM395.7 148.3C387.633 148.3 380.593 146.32 374.58 142.36C368.567 138.4 363.873 132.827 360.5 125.64C357.127 118.307 355.44 109.873 355.44 100.34C355.44 91.8333 357.347 84.1333 361.16 77.24C365.12 70.2 370.327 64.5533 376.78 60.3C383.233 56.0467 390.273 53.92 397.9 53.92C403.767 53.92 408.973 55.0933 413.52 57.44C418.067 59.7867 421.587 63.0867 424.08 67.34C426.72 71.4467 428.04 76.2133 428.04 81.64C428.04 86.1867 425.84 88.46 421.44 88.46H375.02C372.967 88.46 371.5 89.0467 370.62 90.22C369.887 91.2467 369.52 93.3733 369.52 96.6C369.52 103.64 371.06 110.093 374.14 115.96C377.22 121.68 381.327 126.3 386.46 129.82C391.593 133.193 397.24 134.88 403.4 134.88C407.8 134.88 411.76 134.073 415.28 132.46C418.947 130.7 422.173 128.207 424.96 124.98C425.547 124.247 425.987 123.807 426.28 123.66C426.573 123.367 426.94 123.22 427.38 123.22C428.553 123.22 429.14 123.953 429.14 125.42C429.14 128.207 427.82 131.287 425.18 134.66C422.98 137.447 420.34 139.867 417.26 141.92C414.18 143.973 410.807 145.513 407.14 146.54C403.473 147.713 399.66 148.3 395.7 148.3ZM375.46 81.64H395.48C399 81.64 402.007 81.5667 404.5 81.42C406.993 81.2733 409.413 80.98 411.76 80.54C412.493 80.3933 412.933 79.9533 413.08 79.22C413.373 78.34 413.52 77.1667 413.52 75.7C413.52 71.4467 411.613 67.8533 407.8 64.92C404.133 61.84 399.733 60.3 394.6 60.3C391.227 60.3 387.853 61.3267 384.48 63.38C381.107 65.2867 378.32 67.7067 376.12 70.64C373.92 73.5733 372.82 76.5067 372.82 79.44C372.82 80.9067 373.7 81.64 375.46 81.64ZM445.343 145.66C443.876 145.66 442.776 145.44 442.043 145C441.309 144.707 440.943 144.12 440.943 143.24C440.943 142.067 441.383 141.333 442.263 141.04C443.143 140.6 444.389 140.16 446.003 139.72C448.789 138.987 450.843 137.96 452.163 136.64C453.629 135.173 454.363 133.413 454.363 131.36V84.06C454.363 80.1 453.776 76.6533 452.603 73.72C451.429 70.7867 449.009 68.9533 445.343 68.22C444.756 68.0733 444.243 67.7067 443.803 67.12C443.363 66.5333 443.143 65.9467 443.143 65.36C443.143 63.8933 443.803 63.0133 445.123 62.72C448.936 61.5467 452.896 59.86 457.003 57.66C461.256 55.3133 464.556 53.4067 466.902 51.94C467.783 51.3533 468.443 50.9867 468.883 50.84C469.469 50.5467 469.909 50.4 470.203 50.4C470.936 50.4 471.303 50.9133 471.303 51.94C471.303 52.38 471.229 53.48 471.083 55.24C471.083 57 471.009 59.0533 470.863 61.4C470.863 63.7467 470.789 66.0933 470.643 68.44C470.643 68.7333 470.789 68.88 471.083 68.88C473.429 65.9467 475.996 63.38 478.783 61.18C481.716 58.98 484.649 57.22 487.583 55.9C490.663 54.58 493.596 53.92 496.383 53.92C499.463 53.92 501.956 54.58 503.863 55.9C505.916 57.22 506.943 58.9067 506.943 60.96C506.943 62.4267 506.503 64.04 505.623 65.8C504.889 67.56 503.863 69.1 502.543 70.42C501.223 71.74 499.829 72.4 498.363 72.4C497.483 72.4 496.529 72.2533 495.503 71.96C494.476 71.52 493.376 71.0067 492.203 70.42C491.029 69.98 489.856 69.54 488.683 69.1C487.509 68.66 486.336 68.44 485.163 68.44C481.643 68.44 478.196 69.6867 474.823 72.18C471.596 74.6733 469.983 79.5867 469.983 86.92V131.36C469.983 133.267 471.009 134.88 473.063 136.2C475.116 137.373 477.976 138.547 481.643 139.72C483.256 140.16 484.503 140.6 485.383 141.04C486.263 141.48 486.703 142.213 486.703 143.24C486.703 144.853 485.236 145.66 482.303 145.66C477.903 145.66 474.529 145.44 472.183 145C469.983 144.707 466.976 144.56 463.163 144.56C460.669 144.56 458.616 144.633 457.003 144.78C455.536 144.927 453.923 145.073 452.163 145.22C450.549 145.513 448.276 145.66 445.343 145.66ZM583.762 148.08C579.215 148.08 574.962 147.347 571.002 145.88C567.042 144.56 563.669 142.653 560.882 140.16C560.149 138.547 559.562 135.833 559.122 132.02C558.829 128.207 558.609 125.053 558.462 122.56C558.462 121.24 559.415 120.58 561.322 120.58C561.909 120.58 562.422 120.727 562.862 121.02C563.449 121.167 563.815 121.533 563.962 122.12C565.869 129.307 568.875 134.44 572.982 137.52C577.235 140.6 581.489 142.14 585.742 142.14C589.995 142.14 593.589 140.747 596.522 137.96C599.602 135.027 601.142 131.433 601.142 127.18C601.142 123.22 599.822 119.847 597.182 117.06C594.542 114.127 589.922 110.607 583.322 106.5C578.335 103.42 574.302 100.487 571.222 97.7C568.142 94.9133 565.869 92.0533 564.402 89.12C563.082 86.1867 562.422 82.8867 562.422 79.22C562.422 74.5267 563.522 70.2733 565.722 66.46C567.922 62.6467 571.222 59.64 575.622 57.44C580.022 55.0933 585.522 53.92 592.122 53.92C596.522 53.92 600.189 54.36 603.122 55.24C606.055 56.12 608.255 57.0733 609.722 58.1C610.895 59.7133 611.849 62.28 612.582 65.8C613.462 69.1733 613.902 72.4 613.902 75.48C613.902 76.5067 613.169 77.02 611.702 77.02C610.822 77.02 609.942 76.8733 609.062 76.58C608.329 76.14 607.815 75.6267 607.522 75.04C605.615 70.2 603.195 66.5333 600.262 64.04C597.475 61.4 593.955 60.08 589.702 60.08C586.035 60.08 582.735 61.18 579.802 63.38C577.015 65.58 575.622 68.8067 575.622 73.06C575.622 76.4333 576.649 79.44 578.702 82.08C580.902 84.72 584.935 87.7267 590.802 91.1C599.309 95.94 605.615 100.487 609.722 104.74C613.975 108.847 616.102 114.347 616.102 121.24C616.102 129.16 613.095 135.613 607.082 140.6C601.069 145.587 593.295 148.08 583.762 148.08ZM664.775 148.08C657.589 148.08 651.942 145.88 647.835 141.48C643.875 137.08 641.895 130.553 641.895 121.9V70.86C641.895 69.6867 641.455 68.88 640.575 68.44C639.695 67.8533 637.789 67.56 634.855 67.56H633.535C632.802 67.56 632.142 67.12 631.555 66.24C631.115 65.2133 630.895 64.1867 630.895 63.16C630.895 62.8667 631.115 62.4267 631.555 61.84C631.995 61.2533 632.289 60.8867 632.435 60.74C635.369 58.6867 638.009 56.6333 640.355 54.58C642.849 52.5267 645.049 50.5467 646.955 48.64C649.009 46.5867 650.695 44.7533 652.015 43.14C652.749 42.4067 653.335 41.82 653.775 41.38C654.362 40.7933 655.022 40.5 655.755 40.5C656.489 40.5 657.149 40.6467 657.735 40.94C658.469 41.2333 658.762 41.8933 658.615 42.92L657.515 52.82C657.369 54.4333 657.735 55.5333 658.615 56.12C659.495 56.7067 660.889 57 662.795 57H687.875C688.462 57 688.975 57.5133 689.415 58.54C689.855 59.42 690.075 60.52 690.075 61.84C690.075 63.16 689.855 64.48 689.415 65.8C688.975 66.9733 688.462 67.56 687.875 67.56H666.095C662.429 67.56 660.009 67.8533 658.835 68.44C657.809 69.0267 657.295 70.7867 657.295 73.72V117.06C657.295 122.927 658.542 127.547 661.035 130.92C663.529 134.293 667.122 135.98 671.815 135.98C676.069 135.98 679.369 135.687 681.715 135.1C684.062 134.367 686.189 133.34 688.095 132.02C688.389 131.727 688.682 131.58 688.975 131.58C689.562 131.58 689.929 131.947 690.075 132.68C690.369 133.267 690.515 133.927 690.515 134.66C690.515 135.393 689.269 136.86 686.775 139.06C684.429 141.26 681.275 143.313 677.315 145.22C673.502 147.127 669.322 148.08 664.775 148.08ZM743.855 148.08C735.642 148.08 728.235 146.173 721.635 142.36C715.035 138.547 709.755 133.34 705.795 126.74C701.982 119.993 700.075 112.367 700.075 103.86C700.075 97.7 701.248 91.6867 703.595 85.82C706.088 79.9533 709.535 74.6 713.935 69.76C718.335 64.92 723.468 61.1067 729.335 58.32C735.202 55.3867 741.508 53.92 748.255 53.92C756.762 53.92 764.388 55.9733 771.135 60.08C778.028 64.1867 783.455 69.6133 787.415 76.36C791.522 82.96 793.575 90.22 793.575 98.14C793.575 106.647 791.668 114.713 787.855 122.34C784.188 129.967 778.688 136.2 771.355 141.04C764.022 145.733 754.855 148.08 743.855 148.08ZM748.475 141.48C753.462 141.48 757.935 140.527 761.895 138.62C765.855 136.713 768.935 133.633 771.135 129.38C772.895 126.007 774.068 121.9 774.655 117.06C775.242 112.22 775.535 107.673 775.535 103.42C775.535 96.38 774.215 89.6333 771.575 83.18C769.082 76.58 765.488 71.2267 760.795 67.12C756.248 62.8667 750.822 60.74 744.515 60.74C740.555 60.74 736.962 61.4 733.735 62.72C730.655 63.8933 727.795 66.1667 725.155 69.54C722.222 73.2067 720.315 77.68 719.435 82.96C718.555 88.24 718.115 93.52 718.115 98.8C718.115 105.987 719.435 112.88 722.075 119.48C724.715 125.933 728.308 131.213 732.855 135.32C737.402 139.427 742.608 141.48 748.475 141.48ZM810.101 207.7C809.367 207.7 808.414 207.553 807.241 207.26C806.067 207.113 805.481 206.6 805.481 205.72C805.481 204.547 805.994 203.667 807.021 203.08C808.194 202.64 809.367 202.2 810.541 201.76C812.741 201.027 814.867 200.147 816.921 199.12C818.974 198.24 820.001 196.333 820.001 193.4V81.86C820.001 80.6867 819.634 78.9267 818.901 76.58C818.314 74.2333 817.287 71.96 815.821 69.76C814.354 67.56 812.374 66.24 809.881 65.8C809.294 65.6533 808.854 65.2867 808.561 64.7C808.267 64.1133 808.121 63.5267 808.121 62.94C808.121 62.2067 808.267 61.62 808.561 61.18C808.854 60.74 809.221 60.4467 809.661 60.3C815.234 58.98 820.001 57.5867 823.961 56.12C827.921 54.5067 831.661 52.9667 835.181 51.5C835.327 51.5 835.401 51.5 835.401 51.5C835.401 51.3533 835.474 51.28 835.621 51.28C835.914 51.28 836.207 51.5 836.501 51.94C836.794 52.38 836.941 52.82 836.941 53.26C836.941 54.58 836.721 56.7067 836.281 59.64C835.987 62.4267 835.841 64.7 835.841 66.46C835.841 67.6333 835.914 68.2933 836.061 68.44C837.527 66.9733 840.167 65.14 843.981 62.94C847.941 60.5933 852.414 58.54 857.401 56.78C862.387 54.8733 867.154 53.92 871.701 53.92C879.327 53.92 885.781 55.9733 891.061 60.08C896.487 64.04 900.594 69.2467 903.381 75.7C906.314 82.0067 907.781 88.6067 907.781 95.5C907.781 102.1 906.534 108.553 904.041 114.86C901.547 121.02 898.027 126.593 893.481 131.58C888.934 136.567 883.654 140.6 877.641 143.68C871.627 146.613 865.174 148.08 858.281 148.08C856.227 148.08 853.734 147.713 850.801 146.98C848.014 146.393 845.227 145.587 842.441 144.56C839.801 143.533 837.747 142.36 836.281 141.04C836.134 141.04 835.987 141.92 835.841 143.68C835.694 145.293 835.547 146.98 835.401 148.74C835.401 150.647 835.401 151.82 835.401 152.26V193.4C835.401 195.307 836.134 196.773 837.601 197.8C839.214 198.973 840.974 199.78 842.881 200.22C844.934 200.807 846.694 201.32 848.161 201.76C849.334 202.2 850.434 202.64 851.461 203.08C852.634 203.667 853.221 204.547 853.221 205.72C853.221 206.6 852.634 207.113 851.461 207.26C850.287 207.553 849.261 207.7 848.381 207.7C844.127 207.7 840.534 207.48 837.601 207.04C834.814 206.747 831.514 206.6 827.701 206.6C825.207 206.6 823.154 206.673 821.541 206.82C820.074 206.967 818.534 207.113 816.921 207.26C815.307 207.553 813.034 207.7 810.101 207.7ZM861.581 141.26C863.781 141.26 866.421 140.6 869.501 139.28C872.727 137.96 875.881 135.833 878.961 132.9C882.187 129.967 884.827 126.007 886.881 121.02C889.081 116.033 890.181 109.873 890.181 102.54C890.181 94.0333 889.081 87.2133 886.881 82.08C884.681 76.9467 881.967 73.06 878.741 70.42C875.514 67.78 872.214 66.02 868.841 65.14C865.467 64.26 862.607 63.82 860.261 63.82C856.741 63.82 853.074 64.5533 849.261 66.02C845.594 67.4867 842.441 69.1733 839.801 71.08C837.307 72.84 836.061 74.2333 836.061 75.26C836.061 78.4867 835.987 81.7867 835.841 85.16C835.841 88.3867 835.767 91.54 835.621 94.62C835.621 97.7 835.547 100.487 835.401 102.98C835.401 105.327 835.401 107.16 835.401 108.48C835.401 114.347 836.721 119.773 839.361 124.76C842.147 129.747 845.521 133.78 849.481 136.86C853.587 139.793 857.621 141.26 861.581 141.26Z" fill="#2D2F31"/>
</svg>
