<svg width="105" height="105" viewBox="0 0 105 105" fill="none" xmlns="http://www.w3.org/2000/svg">
<path d="M29.4951 26.7972C34.8018 20.2828 41.9947 15.5707 50.0865 13.3076C58.1782 11.0446 66.7721 11.3416 74.6883 14.1578C82.6045 16.9741 89.455 22.1715 94.2993 29.0367C99.1436 35.9018 101.744 44.0981 101.744 52.5003C101.744 60.9026 99.1436 69.0989 94.2993 75.964C89.455 82.8291 82.6045 88.0266 74.6883 90.8428C66.7721 93.6591 58.1782 93.9561 50.0865 91.693C41.9947 89.43 34.8018 84.7178 29.4951 78.2035" stroke="black" stroke-linecap="round" stroke-linejoin="round"/>
<path d="M7.51921 26.7969H50.3578C50.3578 26.7969 54.6416 26.7969 54.6416 31.0807V73.9193C54.6416 73.9193 54.6416 78.2031 50.3578 78.2031H7.51921C7.51921 78.2031 3.23535 78.2031 3.23535 73.9193V31.0807C3.23535 31.0807 3.23535 26.7969 7.51921 26.7969Z" stroke="black" stroke-linecap="round" stroke-linejoin="round"/>
<path d="M62.6953 11.8467V52.5005H101.764" stroke="black" stroke-linecap="round" stroke-linejoin="round"/>
<path d="M20.3711 65.3516V39.6484" stroke="black" stroke-linecap="round" stroke-linejoin="round"/>
<path d="M37.5065 47.1452C37.5065 49.1334 36.7167 51.0403 35.3108 52.4462C33.9049 53.8521 31.998 54.6419 30.0098 54.6419H20.3711V39.6484H30.0098C31.998 39.6484 33.9049 40.4383 35.3108 41.8442C36.7167 43.2501 37.5065 45.1569 37.5065 47.1452Z" stroke="black" stroke-linecap="round" stroke-linejoin="round"/>
</svg>
