<svg width="157" height="105" viewBox="0 0 157 105" fill="none" xmlns="http://www.w3.org/2000/svg">
<path d="M14.586 50.932C14.586 51.1227 14.564 51.2767 14.52 51.394C14.4907 51.5113 14.432 51.57 14.344 51.57C14.168 51.57 14.036 51.328 13.948 50.844C13.8453 50.2867 13.6767 49.8833 13.442 49.634C13.2073 49.37 12.8187 49.238 12.276 49.238L2.992 49.238C2.332 49.238 1.826 49.326 1.474 49.502C1.122 49.6633 0.894668 50.0227 0.792001 50.58C0.748001 50.8293 0.689335 51.0127 0.616 51.13C0.542667 51.2473 0.454667 51.306 0.352001 51.306C0.264001 51.306 0.205335 51.2473 0.176001 51.13C0.132 51.0127 0.11 50.8587 0.11 50.668C0.11 50.272 0.11 49.9787 0.11 49.788C0.11 49.5827 0.117334 49.392 0.132001 49.216C0.132001 49.04 0.132001 48.8053 0.132001 48.512C0.132001 48.2187 0.124667 47.9253 0.11 47.632C0.080667 47.324 0.0586673 47.038 0.0440008 46.774C0.014667 46.51 1.79508e-08 46.2753 0 46.07C-1.46171e-07 44.398 0.344667 43.056 1.034 42.044C1.72333 41.0173 2.684 40.504 3.916 40.504C4.81067 40.504 5.63933 40.68 6.402 41.032C7.15 41.384 7.75133 41.9267 8.206 42.66C8.66067 43.3787 8.888 44.3027 8.888 45.432C8.888 45.7547 8.844 46.004 8.756 46.18C8.65333 46.3413 8.558 46.422 8.47 46.422C8.41133 46.422 8.34534 46.3853 8.272 46.312C8.19867 46.224 8.162 46.1433 8.162 46.07C8.162 45.9967 8.16933 45.8867 8.184 45.74C8.19867 45.5787 8.206 45.3513 8.206 45.058C8.206 44.178 7.83933 43.518 7.106 43.078C6.37267 42.6233 5.36067 42.396 4.07 42.396C2.89667 42.396 2.03133 42.7407 1.474 43.43C0.902 44.1193 0.616 44.9993 0.616 46.07C0.616 46.4807 0.689334 46.818 0.836001 47.082C0.968001 47.346 1.20267 47.478 1.54 47.478H12.034C12.562 47.478 12.9873 47.368 13.31 47.148C13.6327 46.928 13.8453 46.5467 13.948 46.004C13.992 45.7547 14.0433 45.5713 14.102 45.454C14.1607 45.3367 14.2413 45.278 14.344 45.278C14.432 45.278 14.4907 45.3367 14.52 45.454C14.564 45.5713 14.586 45.7253 14.586 45.916C14.586 46.312 14.5713 46.62 14.542 46.84C14.5127 47.0453 14.4907 47.236 14.476 47.412C14.4467 47.5733 14.432 47.7933 14.432 48.072C14.432 48.4387 14.4467 48.7687 14.476 49.062C14.4907 49.3407 14.5127 49.6267 14.542 49.92C14.5713 50.1987 14.586 50.536 14.586 50.932Z" fill="#707070"/>
<path d="M15.3974 41.4932C15.376 41.6383 15.3382 41.7439 15.284 41.81C15.2443 41.8783 15.1809 41.906 15.0938 41.8932C14.9777 41.8761 14.9116 41.8218 14.8954 41.7305C14.8647 41.637 14.8394 41.5073 14.8194 41.3413C14.7875 41.0549 14.7158 40.8368 14.6045 40.6869C14.4808 40.5204 14.3174 40.4222 14.1142 40.3923L9.43479 39.7025C9.04302 39.6448 8.69348 39.6525 8.38617 39.7258C8.07887 39.7991 7.8622 40.0118 7.73618 40.3639C7.71312 40.4198 7.66936 40.4652 7.6049 40.5002C7.54044 40.5352 7.4792 40.5484 7.42116 40.5398C7.27606 40.5184 7.19862 40.4403 7.18885 40.3054C7.12838 39.9111 7.01927 39.4947 6.86151 39.0563C6.69137 38.6013 6.55087 38.2471 6.43999 37.9935C6.39479 37.8979 6.36814 37.8273 6.36004 37.7816C6.33958 37.7193 6.33148 37.6736 6.33576 37.6446C6.34646 37.572 6.40259 37.5432 6.50416 37.5582C6.54769 37.5646 6.65544 37.5879 6.82742 37.6281C7.00154 37.6538 7.20361 37.691 7.43363 37.7397C7.66579 37.7739 7.89687 37.8154 8.12689 37.8641C8.15591 37.8684 8.17256 37.856 8.17684 37.827C7.92086 37.5521 7.70437 37.2607 7.52736 36.953C7.35249 36.6307 7.22115 36.3148 7.13333 36.0054C7.04766 35.6814 7.02514 35.3816 7.06578 35.1059C7.11069 34.8012 7.21235 34.5642 7.37074 34.3948C7.53128 34.2109 7.71311 34.1339 7.91625 34.1639C8.06135 34.1852 8.21454 34.2523 8.37583 34.365C8.53925 34.4632 8.67663 34.5873 8.78797 34.7371C8.89931 34.8869 8.94429 35.0344 8.9229 35.1795C8.91007 35.2666 8.88165 35.3587 8.83766 35.456C8.77916 35.5512 8.71233 35.6525 8.63718 35.7601C8.57654 35.8697 8.5159 35.9794 8.45526 36.089C8.39462 36.1987 8.35575 36.3116 8.33864 36.4277C8.28731 36.7759 8.36038 37.1351 8.55785 37.5051C8.75747 37.8607 9.22002 38.092 9.94551 38.1989L14.342 38.847C14.5306 38.8748 14.7052 38.7967 14.8657 38.6129C15.0118 38.4268 15.1696 38.161 15.3391 37.8154C15.4062 37.6622 15.4679 37.5452 15.5242 37.4646C15.5806 37.384 15.6596 37.3511 15.7611 37.3661C15.9207 37.3896 15.9792 37.5465 15.9364 37.8367C15.8722 38.272 15.8013 38.6025 15.7235 38.8282C15.6624 39.0416 15.6041 39.3369 15.5484 39.7142C15.5121 39.9609 15.4894 40.1651 15.4804 40.3268C15.4735 40.474 15.4645 40.6358 15.4533 40.812C15.4588 40.9759 15.4402 41.203 15.3974 41.4932Z" fill="#707070"/>
<path d="M17.7929 32.107C17.5997 32.8902 17.2389 33.5263 16.7104 34.0153C16.1819 34.5042 15.5284 34.8264 14.7498 34.9818C13.9571 35.1337 13.0979 35.0955 12.1723 34.8672C11.3464 34.6634 10.6445 34.2939 10.0665 33.7586C9.47785 33.2055 9.05431 32.5647 8.79592 31.8363C8.53752 31.1079 8.49965 30.3735 8.68231 29.633C8.82281 29.0634 9.06143 28.586 9.39816 28.2008C9.73489 27.8155 10.1396 27.5528 10.6123 27.4126C11.0742 27.2546 11.5686 27.2406 12.0955 27.3706C12.5369 27.4795 12.7049 27.7475 12.5996 28.1747L11.4878 32.6816C11.4386 32.881 11.4605 33.0374 11.5533 33.151C11.6354 33.2468 11.8331 33.3333 12.1464 33.4106C12.8299 33.5792 13.4933 33.5842 14.1367 33.4257C14.7658 33.2637 15.3127 32.9756 15.7774 32.5615C16.2279 32.1439 16.5269 31.6361 16.6744 31.038C16.7798 30.6108 16.7963 30.207 16.724 29.8266C16.6409 29.4285 16.4761 29.0555 16.2296 28.7076C16.1724 28.6331 16.1403 28.5798 16.133 28.5479C16.1116 28.5124 16.1061 28.4732 16.1167 28.4305C16.1448 28.3166 16.23 28.2772 16.3724 28.3123C16.643 28.3791 16.9104 28.581 17.1747 28.9181C17.3925 29.1984 17.5643 29.5127 17.6899 29.8609C17.8155 30.2091 17.8842 30.5735 17.896 30.9541C17.9222 31.3382 17.8878 31.7225 17.7929 32.107ZM10.8362 32.4756L11.3157 30.5318C11.4 30.1901 11.4649 29.8964 11.5103 29.6508C11.5558 29.4052 11.5853 29.1633 11.5988 28.9249C11.6021 28.8502 11.5699 28.7969 11.5022 28.7651C11.4238 28.7155 11.3134 28.6732 11.171 28.6381C10.7581 28.5362 10.3635 28.6353 9.9874 28.9353C9.60055 29.2175 9.34565 29.6078 9.2227 30.1062C9.14191 30.4337 9.1608 30.7858 9.27937 31.1625C9.38369 31.5357 9.55191 31.8642 9.78402 32.148C10.0161 32.4319 10.2746 32.609 10.5594 32.6792C10.7018 32.7143 10.794 32.6465 10.8362 32.4756Z" fill="#707070"/>
<path d="M20.2812 25.9885C20.2614 26.0437 20.1262 26.0732 19.8756 26.0769C19.6388 26.0856 19.4671 26.0864 19.3606 26.0794C19.0912 26.092 18.8175 26.0952 18.5393 26.089C18.2472 26.0779 17.9759 26.0742 17.7253 26.0779C16.7605 26.0751 15.8064 26.1072 14.8632 26.1744C13.9111 26.2229 12.9545 26.262 11.9936 26.2917C11.7104 26.2993 11.4351 26.3721 11.1676 26.5099C10.8912 26.6291 10.6883 26.7823 10.5589 26.9696C10.4779 27.0652 10.4044 27.1402 10.3382 27.1944C10.2721 27.2486 10.1907 27.2583 10.094 27.2237C10.0112 27.194 9.98015 27.1284 10.001 27.0268C10.0129 26.9065 10.0312 26.8118 10.056 26.7427C10.1549 26.4666 10.2335 26.2688 10.2918 26.1495C10.3501 26.0302 10.4154 25.9133 10.4875 25.799C10.5458 25.6796 10.617 25.5026 10.7011 25.2679C10.7901 25.0193 10.85 24.8305 10.8807 24.7013C10.8976 24.5671 10.9238 24.4285 10.9595 24.2855C10.9951 24.1425 11.0599 23.9398 11.1539 23.6774C11.1786 23.6084 11.2221 23.5305 11.2844 23.4437C11.3377 23.3382 11.4058 23.3003 11.4887 23.33C11.5853 23.3646 11.644 23.4401 11.6646 23.5565C11.6852 23.673 11.6939 23.8008 11.6909 23.9399C11.6966 24.0977 11.77 24.2408 11.911 24.3692C12.0381 24.4927 12.1984 24.589 12.3917 24.6582C12.4883 24.6929 12.5874 24.7206 12.689 24.7414C12.7906 24.7622 12.8878 24.7736 12.9806 24.7757L17.916 24.6974C17.9348 24.6885 17.9442 24.6841 17.9442 24.6841C17.9491 24.6703 17.9471 24.654 17.9383 24.6352L14.4633 21.6146C14.345 21.5099 14.2149 21.4165 14.0729 21.3345C13.9171 21.2475 13.784 21.1843 13.6735 21.1447C13.3974 21.0458 13.1892 21.018 13.0491 21.0613C12.8951 21.0996 12.749 21.2031 12.6107 21.3716C12.4774 21.5264 12.3777 21.6309 12.3115 21.6851C12.2454 21.7393 12.164 21.7491 12.0673 21.7145C11.9845 21.6848 11.951 21.6261 11.9668 21.5383C11.9739 21.4317 11.9947 21.3301 12.0293 21.2335C12.0837 21.0816 12.1761 20.8888 12.3066 20.6551C12.4232 20.4164 12.5458 20.1176 12.6744 19.7586C12.803 19.3996 12.8757 19.153 12.8926 19.0189C12.9006 18.866 12.9393 18.6929 13.0085 18.4995C13.0481 18.3891 13.0965 18.2974 13.1538 18.2244C13.1973 18.1465 13.2604 18.1224 13.3433 18.1521C13.4952 18.2065 13.5626 18.4098 13.5455 18.762C13.5265 18.9889 13.6037 19.2736 13.777 19.6161C13.9504 19.9586 14.1824 20.2676 14.4732 20.5431L17.7883 23.5533C17.8337 23.6007 17.952 23.7054 18.1432 23.8674C18.3207 24.0244 18.5232 24.1982 18.751 24.3888C18.9649 24.5745 19.1561 24.7365 19.3247 24.8748C19.4795 25.0081 19.5569 25.0748 19.5569 25.0748C19.5569 25.0748 19.616 25.1271 19.7343 25.2318C19.8388 25.3315 19.9477 25.4406 20.0611 25.5591C20.1882 25.6826 20.2764 25.7843 20.3257 25.8642L20.2812 25.9885Z" fill="#707070"/>
<path d="M23.5585 19.3611C23.2006 20.084 22.7108 20.6271 22.0892 20.9903C21.4675 21.3535 20.7598 21.5269 19.966 21.5103C19.1592 21.4873 18.3285 21.2643 17.4742 20.8413C16.7118 20.4639 16.1063 19.9514 15.6578 19.3038C15.2025 18.6366 14.9275 17.9194 14.8326 17.1524C14.7378 16.3853 14.8595 15.66 15.1979 14.9765C15.4582 14.4508 15.7943 14.0362 16.2064 13.7329C16.6184 13.4295 17.0703 13.2605 17.5621 13.2257C18.0473 13.1713 18.533 13.2645 19.0194 13.5053C19.4268 13.707 19.533 14.005 19.3377 14.3994L17.2782 18.5595C17.1871 18.7435 17.1746 18.901 17.2407 19.0319C17.3002 19.1432 17.4745 19.2704 17.7637 19.4135C18.3946 19.7259 19.0413 19.8742 19.7037 19.8584C20.353 19.8362 20.9492 19.6731 21.4924 19.3693C22.0225 19.0589 22.4242 18.6277 22.6975 18.0756C22.8927 17.6813 22.9961 17.2906 23.0077 16.9036C23.0126 16.4969 22.9323 16.0971 22.7668 15.7042C22.7271 15.6191 22.7072 15.5601 22.7071 15.5273C22.6938 15.488 22.6969 15.4487 22.7164 15.4092C22.7685 15.3041 22.8602 15.284 22.9917 15.3491C23.2414 15.4727 23.4589 15.7277 23.6441 16.114C23.7962 16.4348 23.8959 16.7787 23.9433 17.1458C23.9907 17.513 23.979 17.8836 23.9084 18.2578C23.8508 18.6384 23.7342 19.0062 23.5585 19.3611ZM16.6865 18.2175L17.5748 16.4233C17.7309 16.1078 17.8578 15.8351 17.9552 15.6052C18.0527 15.3752 18.1338 15.1453 18.1985 14.9155C18.2179 14.8433 18.198 14.7843 18.1388 14.7386C18.0729 14.6733 17.9743 14.6081 17.8428 14.543C17.4616 14.3543 17.055 14.3658 16.6229 14.5774C16.1842 14.7693 15.851 15.0953 15.6233 15.5554C15.4736 15.8577 15.4159 16.2055 15.4503 16.5989C15.4715 16.9859 15.5647 17.343 15.73 17.6703C15.8953 17.9976 16.1094 18.2263 16.3722 18.3564C16.5037 18.4215 16.6084 18.3752 16.6865 18.2175Z" fill="#707070"/>
<path d="M27.6168 13.5874C27.6011 13.6122 27.573 13.6291 27.5325 13.6381C27.492 13.6471 27.4492 13.6459 27.4042 13.6347L19.359 12.1403C19.0564 12.0694 18.7718 12.0796 18.5052 12.1707C18.2262 12.254 18.003 12.3727 17.8354 12.5268C17.7353 12.6021 17.629 12.6736 17.5165 12.7411C17.4119 12.7962 17.3162 12.7962 17.2296 12.7411C17.1554 12.6939 17.1396 12.623 17.1824 12.5285C17.2206 12.4138 17.2594 12.3255 17.2988 12.2636C17.4011 12.1027 17.5018 11.9582 17.6008 11.8299C17.7076 11.6893 17.8207 11.5526 17.9399 11.4199C18.0468 11.2793 18.1514 11.1285 18.2537 10.9677C18.3639 10.7944 18.468 10.6172 18.5658 10.4361C18.6513 10.2471 18.739 10.0683 18.829 9.89954C18.9269 9.71843 19.0309 9.54125 19.1411 9.36801C19.1726 9.31852 19.2322 9.25214 19.32 9.1689C19.3953 9.07778 19.4701 9.05584 19.5444 9.10308C19.631 9.15819 19.6676 9.25099 19.6541 9.38148C19.6485 9.49959 19.6327 9.61995 19.6069 9.74257C19.5653 9.88993 19.5951 10.048 19.6963 10.2167C19.7931 10.3652 19.9281 10.4945 20.1013 10.6048C20.2622 10.7071 20.4427 10.7785 20.643 10.819L25.295 11.745C25.3523 11.7641 25.3968 11.749 25.4283 11.6995C25.4598 11.65 25.4547 11.6033 25.4131 11.5594L23.2092 8.38403C23.0877 8.2198 22.9566 8.08426 22.816 7.97741C22.6833 7.85818 22.5489 7.75526 22.4127 7.66866C22.1405 7.49544 21.8508 7.4589 21.5438 7.55904C21.2367 7.65917 20.9729 7.78687 20.7524 7.94211C20.6523 8.01749 20.546 8.08893 20.4335 8.15643C20.3289 8.21155 20.2333 8.21156 20.1467 8.15645C20.0725 8.10921 20.0567 8.03834 20.0994 7.94385C20.1298 7.84148 20.1686 7.75317 20.2158 7.67893C20.3261 7.50569 20.4627 7.33189 20.6258 7.15752C20.7844 6.9629 20.9739 6.69236 21.1944 6.34588C21.4149 5.9994 21.5914 5.69454 21.7242 5.43131C21.8445 5.16021 21.9677 4.92566 22.0936 4.72767C22.133 4.6658 22.1926 4.59943 22.2725 4.52856C22.3478 4.43744 22.4226 4.4155 22.4969 4.46274C22.5835 4.51785 22.6201 4.61065 22.6066 4.74114C22.601 4.85925 22.5852 4.97961 22.5594 5.10223C22.5223 5.26984 22.4998 5.45544 22.4919 5.65905C22.4919 5.85028 22.6033 6.01675 22.826 6.15847C22.9003 6.20571 22.9908 6.25464 23.0977 6.30525C23.2001 6.33562 23.3227 6.36148 23.4655 6.38284L27.9336 7.27007C28.1091 7.2948 28.2087 7.28861 28.2323 7.25149C28.2638 7.20199 28.2334 7.11313 28.1412 6.9849L25.7534 3.48387C25.6859 3.37138 25.5818 3.26171 25.4412 3.15486C25.3084 3.03563 25.1987 2.94846 25.1121 2.89335C24.8894 2.75163 24.6627 2.71171 24.4321 2.77359C24.2015 2.83548 24.0182 2.91873 23.8821 3.02335C23.782 3.09873 23.6757 3.17017 23.5632 3.23767C23.4586 3.29279 23.363 3.2928 23.2763 3.23769C23.2021 3.19045 23.1863 3.11958 23.2291 3.02509C23.2673 2.91035 23.3061 2.82204 23.3455 2.76017C23.5187 2.48794 23.6751 2.2832 23.8145 2.14595C23.9416 2.00083 24.1115 1.76122 24.3241 1.42712C24.4736 1.19201 24.5737 1.02102 24.6244 0.914149C24.6626 0.799409 24.6991 0.700979 24.734 0.61886C24.7689 0.536741 24.8296 0.427624 24.9162 0.291508C24.9635 0.217262 25.027 0.144702 25.1069 0.0738297C25.1744 -0.00491691 25.2452 -0.0206703 25.3195 0.0265696C25.4061 0.0816828 25.4427 0.174483 25.4292 0.304971C25.4236 0.423084 25.4078 0.543447 25.3819 0.666061C25.3133 0.883168 25.3477 1.15708 25.4849 1.48778C25.6098 1.81061 25.7752 2.12444 25.9811 2.42927L30.4512 8.84586C30.5142 8.93809 30.5221 9.02133 30.4749 9.09558C30.4434 9.14508 30.3686 9.16702 30.2505 9.1614L24.2334 8.0448C24.1108 8.01894 24.0315 8.02063 23.9955 8.04988C23.9719 8.087 24.0062 8.16968 24.0984 8.29791L27.5814 13.3563C27.6444 13.4485 27.6562 13.5256 27.6168 13.5874Z" fill="#707070"/>
<path d="M142.365 53.264C142.365 53.0733 142.387 52.9193 142.431 52.802C142.46 52.6846 142.519 52.626 142.607 52.626C142.783 52.626 142.915 52.868 143.003 53.352C143.105 53.9093 143.274 54.3126 143.509 54.562C143.743 54.826 144.132 54.958 144.675 54.958H153.959C154.619 54.958 155.125 54.87 155.477 54.694C155.829 54.5326 156.056 54.1733 156.159 53.616C156.203 53.3666 156.261 53.1833 156.335 53.066C156.408 52.9486 156.496 52.89 156.599 52.89C156.687 52.89 156.745 52.9486 156.775 53.066C156.819 53.1833 156.841 53.3373 156.841 53.528C156.841 53.924 156.841 54.2173 156.841 54.408C156.841 54.6133 156.833 54.804 156.819 54.98C156.819 55.156 156.819 55.3906 156.819 55.684C156.819 55.9773 156.826 56.2706 156.841 56.564C156.87 56.872 156.892 57.158 156.907 57.422C156.936 57.686 156.951 57.9206 156.951 58.126C156.951 59.798 156.606 61.14 155.917 62.152C155.227 63.1786 154.267 63.692 153.035 63.692C152.14 63.692 151.311 63.516 150.549 63.164C149.801 62.812 149.199 62.2693 148.745 61.536C148.29 60.8173 148.063 59.8933 148.063 58.764C148.063 58.4413 148.107 58.192 148.195 58.016C148.297 57.8546 148.393 57.774 148.481 57.774C148.539 57.774 148.605 57.8106 148.679 57.884C148.752 57.972 148.789 58.0526 148.789 58.126C148.789 58.1993 148.781 58.3093 148.767 58.456C148.752 58.6173 148.745 58.8446 148.745 59.138C148.745 60.018 149.111 60.678 149.845 61.118C150.578 61.5726 151.59 61.8 152.881 61.8C154.054 61.8 154.919 61.4553 155.477 60.766C156.049 60.0766 156.335 59.1966 156.335 58.126C156.335 57.7153 156.261 57.378 156.115 57.114C155.983 56.85 155.748 56.718 155.411 56.718H144.917C144.389 56.718 143.963 56.828 143.641 57.048C143.318 57.268 143.105 57.6493 143.003 58.192C142.959 58.4413 142.907 58.6246 142.849 58.742C142.79 58.8593 142.709 58.918 142.607 58.918C142.519 58.918 142.46 58.8593 142.431 58.742C142.387 58.6246 142.365 58.4706 142.365 58.28C142.365 57.884 142.379 57.576 142.409 57.356C142.438 57.1506 142.46 56.96 142.475 56.784C142.504 56.6226 142.519 56.4026 142.519 56.124C142.519 55.7573 142.504 55.4273 142.475 55.134C142.46 54.8553 142.438 54.5693 142.409 54.276C142.379 53.9973 142.365 53.66 142.365 53.264Z" fill="#707070"/>
<path d="M141.553 62.7028C141.575 62.5577 141.612 62.4521 141.667 62.386C141.706 62.3177 141.77 62.29 141.857 62.3028C141.973 62.3199 142.039 62.3741 142.055 62.4655C142.086 62.559 142.111 62.6887 142.131 62.8547C142.163 63.1411 142.235 63.3592 142.346 63.5091C142.47 63.6755 142.633 63.7738 142.836 63.8037L147.516 64.4935C147.908 64.5512 148.257 64.5435 148.564 64.4701C148.872 64.3968 149.088 64.1842 149.214 63.8321C149.237 63.7762 149.281 63.7308 149.346 63.6958C149.41 63.6608 149.471 63.6476 149.529 63.6562C149.674 63.6776 149.752 63.7557 149.762 63.8906C149.822 64.2849 149.931 64.7013 150.089 65.1396C150.259 65.5947 150.4 65.9489 150.511 66.2025C150.556 66.2981 150.582 66.3687 150.591 66.4144C150.611 66.4767 150.619 66.5224 150.615 66.5514C150.604 66.624 150.548 66.6527 150.446 66.6378C150.403 66.6314 150.295 66.6081 150.123 66.5679C149.949 66.5422 149.747 66.505 149.517 66.4563C149.285 66.4221 149.054 66.3806 148.824 66.3319C148.795 66.3276 148.778 66.34 148.774 66.369C149.03 66.6439 149.246 66.9353 149.423 67.243C149.598 67.5653 149.729 67.8812 149.817 68.1906C149.903 68.5146 149.925 68.8144 149.885 69.0901C149.84 69.3948 149.738 69.6318 149.58 69.8012C149.419 69.9851 149.237 70.0621 149.034 70.0321C148.889 70.0107 148.736 69.9437 148.575 69.831C148.411 69.7327 148.274 69.6087 148.163 69.4589C148.051 69.309 148.006 69.1616 148.028 69.0165C148.04 68.9294 148.069 68.8372 148.113 68.74C148.171 68.6448 148.238 68.5435 148.313 68.4359C148.374 68.3263 148.435 68.2166 148.495 68.107C148.556 67.9973 148.595 67.8844 148.612 67.7683C148.663 67.4201 148.59 67.0609 148.393 66.6909C148.193 66.3353 147.731 66.104 147.005 65.9971L142.609 65.349C142.42 65.3212 142.245 65.3992 142.085 65.5831C141.939 65.7692 141.781 66.035 141.611 66.3806C141.544 66.5338 141.483 66.6507 141.426 66.7314C141.37 66.812 141.291 66.8449 141.189 66.8299C141.03 66.8064 140.971 66.6495 141.014 66.3593C141.078 65.924 141.149 65.5935 141.227 65.3677C141.288 65.1544 141.346 64.8591 141.402 64.4818C141.438 64.2351 141.461 64.0309 141.47 63.8692C141.477 63.7219 141.486 63.5602 141.497 63.3839C141.492 63.2201 141.51 62.993 141.553 62.7028Z" fill="#707070"/>
<path d="M139.158 72.089C139.351 71.3058 139.712 70.6697 140.24 70.1807C140.769 69.6917 141.422 69.3695 142.201 69.2142C142.993 69.0623 143.853 69.1005 144.778 69.3288C145.604 69.5325 146.306 69.9021 146.884 70.4374C147.473 70.9905 147.896 71.6312 148.155 72.3597C148.413 73.0881 148.451 73.8225 148.268 74.563C148.128 75.1326 147.889 75.61 147.552 75.9952C147.216 76.3805 146.811 76.6432 146.338 76.7834C145.876 76.9414 145.382 76.9554 144.855 76.8254C144.414 76.7165 144.246 76.4485 144.351 76.0213L145.463 71.5144C145.512 71.315 145.49 71.1585 145.397 71.045C145.315 70.9492 145.117 70.8627 144.804 70.7854C144.121 70.6168 143.457 70.6118 142.814 70.7703C142.185 70.9323 141.638 71.2204 141.173 71.6345C140.723 72.0521 140.424 72.5599 140.276 73.158C140.171 73.5852 140.154 73.989 140.227 74.3694C140.31 74.7675 140.474 75.1405 140.721 75.4884C140.778 75.5629 140.81 75.6161 140.818 75.6481C140.839 75.6836 140.844 75.7227 140.834 75.7655C140.806 75.8794 140.721 75.9188 140.578 75.8837C140.308 75.8169 140.04 75.615 139.776 75.2779C139.558 74.9975 139.386 74.6833 139.261 74.3351C139.135 73.9868 139.066 73.6224 139.054 73.2419C139.028 72.8578 139.063 72.4735 139.158 72.089ZM146.114 71.7204L145.635 73.6641C145.551 74.0059 145.486 74.2996 145.44 74.5452C145.395 74.7908 145.365 75.0327 145.352 75.2711C145.348 75.3458 145.381 75.3991 145.448 75.4309C145.527 75.4804 145.637 75.5228 145.78 75.5579C146.192 75.6598 146.587 75.5607 146.963 75.2607C147.35 74.9785 147.605 74.5882 147.728 74.0898C147.809 73.7623 147.79 73.4102 147.671 73.0335C147.567 72.6603 147.399 72.3318 147.167 72.0479C146.934 71.7641 146.676 71.587 146.391 71.5168C146.249 71.4817 146.157 71.5495 146.114 71.7204Z" fill="#707070"/>
<path d="M136.669 78.2075C136.689 78.1523 136.824 78.1228 137.075 78.1191C137.312 78.1104 137.483 78.1096 137.59 78.1166C137.859 78.104 138.133 78.1008 138.411 78.107C138.703 78.1181 138.975 78.1218 139.225 78.1181C140.19 78.1209 141.144 78.0888 142.087 78.0216C143.039 77.9731 143.996 77.934 144.957 77.9043C145.24 77.8967 145.515 77.8239 145.783 77.6861C146.059 77.5669 146.262 77.4137 146.392 77.2264C146.473 77.1308 146.546 77.0558 146.612 77.0016C146.678 76.9474 146.76 76.9376 146.857 76.9723C146.939 77.0019 146.97 77.0676 146.95 77.1692C146.938 77.2895 146.919 77.3842 146.895 77.4533C146.796 77.7294 146.717 77.9272 146.659 78.0465C146.6 78.1658 146.535 78.2826 146.463 78.397C146.405 78.5164 146.334 78.6934 146.249 78.9281C146.16 79.1766 146.101 79.3655 146.07 79.4947C146.053 79.6289 146.027 79.7675 145.991 79.9105C145.955 80.0535 145.891 80.2562 145.797 80.5186C145.772 80.5876 145.728 80.6655 145.666 80.7523C145.613 80.8578 145.545 80.8957 145.462 80.866C145.365 80.8314 145.307 80.7559 145.286 80.6394C145.265 80.523 145.257 80.3952 145.26 80.2561C145.254 80.0983 145.181 79.9552 145.04 79.8268C144.912 79.7033 144.752 79.607 144.559 79.5377C144.462 79.5031 144.363 79.4754 144.261 79.4546C144.16 79.4338 144.063 79.4224 143.97 79.4203L139.035 79.4986C139.016 79.5075 139.006 79.5119 139.006 79.5119C139.001 79.5257 139.003 79.542 139.012 79.5608L142.487 82.5814C142.606 82.6861 142.736 82.7795 142.878 82.8615C143.033 82.9485 143.167 83.0117 143.277 83.0513C143.553 83.1502 143.761 83.178 143.901 83.1347C144.055 83.0964 144.202 82.9929 144.34 82.8244C144.473 82.6696 144.573 82.5651 144.639 82.5109C144.705 82.4567 144.787 82.4469 144.883 82.4815C144.966 82.5112 145 82.5699 144.984 82.6577C144.977 82.7643 144.956 82.8659 144.921 82.9625C144.867 83.1144 144.774 83.3072 144.644 83.5409C144.527 83.7795 144.405 84.0784 144.276 84.4374C144.148 84.7964 144.075 85.043 144.058 85.1771C144.05 85.33 144.011 85.5031 143.942 85.6964C143.902 85.8069 143.854 85.8986 143.797 85.9716C143.753 86.0495 143.69 86.0736 143.607 86.0439C143.455 85.9895 143.388 85.7862 143.405 85.434C143.424 85.2071 143.347 84.9224 143.174 84.5799C143 84.2374 142.768 83.9284 142.477 83.6529L139.162 80.6427C139.117 80.5953 138.999 80.4906 138.807 80.3286C138.63 80.1716 138.427 79.9978 138.2 79.8072C137.986 79.6215 137.794 79.4595 137.626 79.3212C137.471 79.1879 137.394 79.1212 137.394 79.1212C137.394 79.1212 137.335 79.0689 137.216 78.9642C137.112 78.8645 137.003 78.7553 136.889 78.6369C136.762 78.5134 136.674 78.4117 136.625 78.3318L136.669 78.2075Z" fill="#707070"/>
<path d="M133.392 84.8349C133.75 84.112 134.24 83.5689 134.861 83.2057C135.483 82.8425 136.191 82.6691 136.985 82.6857C137.791 82.7087 138.622 82.9317 139.476 83.3547C140.239 83.7321 140.844 84.2446 141.293 84.8922C141.748 85.5594 142.023 86.2766 142.118 87.0436C142.213 87.8107 142.091 88.5359 141.753 89.2194C141.492 89.7452 141.156 90.1598 140.744 90.4631C140.332 90.7665 139.88 90.9355 139.388 90.9703C138.903 91.0246 138.418 90.9315 137.931 90.6907C137.524 90.489 137.418 90.1909 137.613 89.7966L139.672 85.6365C139.763 85.4525 139.776 85.295 139.71 85.1641C139.65 85.0528 139.476 84.9256 139.187 84.7825C138.556 84.4701 137.909 84.3218 137.247 84.3376C136.598 84.3598 136.001 84.5229 135.458 84.8267C134.928 85.1371 134.526 85.5683 134.253 86.1204C134.058 86.5147 133.954 86.9054 133.943 87.2924C133.938 87.6991 134.018 88.0989 134.184 88.4918C134.223 88.5769 134.243 88.6359 134.243 88.6687C134.257 88.708 134.254 88.7473 134.234 88.7868C134.182 88.8919 134.09 88.9119 133.959 88.8469C133.709 88.7232 133.492 88.4683 133.306 88.082C133.154 87.7612 133.055 87.4173 133.007 87.0501C132.96 86.683 132.972 86.3124 133.042 85.9382C133.1 85.5576 133.216 85.1898 133.392 84.8349ZM140.264 85.9785L139.376 87.7727C139.22 88.0882 139.093 88.3609 138.995 88.5908C138.898 88.8208 138.817 89.0507 138.752 89.2805C138.733 89.3527 138.753 89.4117 138.812 89.4574C138.878 89.5227 138.976 89.5879 139.108 89.653C139.489 89.8417 139.896 89.8302 140.328 89.6186C140.766 89.4267 141.1 89.1007 141.327 88.6406C141.477 88.3383 141.535 87.9905 141.5 87.597C141.479 87.2101 141.386 86.853 141.221 86.5257C141.055 86.1984 140.841 85.9697 140.578 85.8395C140.447 85.7745 140.342 85.8208 140.264 85.9785Z" fill="#707070"/>
<path d="M129.334 90.6086C129.349 90.5838 129.378 90.5669 129.418 90.5579C129.459 90.5489 129.501 90.5501 129.546 90.5613L137.592 92.0557C137.894 92.1266 138.179 92.1164 138.445 92.0253C138.724 91.942 138.948 91.8233 139.115 91.6692C139.215 91.5938 139.322 91.5224 139.434 91.4549C139.539 91.3998 139.634 91.3998 139.721 91.4549C139.795 91.5021 139.811 91.573 139.768 91.6675C139.73 91.7822 139.691 91.8705 139.652 91.9324C139.549 92.0933 139.449 92.2378 139.35 92.3661C139.243 92.5067 139.13 92.6434 139.011 92.7761C138.904 92.9167 138.799 93.0675 138.697 93.2283C138.587 93.4016 138.483 93.5787 138.385 93.7599C138.299 93.9488 138.212 94.1277 138.122 94.2964C138.024 94.4776 137.92 94.6547 137.809 94.828C137.778 94.8775 137.718 94.9438 137.631 95.0271C137.555 95.1182 137.48 95.1402 137.406 95.0929C137.32 95.0378 137.283 94.945 137.296 94.8145C137.302 94.6964 137.318 94.576 137.344 94.4534C137.385 94.3061 137.355 94.148 137.254 93.9793C137.157 93.8308 137.022 93.7015 136.849 93.5912C136.688 93.4889 136.508 93.4175 136.308 93.377L131.656 92.451C131.598 92.4318 131.554 92.447 131.522 92.4965C131.491 92.546 131.496 92.5927 131.537 92.6366L133.741 95.812C133.863 95.9762 133.994 96.1117 134.135 96.2186C134.267 96.3378 134.402 96.4407 134.538 96.5273C134.81 96.7005 135.1 96.7371 135.407 96.637C135.714 96.5368 135.978 96.4091 136.198 96.2539C136.298 96.1785 136.405 96.1071 136.517 96.0396C136.622 95.9844 136.717 95.9844 136.804 96.0395C136.878 96.0868 136.894 96.1576 136.851 96.2521C136.821 96.3545 136.782 96.4428 136.735 96.5171C136.624 96.6903 136.488 96.8641 136.325 97.0385C136.166 97.2331 135.977 97.5036 135.756 97.8501C135.536 98.1966 135.359 98.5014 135.226 98.7647C135.106 99.0358 134.983 99.2703 134.857 99.4683C134.818 99.5302 134.758 99.5966 134.678 99.6674C134.603 99.7586 134.528 99.7805 134.454 99.7333C134.367 99.6781 134.33 99.5853 134.344 99.4549C134.35 99.3367 134.365 99.2164 134.391 99.0938C134.428 98.9262 134.451 98.7405 134.459 98.5369C134.459 98.3457 134.347 98.1792 134.125 98.0375C134.05 97.9903 133.96 97.9413 133.853 97.8907C133.75 97.8604 133.628 97.8345 133.485 97.8131L129.017 96.9259C128.841 96.9012 128.742 96.9074 128.718 96.9445C128.687 96.994 128.717 97.0829 128.809 97.2111L131.197 100.712C131.265 100.825 131.369 100.934 131.509 101.041C131.642 101.16 131.752 101.248 131.838 101.303C132.061 101.444 132.288 101.484 132.518 101.422C132.749 101.361 132.932 101.277 133.068 101.173C133.169 101.097 133.275 101.026 133.387 100.958C133.492 100.903 133.588 100.903 133.674 100.958C133.748 101.006 133.764 101.076 133.721 101.171C133.683 101.286 133.644 101.374 133.605 101.436C133.432 101.708 133.275 101.913 133.136 102.05C133.009 102.195 132.839 102.435 132.626 102.769C132.477 103.004 132.377 103.175 132.326 103.282C132.288 103.397 132.251 103.495 132.217 103.577C132.182 103.659 132.121 103.768 132.034 103.904C131.987 103.979 131.924 104.051 131.844 104.122C131.776 104.201 131.705 104.217 131.631 104.169C131.544 104.114 131.508 104.022 131.521 103.891C131.527 103.773 131.543 103.653 131.569 103.53C131.637 103.313 131.603 103.039 131.466 102.708C131.341 102.385 131.175 102.072 130.969 101.767L126.499 95.3501C126.436 95.2579 126.428 95.1747 126.476 95.1004C126.507 95.0509 126.582 95.029 126.7 95.0346L132.717 96.1512C132.84 96.177 132.919 96.1754 132.955 96.1461C132.979 96.109 132.944 96.0263 132.852 95.8981L129.369 90.8397C129.306 90.7475 129.294 90.6704 129.334 90.6086Z" fill="#707070"/>
</svg>
