<svg width="993" height="200" viewBox="0 0 993 200" fill="none" xmlns="http://www.w3.org/2000/svg">
<path d="M4.8 198.7C4.06667 198.7 3.11333 198.553 1.94 198.26C0.766667 198.113 0.18 197.6 0.18 196.72C0.18 195.547 0.693334 194.667 1.72 194.08C2.89333 193.64 4.06667 193.2 5.24 192.76C7.44 192.027 9.56667 191.147 11.62 190.12C13.6733 189.24 14.7 187.333 14.7 184.4V72.86C14.7 71.6867 14.3333 69.9267 13.6 67.58C13.0133 65.2333 11.9867 62.96 10.52 60.76C9.05333 58.56 7.07333 57.24 4.58 56.8C3.99333 56.6533 3.55333 56.2867 3.26 55.7C2.96667 55.1133 2.82 54.5267 2.82 53.94C2.82 53.2067 2.96667 52.62 3.26 52.18C3.55333 51.74 3.92 51.4467 4.36 51.3C9.93333 49.98 14.7 48.5867 18.66 47.12C22.62 45.5067 26.36 43.9667 29.88 42.5C30.0267 42.5 30.1 42.5 30.1 42.5C30.1 42.3533 30.1733 42.28 30.32 42.28C30.6133 42.28 30.9067 42.5 31.2 42.94C31.4933 43.38 31.64 43.82 31.64 44.26C31.64 45.58 31.42 47.7067 30.98 50.64C30.6867 53.4267 30.54 55.7 30.54 57.46C30.54 58.6333 30.6133 59.2933 30.76 59.44C32.2267 57.9733 34.8667 56.14 38.68 53.94C42.64 51.5933 47.1133 49.54 52.1 47.78C57.0867 45.8733 61.8533 44.92 66.4 44.92C74.0267 44.92 80.48 46.9733 85.76 51.08C91.1867 55.04 95.2933 60.2467 98.08 66.7C101.013 73.0067 102.48 79.6067 102.48 86.5C102.48 93.1 101.233 99.5533 98.74 105.86C96.2467 112.02 92.7267 117.593 88.18 122.58C83.6333 127.567 78.3533 131.6 72.34 134.68C66.3267 137.613 59.8733 139.08 52.98 139.08C50.9267 139.08 48.4333 138.713 45.5 137.98C42.7133 137.393 39.9267 136.587 37.14 135.56C34.5 134.533 32.4467 133.36 30.98 132.04C30.8333 132.04 30.6867 132.92 30.54 134.68C30.3933 136.293 30.2467 137.98 30.1 139.74C30.1 141.647 30.1 142.82 30.1 143.26V184.4C30.1 186.307 30.8333 187.773 32.3 188.8C33.9133 189.973 35.6733 190.78 37.58 191.22C39.6333 191.807 41.3933 192.32 42.86 192.76C44.0333 193.2 45.1333 193.64 46.16 194.08C47.3333 194.667 47.92 195.547 47.92 196.72C47.92 197.6 47.3333 198.113 46.16 198.26C44.9867 198.553 43.96 198.7 43.08 198.7C38.8267 198.7 35.2333 198.48 32.3 198.04C29.5133 197.747 26.2133 197.6 22.4 197.6C19.9067 197.6 17.8533 197.673 16.24 197.82C14.7733 197.967 13.2333 198.113 11.62 198.26C10.0067 198.553 7.73333 198.7 4.8 198.7ZM56.28 132.26C58.48 132.26 61.12 131.6 64.2 130.28C67.4267 128.96 70.58 126.833 73.66 123.9C76.8867 120.967 79.5267 117.007 81.58 112.02C83.78 107.033 84.88 100.873 84.88 93.54C84.88 85.0333 83.78 78.2133 81.58 73.08C79.38 67.9467 76.6667 64.06 73.44 61.42C70.2133 58.78 66.9133 57.02 63.54 56.14C60.1667 55.26 57.3067 54.82 54.96 54.82C51.44 54.82 47.7733 55.5533 43.96 57.02C40.2933 58.4867 37.14 60.1733 34.5 62.08C32.0067 63.84 30.76 65.2333 30.76 66.26C30.76 69.4867 30.6867 72.7867 30.54 76.16C30.54 79.3867 30.4667 82.54 30.32 85.62C30.32 88.7 30.2467 91.4867 30.1 93.98C30.1 96.3267 30.1 98.16 30.1 99.48C30.1 105.347 31.42 110.773 34.06 115.76C36.8467 120.747 40.22 124.78 44.18 127.86C48.2867 130.793 52.32 132.26 56.28 132.26ZM120.862 136.66C119.395 136.66 118.295 136.44 117.562 136C116.829 135.707 116.462 135.12 116.462 134.24C116.462 133.067 116.902 132.333 117.782 132.04C118.662 131.6 119.909 131.16 121.522 130.72C124.309 129.987 126.362 128.96 127.682 127.64C129.149 126.173 129.882 124.413 129.882 122.36V75.06C129.882 71.1 129.295 67.6533 128.122 64.72C126.949 61.7867 124.529 59.9533 120.862 59.22C120.275 59.0733 119.762 58.7067 119.322 58.12C118.882 57.5333 118.662 56.9467 118.662 56.36C118.662 54.8933 119.322 54.0133 120.642 53.72C124.455 52.5467 128.415 50.86 132.522 48.66C136.775 46.3133 140.075 44.4067 142.422 42.94C143.302 42.3533 143.962 41.9867 144.402 41.84C144.989 41.5467 145.429 41.4 145.722 41.4C146.455 41.4 146.822 41.9133 146.822 42.94C146.822 43.38 146.749 44.48 146.602 46.24C146.602 48 146.529 50.0533 146.382 52.4C146.382 54.7467 146.309 57.0933 146.162 59.44C146.162 59.7333 146.309 59.88 146.602 59.88C148.949 56.9467 151.515 54.38 154.302 52.18C157.235 49.98 160.169 48.22 163.102 46.9C166.182 45.58 169.115 44.92 171.902 44.92C174.982 44.92 177.475 45.58 179.382 46.9C181.435 48.22 182.462 49.9067 182.462 51.96C182.462 53.4267 182.022 55.04 181.142 56.8C180.409 58.56 179.382 60.1 178.062 61.42C176.742 62.74 175.349 63.4 173.882 63.4C173.002 63.4 172.049 63.2533 171.022 62.96C169.995 62.52 168.895 62.0067 167.722 61.42C166.549 60.98 165.375 60.54 164.202 60.1C163.029 59.66 161.855 59.44 160.682 59.44C157.162 59.44 153.715 60.6867 150.342 63.18C147.115 65.6733 145.502 70.5867 145.502 77.92V122.36C145.502 124.267 146.529 125.88 148.582 127.2C150.635 128.373 153.495 129.547 157.162 130.72C158.775 131.16 160.022 131.6 160.902 132.04C161.782 132.48 162.222 133.213 162.222 134.24C162.222 135.853 160.755 136.66 157.822 136.66C153.422 136.66 150.049 136.44 147.702 136C145.502 135.707 142.495 135.56 138.682 135.56C136.189 135.56 134.135 135.633 132.522 135.78C131.055 135.927 129.442 136.073 127.682 136.22C126.069 136.513 123.795 136.66 120.862 136.66ZM235.039 139.08C226.825 139.08 219.419 137.173 212.819 133.36C206.219 129.547 200.939 124.34 196.979 117.74C193.165 110.993 191.259 103.367 191.259 94.86C191.259 88.7 192.432 82.6867 194.779 76.82C197.272 70.9533 200.719 65.6 205.119 60.76C209.519 55.92 214.652 52.1067 220.519 49.32C226.385 46.3867 232.692 44.92 239.439 44.92C247.945 44.92 255.572 46.9733 262.319 51.08C269.212 55.1867 274.639 60.6133 278.599 67.36C282.705 73.96 284.759 81.22 284.759 89.14C284.759 97.6467 282.852 105.713 279.039 113.34C275.372 120.967 269.872 127.2 262.539 132.04C255.205 136.733 246.039 139.08 235.039 139.08ZM239.659 132.48C244.645 132.48 249.119 131.527 253.079 129.62C257.039 127.713 260.119 124.633 262.319 120.38C264.079 117.007 265.252 112.9 265.839 108.06C266.425 103.22 266.719 98.6733 266.719 94.42C266.719 87.38 265.399 80.6333 262.759 74.18C260.265 67.58 256.672 62.2267 251.979 58.12C247.432 53.8667 242.005 51.74 235.699 51.74C231.739 51.74 228.145 52.4 224.919 53.72C221.839 54.8933 218.979 57.1667 216.339 60.54C213.405 64.2067 211.499 68.68 210.619 73.96C209.739 79.24 209.299 84.52 209.299 89.8C209.299 96.9867 210.619 103.88 213.259 110.48C215.899 116.933 219.492 122.213 224.039 126.32C228.585 130.427 233.792 132.48 239.659 132.48ZM335.384 199.8C322.918 199.8 313.018 197.38 305.684 192.54C298.498 187.847 294.904 181.467 294.904 173.4C294.904 169.587 295.491 166.36 296.664 163.72C297.838 161.08 299.671 158.807 302.164 156.9C304.218 155.14 306.931 152.867 310.304 150.08C313.824 147.44 317.418 144.653 321.084 141.72L330.324 142.16C323.284 146.707 318.371 151.033 315.584 155.14C312.798 159.247 311.404 164.233 311.404 170.1C311.404 175.967 313.971 180.88 319.104 184.84C324.384 188.947 330.838 191 338.464 191C347.118 191 354.084 189.02 359.364 185.06C363.031 182.273 365.891 178.607 367.944 174.06C369.998 169.66 371.024 164.967 371.024 159.98C371.024 156.753 369.851 154.04 367.504 151.84C365.304 149.787 361.784 148.1 356.944 146.78C352.104 145.46 345.798 144.58 338.024 144.14C324.238 143.113 314.631 141.28 309.204 138.64C303.924 136 301.284 131.893 301.284 126.32C301.284 124.853 301.651 123.533 302.384 122.36C303.264 121.04 304.584 119.647 306.344 118.18C309.718 115.54 312.211 113.633 313.824 112.46C315.438 111.14 316.611 110.04 317.344 109.16C318.224 108.28 319.031 107.18 319.764 105.86L327.244 109.6C324.018 110.773 321.304 112.387 319.104 114.44C316.904 116.347 315.804 118.107 315.804 119.72C315.804 121.773 316.904 123.607 319.104 125.22C321.304 126.687 324.531 127.86 328.784 128.74C333.038 129.62 338.244 130.28 344.404 130.72C357.898 131.453 367.944 133.653 374.544 137.32C381.144 140.987 384.444 146.193 384.444 152.94C384.444 158.66 382.978 164.233 380.044 169.66C377.258 175.233 373.518 180.293 368.824 184.84C364.131 189.387 358.851 192.98 352.984 195.62C347.264 198.407 341.398 199.8 335.384 199.8ZM338.024 104.98C343.598 104.98 348.218 102.193 351.884 96.62C355.551 90.9 357.384 83.86 357.384 75.5C357.384 71.2467 356.358 67.2867 354.304 63.62C352.398 59.8067 349.831 56.8 346.604 54.6C343.524 52.2533 340.151 51.08 336.484 51.08C333.111 51.08 329.884 52.3267 326.804 54.82C323.871 57.1667 321.451 60.2467 319.544 64.06C317.784 67.8733 316.904 72.0533 316.904 76.6C316.904 81.7333 317.858 86.5 319.764 90.9C321.671 95.1533 324.238 98.6 327.464 101.24C330.691 103.733 334.211 104.98 338.024 104.98ZM336.704 112.68C330.691 112.68 324.971 111.14 319.544 108.06C314.118 104.98 309.644 100.947 306.124 95.96C302.751 90.8267 301.064 85.2533 301.064 79.24C301.064 72.3467 302.824 66.3333 306.344 61.2C310.011 55.92 314.778 51.8133 320.644 48.88C326.511 45.9467 332.744 44.48 339.344 44.48C343.598 44.48 347.264 45.0667 350.344 46.24C353.571 47.2667 356.724 48.22 359.804 49.1C363.324 50.1267 366.111 50.7867 368.164 51.08C370.218 51.2267 372.344 51.3 374.544 51.3C376.304 51.3 378.504 51.2267 381.144 51.08C383.784 50.7867 385.618 50.64 386.644 50.64C388.551 50.64 389.504 51.74 389.504 53.94C389.504 55.26 388.771 56.6533 387.304 58.12C386.571 58.8533 385.984 59.22 385.544 59.22H379.604C375.644 59.22 373.444 59.8067 373.004 60.98C372.858 61.5667 372.638 62.4467 372.344 63.62C372.198 64.6467 372.051 65.82 371.904 67.14C371.758 68.46 371.684 69.78 371.684 71.1C371.684 78.58 370.071 85.4733 366.844 91.78C363.618 98.0867 359.364 103.147 354.084 106.96C348.804 110.773 343.011 112.68 336.704 112.68ZM398.87 136.66C397.403 136.66 396.303 136.44 395.57 136C394.837 135.707 394.47 135.12 394.47 134.24C394.47 133.067 394.91 132.333 395.79 132.04C396.67 131.6 397.917 131.16 399.53 130.72C402.317 129.987 404.37 128.96 405.69 127.64C407.157 126.173 407.89 124.413 407.89 122.36V75.06C407.89 71.1 407.303 67.6533 406.13 64.72C404.957 61.7867 402.537 59.9533 398.87 59.22C398.283 59.0733 397.77 58.7067 397.33 58.12C396.89 57.5333 396.67 56.9467 396.67 56.36C396.67 54.8933 397.33 54.0133 398.65 53.72C402.463 52.5467 406.423 50.86 410.53 48.66C414.783 46.3133 418.083 44.4067 420.43 42.94C421.31 42.3533 421.97 41.9867 422.41 41.84C422.997 41.5467 423.437 41.4 423.73 41.4C424.463 41.4 424.83 41.9133 424.83 42.94C424.83 43.38 424.757 44.48 424.61 46.24C424.61 48 424.537 50.0533 424.39 52.4C424.39 54.7467 424.317 57.0933 424.17 59.44C424.17 59.7333 424.317 59.88 424.61 59.88C426.957 56.9467 429.523 54.38 432.31 52.18C435.243 49.98 438.177 48.22 441.11 46.9C444.19 45.58 447.123 44.92 449.91 44.92C452.99 44.92 455.483 45.58 457.39 46.9C459.443 48.22 460.47 49.9067 460.47 51.96C460.47 53.4267 460.03 55.04 459.15 56.8C458.417 58.56 457.39 60.1 456.07 61.42C454.75 62.74 453.357 63.4 451.89 63.4C451.01 63.4 450.057 63.2533 449.03 62.96C448.003 62.52 446.903 62.0067 445.73 61.42C444.557 60.98 443.383 60.54 442.21 60.1C441.037 59.66 439.863 59.44 438.69 59.44C435.17 59.44 431.723 60.6867 428.35 63.18C425.123 65.6733 423.51 70.5867 423.51 77.92V122.36C423.51 124.267 424.537 125.88 426.59 127.2C428.643 128.373 431.503 129.547 435.17 130.72C436.783 131.16 438.03 131.6 438.91 132.04C439.79 132.48 440.23 133.213 440.23 134.24C440.23 135.853 438.763 136.66 435.83 136.66C431.43 136.66 428.057 136.44 425.71 136C423.51 135.707 420.503 135.56 416.69 135.56C414.197 135.56 412.143 135.633 410.53 135.78C409.063 135.927 407.45 136.073 405.69 136.22C404.077 136.513 401.803 136.66 398.87 136.66ZM508.426 139.3C500.36 139.3 493.32 137.32 487.306 133.36C481.293 129.4 476.6 123.827 473.226 116.64C469.853 109.307 468.166 100.873 468.166 91.34C468.166 82.8333 470.073 75.1333 473.886 68.24C477.846 61.2 483.053 55.5533 489.506 51.3C495.96 47.0467 503 44.92 510.626 44.92C516.493 44.92 521.7 46.0933 526.246 48.44C530.793 50.7867 534.313 54.0867 536.806 58.34C539.446 62.4467 540.766 67.2133 540.766 72.64C540.766 77.1867 538.566 79.46 534.166 79.46H487.746C485.693 79.46 484.226 80.0467 483.346 81.22C482.613 82.2467 482.246 84.3733 482.246 87.6C482.246 94.64 483.786 101.093 486.866 106.96C489.946 112.68 494.053 117.3 499.186 120.82C504.32 124.193 509.966 125.88 516.126 125.88C520.526 125.88 524.486 125.073 528.006 123.46C531.673 121.7 534.9 119.207 537.686 115.98C538.273 115.247 538.713 114.807 539.006 114.66C539.3 114.367 539.666 114.22 540.106 114.22C541.28 114.22 541.866 114.953 541.866 116.42C541.866 119.207 540.546 122.287 537.906 125.66C535.706 128.447 533.066 130.867 529.986 132.92C526.906 134.973 523.533 136.513 519.866 137.54C516.2 138.713 512.386 139.3 508.426 139.3ZM488.186 72.64H508.206C511.726 72.64 514.733 72.5667 517.226 72.42C519.72 72.2733 522.14 71.98 524.486 71.54C525.22 71.3933 525.66 70.9533 525.806 70.22C526.1 69.34 526.246 68.1667 526.246 66.7C526.246 62.4467 524.34 58.8533 520.526 55.92C516.86 52.84 512.46 51.3 507.326 51.3C503.953 51.3 500.58 52.3267 497.206 54.38C493.833 56.2867 491.046 58.7067 488.846 61.64C486.646 64.5733 485.546 67.5067 485.546 70.44C485.546 71.9067 486.426 72.64 488.186 72.64ZM578.969 139.08C574.422 139.08 570.169 138.347 566.209 136.88C562.249 135.56 558.876 133.653 556.089 131.16C555.356 129.547 554.769 126.833 554.329 123.02C554.036 119.207 553.816 116.053 553.669 113.56C553.669 112.24 554.622 111.58 556.529 111.58C557.116 111.58 557.629 111.727 558.069 112.02C558.656 112.167 559.022 112.533 559.169 113.12C561.076 120.307 564.082 125.44 568.189 128.52C572.442 131.6 576.696 133.14 580.949 133.14C585.202 133.14 588.796 131.747 591.729 128.96C594.809 126.027 596.349 122.433 596.349 118.18C596.349 114.22 595.029 110.847 592.389 108.06C589.749 105.127 585.129 101.607 578.529 97.5C573.542 94.42 569.509 91.4867 566.429 88.7C563.349 85.9133 561.076 83.0533 559.609 80.12C558.289 77.1867 557.629 73.8867 557.629 70.22C557.629 65.5267 558.729 61.2733 560.929 57.46C563.129 53.6467 566.429 50.64 570.829 48.44C575.229 46.0933 580.729 44.92 587.329 44.92C591.729 44.92 595.396 45.36 598.329 46.24C601.262 47.12 603.462 48.0733 604.929 49.1C606.102 50.7133 607.056 53.28 607.789 56.8C608.669 60.1733 609.109 63.4 609.109 66.48C609.109 67.5067 608.376 68.02 606.909 68.02C606.029 68.02 605.149 67.8733 604.269 67.58C603.536 67.14 603.022 66.6267 602.729 66.04C600.822 61.2 598.402 57.5333 595.469 55.04C592.682 52.4 589.162 51.08 584.909 51.08C581.242 51.08 577.942 52.18 575.009 54.38C572.222 56.58 570.829 59.8067 570.829 64.06C570.829 67.4333 571.856 70.44 573.909 73.08C576.109 75.72 580.142 78.7267 586.009 82.1C594.516 86.94 600.822 91.4867 604.929 95.74C609.182 99.8467 611.309 105.347 611.309 112.24C611.309 120.16 608.302 126.613 602.289 131.6C596.276 136.587 588.502 139.08 578.969 139.08ZM650.082 139.08C645.536 139.08 641.282 138.347 637.322 136.88C633.362 135.56 629.989 133.653 627.202 131.16C626.469 129.547 625.882 126.833 625.442 123.02C625.149 119.207 624.929 116.053 624.782 113.56C624.782 112.24 625.736 111.58 627.642 111.58C628.229 111.58 628.742 111.727 629.182 112.02C629.769 112.167 630.136 112.533 630.282 113.12C632.189 120.307 635.196 125.44 639.302 128.52C643.556 131.6 647.809 133.14 652.062 133.14C656.316 133.14 659.909 131.747 662.842 128.96C665.922 126.027 667.462 122.433 667.462 118.18C667.462 114.22 666.142 110.847 663.502 108.06C660.862 105.127 656.242 101.607 649.642 97.5C644.656 94.42 640.622 91.4867 637.542 88.7C634.462 85.9133 632.189 83.0533 630.722 80.12C629.402 77.1867 628.742 73.8867 628.742 70.22C628.742 65.5267 629.842 61.2733 632.042 57.46C634.242 53.6467 637.542 50.64 641.942 48.44C646.342 46.0933 651.842 44.92 658.442 44.92C662.842 44.92 666.509 45.36 669.442 46.24C672.376 47.12 674.576 48.0733 676.042 49.1C677.216 50.7133 678.169 53.28 678.902 56.8C679.782 60.1733 680.222 63.4 680.222 66.48C680.222 67.5067 679.489 68.02 678.022 68.02C677.142 68.02 676.262 67.8733 675.382 67.58C674.649 67.14 674.136 66.6267 673.842 66.04C671.936 61.2 669.516 57.5333 666.582 55.04C663.796 52.4 660.276 51.08 656.022 51.08C652.356 51.08 649.056 52.18 646.122 54.38C643.336 56.58 641.942 59.8067 641.942 64.06C641.942 67.4333 642.969 70.44 645.022 73.08C647.222 75.72 651.256 78.7267 657.122 82.1C665.629 86.94 671.936 91.4867 676.042 95.74C680.296 99.8467 682.422 105.347 682.422 112.24C682.422 120.16 679.416 126.613 673.402 131.6C667.389 136.587 659.616 139.08 650.082 139.08ZM699.196 136.66C697.876 136.66 696.776 136.44 695.896 136C695.162 135.707 694.796 135.12 694.796 134.24C694.796 133.067 695.309 132.26 696.336 131.82C697.509 131.38 698.682 131.013 699.856 130.72C702.936 129.987 705.282 129.107 706.896 128.08C708.509 126.907 709.316 125 709.316 122.36V74.62C709.316 70.66 708.582 67.14 707.116 64.06C705.796 60.98 703.229 59.1467 699.416 58.56C698.682 58.4133 698.096 58.12 697.656 57.68C697.362 57.24 697.216 56.58 697.216 55.7C697.216 54.0867 697.876 53.2067 699.196 53.06C705.062 51.74 709.902 49.98 713.716 47.78C717.529 45.4333 720.389 43.5267 722.296 42.06C723.616 41.0333 724.642 40.52 725.376 40.52C726.256 40.52 726.696 40.8867 726.696 41.62C726.696 42.7933 726.476 45.14 726.036 48.66C725.742 52.0333 725.449 55.8467 725.156 60.1C724.862 64.2067 724.716 67.9467 724.716 71.32V122.36C724.716 124.853 725.522 126.687 727.136 127.86C728.896 129.033 731.242 129.987 734.176 130.72C735.349 131.013 736.449 131.38 737.476 131.82C738.649 132.26 739.236 133.067 739.236 134.24C739.236 135.853 737.769 136.66 734.836 136.66C732.049 136.66 729.776 136.513 728.016 136.22C726.402 136.073 724.789 135.927 723.176 135.78C721.709 135.633 719.656 135.56 717.016 135.56C714.522 135.56 712.469 135.633 710.856 135.78C709.242 135.927 707.629 136.073 706.016 136.22C704.402 136.513 702.129 136.66 699.196 136.66ZM716.796 22.48C713.716 22.48 711.076 21.4533 708.876 19.4C706.822 17.2 705.796 14.56 705.796 11.48C705.796 8.25333 706.822 5.61333 708.876 3.55999C711.076 1.35999 713.716 0.25999 716.796 0.25999C720.022 0.25999 722.662 1.35999 724.716 3.55999C726.916 5.61333 728.016 8.25333 728.016 11.48C728.016 14.56 726.916 17.2 724.716 19.4C722.662 21.4533 720.022 22.48 716.796 22.48ZM753.121 136.66C751.801 136.66 750.701 136.44 749.821 136C749.088 135.707 748.721 135.12 748.721 134.24C748.721 133.067 749.161 132.333 750.041 132.04C750.921 131.6 752.168 131.16 753.781 130.72C755.981 130.133 758.108 129.327 760.161 128.3C762.215 127.273 763.241 125.293 763.241 122.36V75.06C763.241 71.1 762.801 67.7267 761.921 64.94C761.188 62.1533 758.915 60.2467 755.101 59.22C754.515 58.9267 754.001 58.6333 753.561 58.34C753.121 57.9 752.901 57.24 752.901 56.36C752.901 54.7467 753.561 53.8667 754.881 53.72C760.015 52.4 764.195 50.7867 767.421 48.88C770.648 46.9733 773.801 44.8467 776.881 42.5C777.321 42.2067 777.688 41.9867 777.981 41.84C778.421 41.5467 778.861 41.4 779.301 41.4C779.595 41.4 779.815 41.5467 779.961 41.84C780.255 42.1333 780.401 42.5 780.401 42.94C780.401 43.9667 780.181 46.0933 779.741 49.32C779.448 52.4 779.301 54.9667 779.301 57.02C779.301 57.6067 779.301 58.1933 779.301 58.78C779.448 59.22 779.595 59.5133 779.741 59.66C784.875 54.82 790.301 51.1533 796.021 48.66C801.888 46.1667 808.268 44.92 815.161 44.92C822.348 44.92 828.288 47.8533 832.981 53.72C837.675 59.5867 840.021 66.8467 840.021 75.5V122.36C840.021 125.293 841.048 127.273 843.101 128.3C845.155 129.18 847.281 129.987 849.481 130.72C850.655 131.16 851.755 131.673 852.781 132.26C853.955 132.7 854.541 133.507 854.541 134.68C854.541 135.56 854.028 136.073 853.001 136.22C851.975 136.513 851.021 136.66 850.141 136.66C847.208 136.66 844.935 136.513 843.321 136.22C841.708 136.073 840.168 135.927 838.701 135.78C837.235 135.633 835.181 135.56 832.541 135.56C830.048 135.56 827.995 135.633 826.381 135.78C824.768 135.927 823.081 136.073 821.321 136.22C819.708 136.513 817.435 136.66 814.501 136.66C813.768 136.66 812.815 136.513 811.641 136.22C810.615 136.073 810.101 135.56 810.101 134.68C810.101 133.507 810.615 132.7 811.641 132.26C812.815 131.673 813.988 131.16 815.161 130.72C817.361 129.987 819.488 129.18 821.541 128.3C823.595 127.273 824.621 125.293 824.621 122.36V76.16C824.621 69.7067 822.788 64.72 819.121 61.2C815.601 57.5333 810.835 55.6267 804.821 55.48C799.541 55.48 794.921 56.36 790.961 58.12C787.001 59.7333 783.481 61.7867 780.401 64.28C779.815 64.8667 779.375 65.6733 779.081 66.7C778.788 67.58 778.641 68.46 778.641 69.34V122.36C778.641 125.293 779.668 127.273 781.721 128.3C783.775 129.327 785.901 130.133 788.101 130.72C791.475 131.6 793.161 132.773 793.161 134.24C793.161 135.12 792.795 135.707 792.061 136C791.328 136.44 790.228 136.66 788.761 136.66C785.828 136.66 783.481 136.513 781.721 136.22C780.108 136.073 778.568 135.927 777.101 135.78C775.635 135.633 773.581 135.56 770.941 135.56C768.448 135.56 766.395 135.633 764.781 135.78C763.315 135.927 761.701 136.073 759.941 136.22C758.328 136.513 756.055 136.66 753.121 136.66ZM902.572 199.8C890.105 199.8 880.205 197.38 872.872 192.54C865.685 187.847 862.092 181.467 862.092 173.4C862.092 169.587 862.679 166.36 863.852 163.72C865.025 161.08 866.859 158.807 869.352 156.9C871.405 155.14 874.119 152.867 877.492 150.08C881.012 147.44 884.605 144.653 888.272 141.72L897.512 142.16C890.472 146.707 885.559 151.033 882.772 155.14C879.985 159.247 878.592 164.233 878.592 170.1C878.592 175.967 881.159 180.88 886.292 184.84C891.572 188.947 898.025 191 905.652 191C914.305 191 921.272 189.02 926.552 185.06C930.219 182.273 933.079 178.607 935.132 174.06C937.185 169.66 938.212 164.967 938.212 159.98C938.212 156.753 937.039 154.04 934.692 151.84C932.492 149.787 928.972 148.1 924.132 146.78C919.292 145.46 912.985 144.58 905.212 144.14C891.425 143.113 881.819 141.28 876.392 138.64C871.112 136 868.472 131.893 868.472 126.32C868.472 124.853 868.839 123.533 869.572 122.36C870.452 121.04 871.772 119.647 873.532 118.18C876.905 115.54 879.399 113.633 881.012 112.46C882.625 111.14 883.799 110.04 884.532 109.16C885.412 108.28 886.219 107.18 886.952 105.86L894.432 109.6C891.205 110.773 888.492 112.387 886.292 114.44C884.092 116.347 882.992 118.107 882.992 119.72C882.992 121.773 884.092 123.607 886.292 125.22C888.492 126.687 891.719 127.86 895.972 128.74C900.225 129.62 905.432 130.28 911.592 130.72C925.085 131.453 935.132 133.653 941.732 137.32C948.332 140.987 951.632 146.193 951.632 152.94C951.632 158.66 950.165 164.233 947.232 169.66C944.445 175.233 940.705 180.293 936.012 184.84C931.319 189.387 926.039 192.98 920.172 195.62C914.452 198.407 908.585 199.8 902.572 199.8ZM905.212 104.98C910.785 104.98 915.405 102.193 919.072 96.62C922.739 90.9 924.572 83.86 924.572 75.5C924.572 71.2467 923.545 67.2867 921.492 63.62C919.585 59.8067 917.019 56.8 913.792 54.6C910.712 52.2533 907.339 51.08 903.672 51.08C900.299 51.08 897.072 52.3267 893.992 54.82C891.059 57.1667 888.639 60.2467 886.732 64.06C884.972 67.8733 884.092 72.0533 884.092 76.6C884.092 81.7333 885.045 86.5 886.952 90.9C888.859 95.1533 891.425 98.6 894.652 101.24C897.879 103.733 901.399 104.98 905.212 104.98ZM903.892 112.68C897.879 112.68 892.159 111.14 886.732 108.06C881.305 104.98 876.832 100.947 873.312 95.96C869.939 90.8267 868.252 85.2533 868.252 79.24C868.252 72.3467 870.012 66.3333 873.532 61.2C877.199 55.92 881.965 51.8133 887.832 48.88C893.699 45.9467 899.932 44.48 906.532 44.48C910.785 44.48 914.452 45.0667 917.532 46.24C920.759 47.2667 923.912 48.22 926.992 49.1C930.512 50.1267 933.299 50.7867 935.352 51.08C937.405 51.2267 939.532 51.3 941.732 51.3C943.492 51.3 945.692 51.2267 948.332 51.08C950.972 50.7867 952.805 50.64 953.832 50.64C955.739 50.64 956.692 51.74 956.692 53.94C956.692 55.26 955.959 56.6533 954.492 58.12C953.759 58.8533 953.172 59.22 952.732 59.22H946.792C942.832 59.22 940.632 59.8067 940.192 60.98C940.045 61.5667 939.825 62.4467 939.532 63.62C939.385 64.6467 939.239 65.82 939.092 67.14C938.945 68.46 938.872 69.78 938.872 71.1C938.872 78.58 937.259 85.4733 934.032 91.78C930.805 98.0867 926.552 103.147 921.272 106.96C915.992 110.773 910.199 112.68 903.892 112.68ZM980.577 139.08C977.351 139.08 974.491 137.907 971.997 135.56C969.651 133.067 968.477 130.207 968.477 126.98C968.477 123.607 969.651 120.747 971.997 118.4C974.491 116.053 977.351 114.88 980.577 114.88C983.951 114.88 986.811 116.053 989.157 118.4C991.504 120.747 992.677 123.607 992.677 126.98C992.677 130.207 991.504 133.067 989.157 135.56C986.811 137.907 983.951 139.08 980.577 139.08Z" fill="#2D2F31"/>
</svg>
