<svg width="105" height="105" viewBox="0 0 105 105" fill="none" xmlns="http://www.w3.org/2000/svg">
<path d="M52.5 39.7852C52.5 43.1573 51.1603 46.3914 48.7758 48.7758C46.3914 51.1603 43.1573 52.5 39.7852 52.5H31.3086V27.0703H39.7852C43.1573 27.0703 46.3914 28.4099 48.7758 30.7944C51.1603 33.1789 52.5 36.413 52.5 39.7852Z" stroke="black" stroke-width="1.5" stroke-linecap="round" stroke-linejoin="round"/>
<path d="M31.3086 52.5V69.4531" stroke="black" stroke-width="1.5" stroke-linecap="round" stroke-linejoin="round"/>
<path d="M60.9762 62.5025C61.2572 64.7505 62.4197 66.795 64.2083 68.186C65.0936 68.8747 66.1062 69.3821 67.1878 69.6796C68.2694 69.9771 69.3993 70.0585 70.5123 69.9195C71.6257 69.78 72.7005 69.4232 73.6753 68.8688C74.6505 68.314 75.5071 67.5727 76.1958 66.6874C76.8845 65.802 77.3923 64.7895 77.6894 63.7079C77.9869 62.6258 78.0683 61.4963 77.9293 60.3834C77.9293 54.5345 69.4527 52.5001 69.4527 52.5001C69.4527 52.5001 60.9762 50.4658 60.9762 44.6169C60.6952 42.3687 61.3186 40.101 62.7096 38.3126C64.1006 36.5242 66.1452 35.3617 68.3931 35.0806C70.6411 34.7996 72.909 35.4232 74.6972 36.8141C76.4857 38.2051 77.6483 40.2495 77.9293 42.4976" stroke="black" stroke-width="1.5" stroke-linecap="round" stroke-linejoin="round"/>
<path d="M95.9424 4.81934H9.05762C6.7169 4.81934 4.81934 6.7169 4.81934 9.05762V95.9424C4.81934 98.2832 6.7169 100.181 9.05762 100.181H95.9424C98.2832 100.181 100.181 98.2832 100.181 95.9424V9.05762C100.181 6.7169 98.2832 4.81934 95.9424 4.81934Z" stroke="black" stroke-width="1.5" stroke-linecap="round" stroke-linejoin="round"/>
</svg>
