<svg width="105" height="105" viewBox="0 0 105 105" fill="none" xmlns="http://www.w3.org/2000/svg">
<path d="M68.384 96.718L50.3535 101.87L55.5051 83.8391L86.3243 53.0198C88.0322 51.312 90.3485 50.3525 92.7638 50.3525C95.179 50.3525 97.4954 51.312 99.2032 53.0198C100.911 54.7277 101.871 57.044 101.871 59.4593C101.871 61.8746 100.911 64.1909 99.2032 65.8988L68.384 96.718Z" stroke="black" stroke-width="0.9" stroke-linecap="round" stroke-linejoin="round"/>
<path d="M82.4609 56.8828L95.3398 69.7617" stroke="black" stroke-width="0.9" stroke-linecap="round" stroke-linejoin="round"/>
<path d="M55.5049 83.8389L68.3838 96.7178" stroke="black" stroke-width="0.9" stroke-linecap="round" stroke-linejoin="round"/>
<path d="M58.9395 63.2324H37.4746L20.3027 80.4043V63.2324H7.42383C6.28526 63.2324 5.19333 62.7801 4.38824 61.975C3.58315 61.17 3.13086 60.078 3.13086 58.9395V7.42383C3.13086 6.28526 3.58315 5.19333 4.38824 4.38824C5.19333 3.58315 6.28526 3.13086 7.42383 3.13086H88.9902C90.1288 3.13086 91.2207 3.58315 92.0258 4.38824C92.8309 5.19333 93.2832 6.28526 93.2832 7.42383V41.7676" stroke="black" stroke-width="0.9" stroke-linecap="round" stroke-linejoin="round"/>
</svg>
