<svg width="102" height="69" viewBox="0 0 102 69" fill="none" xmlns="http://www.w3.org/2000/svg">
<path d="M42.771 45.8524C43.0877 46.497 43.3045 47.186 43.4141 47.8958L41.7497 48.4392C40.8641 47.7375 40.061 46.9556 39.1229 46.4C38.2108 45.8591 37.7162 44.7998 36.626 44.5804L36.2203 43.8724C35.0401 43.2305 34.0626 42.227 33.0134 41.315C32.5642 40.8581 32.1435 40.374 31.7536 39.8655L30.9646 39.4205C30.279 38.8266 29.6651 38.1546 29.1355 37.4181C29.012 37.2195 28.8525 37.0457 28.6653 36.9055C27.5562 36.1586 26.6302 35.1708 25.9564 34.0159C25.6557 33.4762 25.0975 33.0754 24.6379 32.6306C24.225 32.2306 23.7634 31.8789 23.3665 31.4641C22.9696 31.0492 22.6217 30.5785 22.1833 30.049L21.9324 29.2804L22.6064 28.5063L23.7293 28.1397C24.0725 28.1793 24.5298 28.2317 24.9044 28.2751C25.7875 29.079 26.6702 29.7574 27.3938 30.5752C28.1174 31.3929 28.7653 32.2715 29.7158 33.1207L30.0383 33.8226C30.4488 34.1847 30.7814 34.5073 31.1441 34.7917C31.6989 35.2269 32.0448 35.8601 32.5529 36.3115C33.0756 36.7759 33.6166 37.1736 33.979 37.807C34.1665 38.1343 34.5917 38.3229 34.8998 38.5841C36.5353 39.9707 38.062 41.4769 39.7125 42.8482C40.2531 43.2703 40.7329 43.765 41.1383 44.3182C41.5844 44.9779 42.193 45.389 42.771 45.8524Z" fill="white"/>
<path d="M93.0786 11.7959C92.6419 13.2854 92.239 14.7361 91.7872 16.1707C91.5579 17.0138 91.2561 17.8356 90.8853 18.6267C90.5946 19.1885 90.4714 19.8379 90.1991 20.4112C89.8222 21.201 89.7295 22.0832 89.2813 22.8564C88.8139 23.6627 88.7775 24.6448 88.4291 25.4982C88.0965 26.3137 87.9141 27.1623 87.6422 27.9904C87.4089 28.7062 87.1582 29.4181 86.8848 30.2214L86.152 31.0365L85.2631 31.3267L84.6764 31.0448C84.617 30.9263 84.5774 30.799 84.5592 30.6678C84.6917 29.5717 84.9302 28.4911 85.2714 27.4411C85.8183 25.5464 86.1858 23.5977 86.9947 21.7829C87.1224 20.4942 87.6592 19.32 88.0341 18.1016C88.6484 16.1057 89.2912 14.1182 89.9627 12.1392C90.2054 11.4228 90.3524 10.6735 90.887 9.95793C91.2096 9.6587 91.7303 9.62629 92.2897 9.4689C92.7118 10.2622 92.8279 11.0765 93.0786 11.7959Z" fill="white"/>
<path d="M61.8319 33.6557L61.3763 34.3091C61.1702 34.2786 60.9538 34.3125 60.847 34.2201C60.3664 33.8026 59.9168 33.3493 59.3911 32.847C59.0737 31.9206 58.719 30.9292 58.3941 29.9283C57.1627 26.1361 55.9377 22.3419 54.7189 18.5456C54.5607 18.0525 54.262 17.5713 54.5384 17.0571C53.3783 15.6861 53.4518 13.9977 53.0877 12.2321L53.3663 11.7228C53.8316 11.7782 54.2215 11.8243 54.6528 11.8756C54.8254 12.3356 54.9948 12.7669 55.1486 13.2035C55.3635 13.8113 55.4898 14.4661 55.7987 15.0205C56.0709 15.5091 56.3331 15.9651 56.3358 16.5339C56.8086 16.9087 56.8748 17.3851 56.7535 17.9539C56.7587 18.1886 56.818 18.4189 56.9266 18.627C57.3392 19.9108 57.7509 21.1949 58.1723 22.4761C58.3723 23.0839 58.5028 23.7326 59.1189 24.0055L59.055 25.0191C59.2587 25.2941 59.4441 25.5822 59.61 25.8816C59.7514 26.204 59.8655 26.5376 59.9511 26.879C60.0478 27.2142 60.2357 27.5821 60.1705 27.8904C60.0878 28.2806 60.4506 28.4691 60.4076 28.8436C60.4094 29.2488 60.492 29.6496 60.6505 30.0225C61.0189 31.1949 61.4096 32.362 61.8319 33.6557Z" fill="white"/>
<path d="M19.4435 58.8175C19.9525 59.3943 20.7206 59.7008 21.4462 60.0718C22.9559 60.8434 24.4691 61.6082 25.9411 62.3557L26.2612 63.3363C26.0938 63.7408 25.7448 63.687 25.4789 63.8622C24.2107 63.7303 22.9797 63.3558 21.8529 62.7593C21.3057 62.4591 20.8494 62.0186 20.1846 61.8885C19.6162 61.7625 19.0738 61.5394 18.5811 61.2291C17.4861 60.5656 16.2521 60.2929 15.0813 59.8425C14.4481 59.5991 13.7423 59.3803 13.3052 58.77C12.0107 58.2812 10.966 57.2685 9.57172 56.9956L8.7136 55.8355L9.35562 54.438C9.78699 54.3959 10.1756 54.3571 10.7604 54.3007C11.0205 54.4359 11.2688 54.5928 11.5027 54.7696C11.7706 54.9934 11.9857 55.2432 12.3867 55.2567C12.6212 55.2849 12.8416 55.3839 13.0185 55.5404C14.4841 56.745 16.268 57.3714 17.9123 58.249C18.4107 58.4695 18.922 58.6594 19.4435 58.8175Z" fill="white"/>
</svg>
