<svg width="246" height="71" fill="none" xmlns="http://www.w3.org/2000/svg"><g clip-path="url(#clip0_182_513)" fill="#fff"><path d="M29.88 17.557a15.697 15.697 0 00-8.283-2.2c-2.184-.025-4.35.4-6.36 1.25a15.821 15.821 0 00-5.325 3.69v-4.014H0v39.282h10.296V34.188a9.34 9.34 0 012.477-6.751 8.301 8.301 0 016.27-2.585 7.628 7.628 0 016.077 2.546 10.013 10.013 0 012.205 6.791v21.378H37.62V32.259a18.14 18.14 0 00-2.051-8.644 15.364 15.364 0 00-5.69-6.058zm46.096.424a20.776 20.776 0 00-10.181-2.623c-3.584-.02-7.113.87-10.257 2.584a19.922 19.922 0 00-7.627 7.294 20.213 20.213 0 00-2.86 10.73 19.832 19.832 0 002.725 10.45 19.91 19.91 0 007.803 7.49 21.228 21.228 0 0010.216 2.585 19.905 19.905 0 0011.998-3.589 20.597 20.597 0 007.199-9.222H74.62a9.127 9.127 0 01-3.522 3.357 11.115 11.115 0 01-5.226 1.12 10.029 10.029 0 01-6.658-2.2 10.674 10.674 0 01-3.484-6.212h30.19c.3-1.448.457-2.921.467-4.4a18.933 18.933 0 00-2.826-10.186 20.317 20.317 0 00-7.586-7.178zM55.81 31.793a10.675 10.675 0 013.524-5.979 9.872 9.872 0 016.46-2.122c2.837 0 5.095.746 6.771 2.238a10.561 10.561 0 013.29 5.866l-20.045-.003zm75.395-15.51h-11.921L104.886 32.8V0H94.591v55.566h10.295V38.431l15.172 17.133h12.385l-18.268-20.22 17.03-19.062zm35.724 1.66c-.069-.037-.141-.067-.21-.103l-4.563-7.455-2.42 5.223a22.881 22.881 0 00-6.75 0l-2.418-5.223-4.564 7.456c-.069.036-.14.066-.21.102a20.183 20.183 0 00-7.856 7.294 19.816 19.816 0 00-2.942 10.727 19.613 19.613 0 002.942 10.689 20.253 20.253 0 007.856 7.254 22.88 22.88 0 0021.134 0 20.278 20.278 0 007.856-7.254 19.629 19.629 0 002.942-10.689 19.826 19.826 0 00-2.942-10.727 20.204 20.204 0 00-7.855-7.294zm-2.671 25.892a11.102 11.102 0 01-12.149 2.453 11.067 11.067 0 01-4.993-4.121c-1.214-1.84-1.849-4-1.823-6.201a11.025 11.025 0 016.78-10.403 11.098 11.098 0 0112.198 2.452 11.025 11.025 0 013.16 7.951 10.681 10.681 0 01-3.173 7.869zm53.488-25.854a18.996 18.996 0 00-9.6-2.623 19.911 19.911 0 00-7.199 1.196 14.841 14.841 0 00-5.496 3.743v-4.013h-9.907V71h10.296V51.938a14.798 14.798 0 005.302 3.434 19.897 19.897 0 007.004 1.12 18.995 18.995 0 009.598-2.624 20.077 20.077 0 007.355-7.332 20.359 20.359 0 002.786-10.573 20.517 20.517 0 00-2.786-10.65 20.095 20.095 0 00-7.353-7.332zm-3.329 25.854a11.079 11.079 0 01-5.698 3.08 11.103 11.103 0 01-6.451-.627 11.067 11.067 0 01-4.993-4.121c-1.214-1.84-1.849-4-1.823-6.201a11.036 11.036 0 01.782-4.288 11.033 11.033 0 012.386-3.65 11.075 11.075 0 017.902-3.307 11.096 11.096 0 017.901 3.306 11.033 11.033 0 012.386 3.651 11 11 0 01.782 4.288 10.648 10.648 0 01-.77 4.262 10.683 10.683 0 01-2.404 3.607zm31.582-27.552h-10.296v39.282h10.296V16.283zm-4.042-5.301a5.133 5.133 0 003.828-6.175c-.653-2.76-3.426-4.468-6.194-3.817a5.133 5.133 0 00-3.828 6.175 5.15 5.15 0 006.194 3.817z"/></g><defs><clipPath id="clip0_182_513"><path fill="#fff" d="M0 0h246v71H0z"/></clipPath></defs></svg>