<svg width="157" height="47" fill="none" xmlns="http://www.w3.org/2000/svg"><path d="M126.294 39.324H31.368l7.564 7.59 87.362-7.59zM40.161 8.582V9.72c-1.796-1.138-3.309-1.802-5.483-1.802-6.619 0-11.724 6.072-11.724 13.568 0 7.495 5.01 13.568 11.724 13.568 2.174 0 3.781-.664 5.483-1.803v1.139h5.862V8.582h-5.862zm-5.483 20.304c-3.31 0-5.673-3.225-5.673-7.305s2.363-7.306 5.673-7.306c3.309 0 5.578 3.226 5.578 7.306s-2.27 7.306-5.578 7.306zM86.962 8.582v15.18c0 2.847-1.985 5.22-4.822 5.22-2.836 0-4.822-2.373-4.822-5.22V8.583h-5.861v15.18c0 6.263 4.254 11.292 10.494 11.292 2.837 0 5.011-1.613 5.011-1.613v.949h5.862V8.582h-5.862zm54.459 25.903V19.304c0-2.847 1.986-5.219 4.822-5.219 2.836 0 4.822 2.372 4.822 5.219v15.18h5.862v-15.18c0-6.263-4.255-11.291-10.495-11.291-2.836 0-5.011 1.613-5.011 1.613v-.95h-5.862v25.809h5.862z" fill="#BF0000"/><path d="M6.124 34.485V24.427h4.35l7.469 10.058H25.6l-9.076-12.05c2.836-1.993 4.632-5.314 4.632-9.109 0-6.167-5.01-11.101-11.062-11.101H.073v32.26h6.051zm0-26.188h3.971c2.742 0 5.011 2.277 5.011 5.029s-2.269 5.029-5.01 5.029H6.123V8.297zm102.489 20.02c-.567.38-1.229.665-1.985.665-.946 0-2.742-.76-2.742-3.131V14.748h5.011V8.582h-5.011V2.13h-5.862v6.452h-3.12v6.167h3.12V25.85c0 5.788 4.349 9.204 8.698 9.204 1.608 0 3.877-.57 5.673-1.613l-3.782-5.124zm-48.029-7.59L70.606 8.582H62.38l-6.997 9.014V.042h-6.05v34.443h6.05V23.857l8.604 10.626h8.226l-11.63-13.757z" fill="#BF0000"/><path d="M122.134 7.918c-6.808 0-11.63 5.977-11.63 13.568 0 7.97 6.051 13.568 12.197 13.568 3.12 0 6.996-1.044 10.306-5.788l-5.2-3.036c-3.971 5.882-10.684 2.941-11.441-3.036h16.83c1.512-9.109-4.444-15.276-11.062-15.276zm5.011 10.247H116.65c1.229-6.072 9.36-6.357 10.495 0z" fill="#BF0000"/></svg>