<svg width="66" height="52" viewBox="0 0 66 52" fill="none" xmlns="http://www.w3.org/2000/svg">
<path d="M42.2076 10.9613L42.497 11.7354C42.661 11.7709 42.8666 11.8148 43.2338 11.8936C43.635 12.1989 43.8503 12.8951 44.5745 13.1901C45.0926 13.4008 45.4566 14.0372 45.8404 14.5225C46.6935 15.6296 47.6306 16.6694 48.6433 17.6327C49.3834 18.3191 50.1581 18.9812 50.5886 19.937C50.6875 20.1503 50.8356 20.337 51.0209 20.4818C52.0477 21.2718 52.5822 22.4113 53.1931 23.4955C53.5386 24.1097 53.868 24.733 54.1813 25.3655C54.4848 25.9834 55.1957 26.3686 55.2068 27.1529C56.1901 29.0292 56.3772 29.849 56.8512 32.374C57.0101 33.2202 57.3524 34.0066 56.9958 34.8647C57.2622 35.6675 56.8904 36.3938 56.7472 37.1539C56.619 37.8293 56.674 38.5405 56.539 39.2137C56.3669 39.8972 56.1596 40.5714 55.9179 41.2335C55.6857 41.9765 55.5162 42.7271 54.8816 43.296C54.6184 43.532 54.561 43.9978 54.3895 44.4089C53.3304 45.1895 52.14 45.7739 50.8747 46.1345C49.7932 46.3908 48.7184 46.0976 47.6464 46.0639C46.6109 46.0301 45.8901 45.1507 45.0037 44.5348C44.486 42.9307 44.1483 41.274 43.9968 39.5952C43.9196 38.5248 43.7796 37.4598 43.5773 36.4058C43.2529 34.653 43.11 32.8714 43.1507 31.0893C43.1752 30.2441 43.018 29.3951 42.9828 28.5462C42.9505 27.7809 42.9753 27.0128 42.9677 26.2465C42.9611 25.5551 42.6919 24.8776 42.9334 24.1668C42.9981 23.8647 42.9863 23.5512 42.899 23.2548C42.6488 22.0396 42.7345 20.7852 42.4565 19.5757C42.1786 18.3663 42.1929 17.1244 41.9785 15.905C41.8044 14.5708 41.4128 13.2742 40.819 12.0668L41.5846 10.7804C41.4303 10.0995 40.6958 9.75785 40.0612 9.18385C39.4956 9.26576 38.9006 9.35173 38.3363 9.43362L38.0933 10.2114C38.3499 11.3355 38.9702 12.3685 38.97 13.561C38.9694 14.657 39.5025 15.6445 39.5729 16.7358C39.6469 17.891 39.9359 19.0175 39.9566 20.1962C39.9796 21.4233 40.3885 22.6269 40.3479 23.8891C40.3182 24.808 40.5116 25.732 40.5437 26.6557C40.5314 27.2083 40.4853 27.7597 40.4056 28.3067C40.7414 29.2396 40.9111 30.2243 40.9069 31.2158C40.9124 33.1492 41.0301 35.0981 41.779 36.9326C41.7405 38.5009 42.3587 39.959 42.5469 41.4942C42.707 42.7989 43.0453 44.0818 43.2406 45.0553C43.845 46.4793 45.059 46.6662 45.8979 47.3202C46.7682 47.998 47.9254 47.8928 49.0063 48.0261C50.1395 48.1658 51.1645 47.8534 52.1893 47.814C53.5426 47.2961 54.7758 46.5073 55.8134 45.496C57.135 43.7986 57.7619 41.7153 58.3349 39.611C58.4765 39.0904 58.7169 38.5949 58.5618 38.0093C58.5044 37.704 58.5421 37.3885 58.6696 37.1053C59.2947 35.6094 59.0362 34.0448 59.0633 32.504C59.0308 32.2002 58.9697 31.9 58.8807 31.6077C58.5046 29.5255 57.476 27.6657 56.8523 25.6675C56.6964 25.311 56.4862 24.9808 56.2292 24.6886C56.0951 24.5019 55.832 24.3705 55.7745 24.1717C55.4579 23.2209 54.9384 22.3504 54.2519 21.6204C53.5977 20.859 53.0894 19.9587 52.2235 19.3886C50.6214 17.1554 48.4308 15.5023 46.4855 13.6084C45.5657 12.7888 44.5795 12.047 43.5371 11.3904C43.2361 11.1859 42.8145 11.151 42.2076 10.9613Z" fill="white"/>
<path d="M20.4707 9.58245L18.9021 9.09233L17.828 9.59633C17.1938 10.5746 16.7096 11.5642 15.9996 12.3495C15.2807 13.1445 14.6514 14.0155 13.8566 14.7636C12.972 15.5949 12.2548 16.6217 11.3996 17.5099C10.1179 18.9366 8.58928 20.1202 6.88712 21.0039C5.86063 21.8418 5.13768 22.8631 4.12174 23.6182C3.4477 24.1443 2.94854 24.8619 2.68986 25.6768C2.49635 26.271 2.27936 26.8583 2.09113 27.4541C1.64644 28.8615 1.16241 30.2637 1.42955 32.0429L1.9649 33.5756L3.07162 35.0966C3.68726 35.289 4.36181 35.486 5.02702 35.7104C6.55357 36.2255 8.0663 36.0828 9.59688 35.7015C11.2096 35.2996 12.603 34.4369 13.8847 33.7942C14.7942 33.0116 15.5589 32.3587 16.3185 31.6994C17.748 30.3936 18.8233 28.7469 19.4439 26.9129C19.656 26.2422 19.8674 25.5709 20.0734 24.8983C20.2794 24.2257 20.6755 23.5367 20.6298 22.879C20.5627 21.9179 20.9369 21.0499 20.9338 20.1274C20.9302 19.127 21.0432 18.0927 20.8304 17.1353C20.5712 15.9664 20.9408 14.8219 20.721 13.6803C21.1855 12.3486 20.7223 11.0791 20.4707 9.58245ZM9.94967 34.0055C8.49111 34.3747 6.98273 34.5073 5.48214 34.3981C4.87321 33.9393 4.26639 33.4804 3.66787 33.0306L3.35856 29.5706L4.22549 27.6898L4.22284 27.0268C4.46467 26.8105 4.66984 26.5564 4.83035 26.2744C5.17532 25.4066 5.76702 24.6588 6.53231 24.1235C7.28783 23.4603 8.12172 22.892 9.01535 22.4314C9.49067 22.1747 9.93648 21.8668 10.345 21.5132C11.6286 20.5186 12.8511 19.4518 14.0733 18.3821C14.9693 17.6499 15.78 16.8191 16.49 15.9054C16.6391 15.6372 16.8559 15.4127 17.1187 15.2543C17.7772 15.0012 17.9015 14.3184 18.4116 13.826L19.7115 16.1869C19.4869 20.1823 19.5832 20.6874 18.6172 23.5859C18.3227 24.3092 18.0803 25.0527 17.8919 25.8106C17.6912 26.9297 16.9151 27.7333 16.4612 28.7092C16.2112 29.2443 15.6747 29.649 15.2548 30.1004C14.5692 30.8379 13.8733 31.5673 13.2002 32.2806L9.94967 34.0055Z" fill="white"/>
</svg>
